<svg xmlns="http://www.w3.org/2000/svg" width="163" height="98" fill="none" xmlns:v="https://vecta.io/nano"><path d="M0 16C0 7.163 7.163 0 16 0h130.857c8.837 0 16 7.163 16 16v65.714c0 8.837-7.163 16-16 16H16c-8.836 0-16-7.163-16-16V16z" fill="#d02213"/><path fill-rule="evenodd" d="M112.391 32.015c9.318 0 16.876 7.548 16.876 16.853s-7.558 16.853-16.876 16.853c-4.305 0-8.246-1.615-11.217-4.279-3.456-3.169-8.064-5.106-13.137-5.106-5.982 0-11.318 2.684-14.875 6.923-4.103 4.884-10.267 7.992-17.159 7.992-12.389 0-22.414-10.031-22.414-22.383-.02-12.372 10.025-22.403 22.394-22.403 6.892 0 13.056 3.108 17.159 7.992a19.38 19.38 0 0 0 14.875 6.923c5.053 0 9.681-1.938 13.137-5.106a16.93 16.93 0 0 1 11.237-4.259zm-70.92 22.12c-.263 0-.485.101-.667.363-.121-.242-.344-.363-.586-.363-.222 0-.445.081-.586.303v-.242h-.404v2.281h.404v-1.393c0-.444.283-.565.485-.565.222 0 .404.121.404.444v1.534h.404v-1.413c0-.444.283-.565.485-.565s.404.121.404.444v1.534h.404v-1.534c-.041-.545-.344-.828-.748-.828zm1.556 1.393h1.88c0-.06.02-.121.02-.182 0-.646-.424-1.211-1.132-1.211s-1.192.525-1.192 1.211.465 1.211 1.192 1.211c.505 0 .91-.283 1.031-.686h-.425c-.101.182-.323.343-.626.343-.384-.04-.687-.283-.748-.686zm0-.363h1.496c-.061-.444-.384-.666-.728-.666a.75.75 0 0 0-.768.666zm4.224-1.897v1.312c-.182-.282-.485-.444-.869-.444-.626 0-1.152.525-1.152 1.211s.525 1.211 1.152 1.211c.384 0 .687-.182.869-.444v.383h.404v-3.229h-.404zm-.809 2.886c.465 0 .809-.343.809-.828 0-.464-.344-.828-.809-.828s-.808.343-.808.828c-.02.484.344.828.808.828zm1.819-2.382h.404v-.505h-.404v.505zm0 2.704h.404v-2.281h-.404v2.281zm3.193-.767h-.424c-.101.262-.364.444-.687.444-.445 0-.809-.343-.809-.807s.344-.807.809-.807c.323 0 .586.182.687.444h.424c-.121-.484-.566-.828-1.112-.828a1.19 1.19 0 0 0-1.213 1.211c0 .686.505 1.211 1.213 1.211.525-.04.99-.383 1.112-.868zm1.253-1.574c-.505 0-.889.323-.889.787h.384c0-.283.222-.404.485-.404s.505.141.505.505v.323c-.142-.161-.384-.262-.687-.262-.424 0-.808.242-.808.727s.384.727.808.727c.303 0 .525-.101.687-.303v.242h.384v-1.473c.02-.545-.364-.868-.869-.868zm-.061 2.059c.344 0 .566-.161.566-.383 0-.242-.242-.404-.566-.404-.364 0-.525.161-.525.404 0 .222.162.383.525.383zm1.496.282h.404v-3.29h-.404v3.29zm4.345-.767h-.424c-.101.262-.364.444-.687.444-.445 0-.809-.343-.809-.807s.344-.807.809-.807c.323 0 .586.182.687.444h.424c-.121-.484-.566-.828-1.112-.828a1.19 1.19 0 0 0-1.213 1.211c0 .686.505 1.211 1.213 1.211.546-.04.99-.383 1.112-.868zm.707-.182h1.88c0-.06.02-.121.02-.182 0-.646-.424-1.211-1.132-1.211s-1.192.525-1.192 1.211.465 1.211 1.192 1.211c.505 0 .91-.283 1.031-.686h-.425c-.101.182-.323.343-.626.343-.364-.04-.667-.283-.748-.686zm0-.363h1.496c-.061-.444-.384-.666-.728-.666a.75.75 0 0 0-.768.666zm3.416-1.029a.8.8 0 0 0-.687.343v-.282h-.405v2.281h.405v-1.312c0-.484.283-.666.566-.666s.485.161.485.505v1.473h.404v-1.493c0-.525-.344-.848-.768-.848zm2.405.061h-.445v-.727h-.404v.727h-.445v.383h.445v1.897h.404v-1.897h.445v-.383zm.788.343v-.343h-.404v2.281h.404v-1.231c0-.525.344-.706.687-.686v-.424c-.283.02-.525.121-.687.404zm1.233.989h1.88c0-.06.02-.121.02-.182 0-.646-.425-1.211-1.132-1.211s-1.192.525-1.192 1.211.464 1.211 1.192 1.211c.505 0 .909-.283 1.031-.686h-.425c-.101.182-.323.343-.626.343-.364-.04-.687-.283-.748-.686zm0-.363h1.496c-.061-.444-.384-.666-.728-.666a.75.75 0 0 0-.768.666zm-27.487-9.203h3.193l.041-.101.02.101h3.173v-.303h-6.751v6.358h6.751v-.646h-.687l-.344-.323h1.011v-.323h-1.354l-.303-.282c-.364-.162-.647-.464-.889-.848a1.15 1.15 0 0 0-.162-.141l-.081-.081c-.566-.484-1.193-.848-1.597-.989-.667.868-1.294 1.332-1.455 1.393-.121.04-.283-.121-.202-.202.202-.202 1.192-.868 1.435-1.191l.061-.06-.101-.04.121.02c.101-.101.182-.202.263-.303l-.142-.121h.242a3.08 3.08 0 0 0 .222-.323h-.788l-.344-.323h1.314c.061-.101.101-.202.162-.323h-1.819l-.344-.323h2.284c.04-.101.081-.202.121-.323h-2.708l-.344-.303zm3.315.303l.061.323h3.052v-.323h-3.113zm-.384.646c-.04.101-.101.202-.162.323h.303c-.02-.121-.04-.222-.061-.323h-.081zm.526 0c.02.101.061.222.081.323h2.89v-.323h-2.971zm-.869.626c-.061.101-.121.202-.202.323h.849c-.02-.101-.061-.222-.081-.323h-.566zm1.031 0c.04.101.061.222.101.323h2.708v-.323h-2.809zm-1.374.525c-.061.101-.121.182-.182.262.202.06.485.141.768.282l-.121-.121h.707c-.041-.101-.061-.202-.101-.323h-.95l-.121-.101zm1.597.121c.04.101.081.222.121.323h2.466v-.323h-2.587zm-.586.626c.101.06.222.121.323.182l-.061-.182h-.263zm.849 0c.061.121.101.222.162.323h2.163v-.323h-2.324zm.344.646c.081.121.142.222.222.323h1.758v-.323h-1.981zm.485.626c.121.121.242.242.344.323h1.152v-.323h-1.496zm12.127-6.64v8.558h2.486v-1.958l.485-.363 1.597 2.321h2.728l-2.627-3.774 2.627-2.584h-2.829l-2.041 1.998v-4.198h-2.425zm9.418 2.2h-1.071v1.716h1.071l-.02 4.642h2.911v-4.642h2.081v-1.716h-2.061v-.06c.04-.323.263-.525.808-.525h1.253v-1.594h-1.414c-2.406 0-3.436.706-3.558 2.18zm-17.927 0v1.716h3.901c.505 0 .768.182.768.605h-3.618c-.687.04-1.395.444-1.415 1.09v1.877c.101.545.687 1.09 1.637 1.09h4.507c1.051 0 1.657-.282 1.657-1.271v-3.189c0-.787-.606-1.897-2.506-1.897l-4.931-.02zm2.708 3.916c-.222 0-.404.162-.404.383s.182.384.404.384h1.597c.222 0 .384-.182.404-.384v-.383h-2.001zm21.605-3.916v1.716h3.901c.505 0 .768.182.768.605h-3.618c-.687.04-1.394.444-1.415 1.09v1.877c.101.545.687 1.09 1.637 1.09h4.507c1.051 0 1.658-.282 1.658-1.271v-3.189c0-.787-.607-1.897-2.506-1.897l-4.932-.02zm2.729 3.916c-.223 0-.405.162-.405.383s.182.384.405.384h1.596c.223 0 .384-.182.404-.384v-.383h-2zM90.038 45.9h-2.627l-.384 1.534c-.182.787-.384 1.554-.506 2.341-.121-.787-.283-1.534-.465-2.301l-.384-1.574h-2.688v6.095h1.759v-1.171c0-1.393 0-1.756-.061-3.209l1.152 4.38h1.395l1.152-4.38c-.041 1.15-.061 2.301-.061 3.471v.908h1.758V45.9h-.04zm6.063 0h-5.052v6.095h5.133v-1.554h-3.294v-.888h2.91v-1.413h-2.91v-.767h3.213V45.9zm1.011 0v6.095H99.8c2.001 0 3.112-1.029 3.112-3.068 0-1.897-1.212-3.027-3.072-3.027h-2.728zm1.819 1.534v3.027h.727c.91 0 1.375-.565 1.375-1.493 0-1.029-.586-1.534-1.556-1.534h-.546zm9.378 2.967H105.6V45.9h-1.859v6.095h4.588v-1.594h-.02zm2.688-4.501h-1.86v6.095h1.86V45.9zm6.487 0h-1.798v2.018c0 .464.02.949.06 1.393a8.91 8.91 0 0 0-.606-1.15l-1.314-2.281h-1.839v6.095h1.799v-2.119c0-.464 0-.928-.061-1.393.142.323.283.605.465.908l1.516 2.583h1.799V45.9h-.021zm6.044 0h-5.053v6.095h5.133v-1.554h-3.294v-.888h2.91v-1.413h-2.91v-.767h3.214V45.9z" fill="#fff"/></svg>