<svg xmlns="http://www.w3.org/2000/svg" width="24" height="24" fill="none" xmlns:v="https://vecta.io/nano"><path d="M1.674 19.124c-.825 0-1.674.662-1.674 1.819 0 1.059.746 1.806 1.674 1.806.766 0 1.108-.514 1.108-.514v.224c0 .105.1.223.223.223h.554v-3.48h-.777v.443s-.344-.522-1.108-.522zm.138.712c.679 0 1.036.597 1.036 1.108 0 .567-.423 1.106-1.034 1.106-.511 0-1.023-.414-1.023-1.114 0-.632.44-1.099 1.021-1.099zm2.827 2.847c-.03.001-.059-.004-.087-.015s-.053-.027-.074-.048-.038-.046-.048-.074-.016-.057-.015-.087v-3.255h.777v.43c.176-.265.521-.511 1.05-.511.863 0 1.323.689 1.323 1.332v2.227h-.54c-.063 0-.123-.025-.167-.07s-.07-.105-.07-.167v-1.819c0-.357-.219-.79-.725-.79-.545 0-.87.515-.87 1.001v1.846h-.554l.001-.001zm5.192-3.559c-.825 0-1.674.662-1.674 1.819 0 1.059.746 1.806 1.674 1.806.766 0 1.108-.514 1.108-.514v.223c0 .106.1.224.223.224h.554v-5.218h-.777v2.181s-.344-.521-1.108-.521v-.001zm.138.712c.679 0 1.036.597 1.036 1.108 0 .567-.423 1.106-1.034 1.106-.51 0-1.023-.414-1.023-1.114 0-.632.44-1.099 1.021-1.099zm2.827 2.847c-.03.001-.059-.004-.087-.015s-.053-.027-.074-.048-.038-.046-.048-.074-.016-.057-.015-.087v-3.255h.777v.58a.96.96 0 0 1 .936-.619 1.6 1.6 0 0 1 .277.027v.803s-.166-.065-.369-.065c-.545 0-.844.515-.844 1.001v1.754h-.554l.001-.001zm6.484 0c-.029.001-.059-.005-.086-.015s-.052-.027-.073-.048a.22.22 0 0 1-.048-.073c-.011-.027-.016-.057-.015-.086v-3.256h.777v3.48h-.554v-.001zm2.834-3.559c-.825 0-1.674.662-1.674 1.819 0 1.059.746 1.806 1.674 1.806.766 0 1.108-.514 1.108-.514v.223c0 .106.1.224.223.224H24v-5.218h-.777v2.181s-.344-.521-1.108-.521v-.001zm.138.712c.679 0 1.036.597 1.036 1.108 0 .567-.423 1.106-1.034 1.106-.511 0-1.023-.414-1.023-1.114 0-.632.44-1.099 1.021-1.099zm-2.813-1.383c.136 0 .267-.054.364-.151s.151-.227.151-.364-.054-.267-.151-.364-.227-.151-.364-.151-.267.054-.364.151-.151.227-.151.364.054.267.151.364.227.151.364.151zm-2.825.67c-.865 0-1.814.645-1.814 1.814 0 1.064.809 1.812 1.812 1.812 1.236 0 1.84-.994 1.84-1.806.002-.241-.044-.48-.136-.703s-.227-.425-.399-.595-.375-.303-.598-.393-.463-.134-.704-.13zm.003.726c.597 0 1.043.481 1.043 1.089 0 .619-.474 1.096-1.041 1.096-.528 0-1.041-.429-1.041-1.085 0-.667.488-1.099 1.039-1.099z" fill="#d7dde1"/><path d="M17.858 5.852l1.988-3.447c.053-.093.068-.202.041-.306s-.094-.191-.187-.245a.4.4 0 0 0-.305-.041.4.4 0 0 0-.243.188l-2.015 3.491a12.29 12.29 0 0 0-5.13-1.095 12.29 12.29 0 0 0-5.13 1.095L4.86 2.001a.4.4 0 0 0-.245-.188.4.4 0 0 0-.306.041.4.4 0 0 0-.188.245.4.4 0 0 0 .041.306l1.989 3.447C2.723 7.712.398 11.184.014 15.249h23.984c-.384-4.065-2.707-7.538-6.14-9.397zM6.5 11.88c-.136.006-.271-.016-.398-.064s-.243-.121-.341-.215-.176-.207-.229-.332-.081-.259-.081-.395.027-.27.081-.395.131-.238.229-.332.214-.167.341-.215.262-.07.398-.064c.261.008.51.117.692.305s.284.439.284.701-.102.513-.284.701-.43.297-.692.305v-.001zm11.01 0c-.136.006-.271-.016-.398-.064s-.243-.121-.341-.215-.176-.207-.229-.332-.081-.259-.081-.395a1.01 1.01 0 0 1 .31-.726c.098-.094.214-.167.341-.215s.262-.069.398-.064c.261.008.509.117.692.305s.284.439.284.701-.102.513-.284.701-.43.297-.692.305l-.001-.001z" fill="#32de84"/></svg>