<svg xmlns="http://www.w3.org/2000/svg" width="56" height="56" fill="none" xmlns:v="https://vecta.io/nano"><path fill="#c4c4c4" fill-opacity=".01" d="M0 0h56v56H0z"/><g stroke="#1b5bf7" stroke-width="3.5" stroke-linecap="round" stroke-linejoin="round"><path d="M9.333 23.333v14m37.334-14v14M16.333 21h23.333v18.667c0 .619-.246 1.212-.683 1.65a2.33 2.33 0 0 1-1.65.683H18.666c-.619 0-1.212-.246-1.65-.683a2.33 2.33 0 0 1-.683-1.65V21zm0 0A11.67 11.67 0 0 1 28 9.333a11.67 11.67 0 0 1 8.25 3.417c2.188 2.188 3.417 5.155 3.417 8.25"/><path d="M18.667 7L21 11.667M37.333 7L35 11.667M21 42v7m14-7v7"/></g></svg>