<svg xmlns="http://www.w3.org/2000/svg" width="24" height="24" fill="none" xmlns:v="https://vecta.io/nano"><g clip-path="url(#A)"><path d="M18.908 2.371C16.022-.11 9.637-1.339 4.852 2.223.363 5.221.141 10.699.141 10.699c.764 2.998 3.798 5.872 9.644 4.472-.69-4.03.663-14.224 9.124-12.799h0z" fill="#00acd2"/><path d="M15.902 12.115c-3.158 2.61-12.77 6.594-15.762-1.417-.714 3.73 1.269 9.938 6.759 12.284 4.85 2.374 9.906-.376 9.906-.376 2.224-2.158 3.238-6.15-.903-10.492z" fill="#c8e9eb"/><path d="M10.198 8.454c3.848 1.419 12.076 7.568 6.606 14.153 3.601-1.249 7.823-6.026 7.118-11.935-.361-5.371-5.014-8.302-5.014-8.302-2.989-.839-7.005.341-8.71 6.083z" fill="#662d91"/></g><defs><clipPath id="A"><path fill="#fff" d="M0 0h24v24H0z"/></clipPath></defs></svg>