<svg xmlns="http://www.w3.org/2000/svg" width="56" height="56" fill="none" stroke="#1b5bf7" stroke-width="3.5" stroke-linejoin="round" xmlns:v="https://vecta.io/nano"><path d="M14 18.667A4.67 4.67 0 0 0 18.666 14 4.67 4.67 0 0 0 14 9.334 4.67 4.67 0 0 0 9.333 14 4.67 4.67 0 0 0 14 18.667zm28 28A4.67 4.67 0 0 0 46.666 42 4.67 4.67 0 0 0 42 37.334 4.67 4.67 0 0 0 37.333 42 4.67 4.67 0 0 0 42 46.667z"/><g stroke-linecap="round"><path d="M25.667 14h11.667c1.238 0 2.425.492 3.3 1.367S42 17.429 42 18.667v18.667"/><path d="M32.667 21l-7-7 7-7m-2.334 35H18.667c-1.238 0-2.425-.492-3.3-1.367S14 38.571 14 37.333V18.667"/><path d="M23.333 35l7 7-7 7"/></g></svg>