<svg xmlns="http://www.w3.org/2000/svg" width="57" height="56" fill="none" stroke="#1b5bf7" stroke-width="3.5" stroke-linejoin="round" xmlns:v="https://vecta.io/nano"><path d="M42.623 9.333H14.833c-3.837 0-6.947 3.134-6.947 7v23.333c0 3.866 3.11 7 6.947 7h27.789c3.837 0 6.947-3.134 6.947-7V16.333c0-3.866-3.111-7-6.947-7z"/><path d="M21.781 28c2.558 0 4.632-2.089 4.632-4.667s-2.074-4.667-4.632-4.667-4.632 2.089-4.632 4.667S19.223 28 21.781 28z"/><path d="M35.676 18.667h4.632M35.676 28h4.632m-23.159 9.333h23.158" stroke-linecap="round"/></svg>