<svg xmlns="http://www.w3.org/2000/svg" width="56" height="56" fill="none" stroke="#1b5bf7" stroke-width="3.5" stroke-linecap="round" stroke-linejoin="round" xmlns:v="https://vecta.io/nano"><path d="M28 28v.023"/><path d="M44.499 11.501c-1.75-1.75-5.167-1.691-9.499.166s-9.224 5.358-13.6 9.734-7.877 9.268-9.734 13.6-1.916 7.749-.166 9.499 5.167 1.691 9.499-.166 9.224-5.358 13.6-9.734c2.167-2.167 4.142-4.483 5.812-6.816s3.003-4.638 3.922-6.783 1.407-4.088 1.435-5.718-.403-2.915-1.27-3.781"/><path d="M11.501 11.501c-1.75 1.75-1.691 5.167.166 9.499s5.358 9.224 9.734 13.6 9.268 7.877 13.6 9.734 7.749 1.916 9.499.166 1.691-5.167-.166-9.499-5.358-9.224-9.734-13.6c-2.167-2.167-4.483-4.142-6.816-5.812S23.145 12.586 21 11.667s-4.088-1.407-5.718-1.435-2.915.403-3.782 1.27"/></svg>