<svg xmlns="http://www.w3.org/2000/svg" width="24" height="24" fill="none" xmlns:v="https://vecta.io/nano"><path d="M7.002 15.114l-2.196.948 2.034.876 2.358-.876-2.196-.948zm-3.3 1.188l-.078 4.272 3.216 1.428v-4.44l-3.144-1.26h.006zm6.6 0l-2.904 1.11V21.6l2.91-1.188v-4.11h-.006zM13.788 3l-2.22.948 2.052.876 2.358-.876L13.776 3h.012zM10.71 4.26v4.278l2.748.798.09-3.888L10.71 4.26zm6.144.24l-2.598 1.116v4.2l2.598-1.188V4.5zM3.378 9.018l-2.196.942 2.034.876 2.358-.876-2.196-.948v.006zM.078 10.2L0 14.478l3.216 1.428v-4.44l-3.144-1.26.006-.006zm6.606 0L3.78 11.316v4.188l2.904-1.188v-4.11-.006zm3.78-1.35l-2.202.954 2.04.876 2.358-.876-2.196-.954zm-3.306 1.194l-.078 4.272 3.222 1.428v-4.44l-3.144-1.26zm6.612 0l-2.91 1.116v4.188l2.91-1.188v-4.116zM20.694 3l-2.196.948 2.034.876 2.364-.876L20.688 3h.006zm-3.3 1.188l-.078 4.272 3.216 1.428v-4.44l-3.144-1.26h.006zm6.606 0l-2.904 1.116v4.182L24 8.298v-4.11z" fill="#f7a80d"/></svg>