<svg xmlns="http://www.w3.org/2000/svg" width="24" height="24" fill="none" xmlns:v="https://vecta.io/nano"><g clip-path="url(#A)" fill="#8d8d8d"><path d="M10.933 23.995a10.64 10.64 0 0 1-3.909-.619c-3.435-1.207-5.14-3.794-5.631-7.267A18.66 18.66 0 0 1 2.962 5.495c.384-.832.907-1.578 1.487-2.294 1.182-1.458 2.834-1.814 4.56-2.009l2.377-.223c.548-.055 1.128.132 1.505-.591.191-.365.849-.504 1.295-.249 1.558.882 3.263 1.474 4.706 2.597 3.869 3.011 5.339 6.939 4.535 11.709-.775 4.608-3.733 7.331-7.983 8.829-1.451.514-2.962.766-4.512.73h.001zM2.68 13.111c.016 1.03.074 2.06.274 3.077.391 1.999 1.213 3.826 3.054 4.797 2.18 1.15 4.587 1.557 7.075 1.332 1.966-.177 3.736-.818 5.196-2.166 2.194-2.027 3.362-4.58 3.692-7.524.434-3.857-1.212-7.109-4.47-8.886-.25-.136-.514-.426-.803-.275-.806.424-1.406-.05-2.059-.373-.498-.248-.995-.534-1.528-.677-2.077-.564-4.004.074-5.922.798-1.493.563-2.502 1.706-3.111 3.042a15.44 15.44 0 0 0-1.399 6.855h.001zm9.72 4.865c-2.258-.068-4.254-.743-5.761-2.526-.493-.582-.709-1.278-.772-2.028-.018-.2-.113-.477.153-.52.147-.023.329.173.42.388.332.792.787 1.422 1.594 1.89 1.432.832 2.914 1.26 4.558 1.231a6.27 6.27 0 0 0 4.594-2.014c.2-.209.384-.534.716-.308s.078.532-.02.782c-.572 1.452-1.698 2.291-3.146 2.73-.757.231-1.527.427-2.337.376zm4.364-7.99c-.12.508-.231 1.086-.936 1.073-.732-.012-.871-.569-.889-1.163-.021-.672.411-.984.989-.966s.907.4.836 1.057zm-7.39-.04c-.186.319-.063.957-.782.948-.695-.009-1.075-.36-1.1-1.065-.021-.6.203-1.122.858-1.036.512.067.992.415 1.025 1.154v-.001z"/></g><defs><clipPath id="A"><path fill="#fff" d="M0 0h24v24H0z"/></clipPath></defs></svg>