<svg xmlns="http://www.w3.org/2000/svg" width="35" height="35" fill="none" xmlns:v="https://vecta.io/nano"><g fill-rule="evenodd" fill="#1b5bf7"><path d="M2.917 7.292c0 3.222 2.612 5.833 5.833 5.833s5.833-2.612 5.833-5.833-2.612-5.833-5.833-5.833S2.917 4.07 2.917 7.292zm8.75 0c0 1.611-1.306 2.917-2.917 2.917S5.834 8.902 5.834 7.292 7.14 4.375 8.751 4.375s2.917 1.306 2.917 2.917z"/><path opacity=".3" d="M21.875 14.583V17.5h-8.75c-1.062 0-2.059-.284-2.917-.78v8.072c0 1.611 1.306 2.917 2.917 2.917h8.75v2.917h-8.75c-3.222 0-5.833-2.612-5.833-5.833V10.938h0v-.729h2.917v1.458c0 1.611 1.306 2.917 2.917 2.917h8.75z"/><use href="#B"/><use href="#B" y="-13.125"/></g><defs ><path id="B" d="M20.417 29.167c0 3.222 2.612 5.833 5.833 5.833s5.833-2.612 5.833-5.833-2.612-5.833-5.833-5.833-5.833 2.612-5.833 5.833zm8.75 0c0 1.611-1.306 2.917-2.917 2.917s-2.917-1.306-2.917-2.917 1.306-2.917 2.917-2.917 2.917 1.306 2.917 2.917z"/></defs></svg>