<svg xmlns="http://www.w3.org/2000/svg" width="81" height="80" fill="none" xmlns:v="https://vecta.io/nano"><rect x=".5" width="80" height="80" rx="40" fill="#f4f7ff"/><g fill="#1b5bf7"><path d="M28.833 51.667h25c.92 0 1.667.746 1.667 1.667S54.754 55 53.833 55H27.167c-.92 0-1.667-.746-1.667-1.667V26.667c0-.92.746-1.667 1.667-1.667s1.667.746 1.667 1.667v25z"/><path opacity=".3" d="M35.05 44.473c-.63.672-1.684.706-2.356.076s-.706-1.684-.076-2.356l6.25-6.667c.609-.649 1.621-.706 2.298-.128l4.933 4.209 6.427-8.141c.57-.723 1.618-.846 2.341-.275s.846 1.618.275 2.341l-7.5 9.5c-.586.742-1.671.849-2.39.235l-5.04-4.301-5.162 5.506z"/></g></svg>