<svg xmlns="http://www.w3.org/2000/svg" width="56" height="56" fill="none" xmlns:v="https://vecta.io/nano"><path d="M16.334 42c-2.911 0-5.703-1.106-7.762-3.075s-3.215-4.64-3.215-7.425 1.157-5.456 3.215-7.425S13.422 21 16.334 21c.688-3.063 2.699-5.755 5.592-7.484 1.432-.856 3.038-1.449 4.725-1.747a14.52 14.52 0 0 1 5.108.014c1.685.307 3.287.909 4.714 1.772s2.651 1.971 3.601 3.261 1.61 2.734 1.941 4.253A10.63 10.63 0 0 1 42 25.667h2.333c2.166 0 4.243.86 5.775 2.392s2.392 3.609 2.392 5.775-.86 4.243-2.392 5.775S46.5 42 44.334 42h-28z" stroke="#1b5bf7" stroke-width="3.5" stroke-linejoin="round"/></svg>