<svg xmlns="http://www.w3.org/2000/svg" width="56" height="56" fill="none" xmlns:v="https://vecta.io/nano"><g stroke="#1b5bf7" stroke-width="3.5" stroke-linejoin="round"><path d="M28 49a21 21 0 0 1-14.849-6.151A21 21 0 0 1 7 28a21 21 0 0 1 6.151-14.849A21 21 0 0 1 28 7c5.569 0 10.911 1.967 14.849 5.467S49 20.716 49 25.667c0 2.475-1.106 4.849-3.075 6.6S41.285 35 38.5 35h-5.833c-1.041-.017-2.058.315-2.888.943s-1.428 1.515-1.696 2.521-.192 2.073.215 3.031 1.124 1.752 2.036 2.256c.466.43.785.995.914 1.616s.059 1.266-.199 1.846-.69 1.063-1.237 1.384-1.18.462-1.811.405z"/><g fill="#1b5bf7"><use href="#B"/><use href="#B" x="10.5" y="-7"/><use href="#B" x="21"/></g></g><defs ><path id="B" d="M17.5 25.667c.644 0 1.167-.522 1.167-1.167s-.522-1.167-1.167-1.167-1.167.522-1.167 1.167.522 1.167 1.167 1.167z"/></defs></svg>