<svg xmlns="http://www.w3.org/2000/svg" width="59" height="56" fill="none" xmlns:v="https://vecta.io/nano"><path fill="#c4c4c4" fill-opacity=".01" d="M0 0h59v56H0z"/><path opacity=".3" fill-rule="evenodd" d="M43.061 7.727H23.418v32.622h19.644V7.727zM23.418 5c-1.61 0-2.915 1.221-2.915 2.727v32.622c0 1.506 1.305 2.727 2.915 2.727h19.644c1.61 0 2.915-1.221 2.915-2.727V7.727C45.976 6.221 44.671 5 43.061 5H23.418z" fill="#1b5bf7"/><path d="M6.32 17.378c0-3.012 2.61-5.454 5.83-5.454h14.238c3.22 0 5.83 2.442 5.83 5.454v27.168c0 3.012-2.61 5.454-5.83 5.454H12.15c-3.22 0-5.83-2.442-5.83-5.454V17.378z" fill="#fff" fill-opacity=".01"/><g fill-rule="evenodd" fill="#1b5bf7"><path d="M26.388 14.651H12.15c-1.61 0-2.915 1.221-2.915 2.727v27.168c0 1.506 1.305 2.727 2.915 2.727h14.238c1.61 0 2.915-1.221 2.915-2.727V17.378c0-1.506-1.305-2.727-2.915-2.727zM12.15 11.924c-3.22 0-5.83 2.442-5.83 5.454v27.168C6.32 47.558 8.93 50 12.15 50h14.238c3.22 0 5.83-2.442 5.83-5.454V17.378c0-3.012-2.61-5.454-5.83-5.454H12.15zm12.052 33.461h-9.249v-2.727h9.249v2.727z"/><path d="M26.54 27.134c-1.27 1.754-3.039 4.195-6.541 4.195v-2.727c1.841 0 2.797-1.164 4.241-3.153l.111-.153c1.27-1.753 3.039-4.194 6.541-4.194s5.271 2.441 6.541 4.194l.111.153c1.445 1.989 2.4 3.153 4.241 3.153s2.797-1.164 4.241-3.153l.111-.153c1.27-1.753 3.039-4.194 6.541-4.194v2.727c-1.841 0-2.797 1.163-4.241 3.153l-.111.153c-1.27 1.754-3.039 4.195-6.541 4.195s-5.271-2.441-6.541-4.195l-.111-.153c-1.445-1.989-2.4-3.153-4.241-3.153s-2.797 1.163-4.241 3.153l-.111.153z"/></g></svg>