<svg xmlns="http://www.w3.org/2000/svg" width="163" height="98" fill="none" xmlns:v="https://vecta.io/nano"><path d="M146.857 0H16C7.163 0 0 7.163 0 16v65.714c0 8.837 7.163 16 16 16h130.857c8.837 0 16-7.163 16-16V16c0-8.837-7.163-16-16-16z" fill="#64177c"/><path d="M74.242 39.454h.088c.012.013.037.025.087.025.351.101.64.214.853.366a2.29 2.29 0 0 1 .514.441 1.36 1.36 0 0 1 .251.479l.113.441a.79.79 0 0 0 .238.479c.138.126.288.176.476.176h1.655a.72.72 0 0 0 .552-.239.77.77 0 0 0 .188-.555c-.075-1.361-.639-2.483-1.693-3.353-.777-.656-1.78-1.072-3.021-1.273-.226-.038-.427.013-.59.151-.188.151-.275.353-.275.58v1.55c0 .189.05.34.163.479a.69.69 0 0 0 .401.252zm3.535 4.803c-.488-.328-1.078-.605-1.73-.832l-.664-.214-.778-.214-.125-.038c-.075-.013-.163-.038-.276-.063l-.915-.227-.89-.227-.289-.076-.288-.076-.464-.164-.426-.164c-.376-.151-.665-.328-.865-.529a.75.75 0 0 1-.176-.239l-.025-.126a2.56 2.56 0 0 1 .1-.656c0-.013.013-.025.013-.05a1.43 1.43 0 0 1 .326-.429c.188-.151.476-.315.89-.466a1.38 1.38 0 0 1 .238-.063l.301-.038c.188-.025.326-.113.439-.252a.76.76 0 0 0 .176-.492v-1.525a.75.75 0 0 0-.239-.555.73.73 0 0 0-.589-.189c-1.329.164-2.357.567-3.097 1.185a4.2 4.2 0 0 0-1.605 3.429c0 1.021.314 1.84.928 2.471.539.542 1.216.983 2.056 1.336l.778.29.84.24.439.113.401.101.99.239.953.252.063.025.125.038c.038.013.088.025.151.038.652.202 1.178.441 1.592.718.251.164.376.416.376.719a3.13 3.13 0 0 1-.037.429 1.04 1.04 0 0 1-.239.504c-.138.164-.363.328-.652.479-.301.151-.714.252-1.266.302a.79.79 0 0 0-.464.239.72.72 0 0 0-.188.504v1.525c0 .227.088.416.251.555.125.126.288.189.489.189h.088a9.92 9.92 0 0 0 1.855-.378c.552-.189 1.053-.429 1.467-.744 1.216-.845 1.818-2.08 1.818-3.681a3.71 3.71 0 0 0-.476-1.853c-.314-.517-.778-.983-1.38-1.361zm-6.018 4.954a6.38 6.38 0 0 1-.627-.177 3.5 3.5 0 0 1-.539-.239 1.96 1.96 0 0 1-1.04-1.639.71.71 0 0 0-.239-.504c-.138-.139-.313-.202-.514-.202h-1.667c-.226 0-.414.088-.552.252-.15.151-.213.353-.188.58.138 1.576.765 2.799 1.868 3.681.84.668 1.919 1.097 3.222 1.298h.038.226c.025 0 .062 0 .088-.013.338-.139.514-.378.514-.731v-1.576a.73.73 0 0 0-.163-.466.58.58 0 0 0-.427-.265zm20.989-11.396c-1.028-.958-2.382-1.45-4.063-1.45h-6.381a.69.69 0 0 0-.514.227c-.151.151-.226.328-.226.529v1.538c0 .202.075.378.226.529s.326.227.514.227h6.269c.915 0 1.592.202 2.031.618.414.391.614.958.614 1.689 0 .756-.2 1.324-.614 1.689-.414.403-1.091.618-2.031.618h-6.269a.67.67 0 0 0-.514.227c-.138.151-.226.328-.226.517v6.593a.68.68 0 0 0 .226.517.69.69 0 0 0 .514.227h1.592a.69.69 0 0 0 .514-.227c.15-.151.226-.328.226-.517v-4.122c0-.113.087-.214.213-.214h3.836c1.706 0 3.06-.479 4.063-1.425 1.028-.983 1.542-2.269 1.542-3.895s-.514-2.912-1.542-3.895zm11.083-.983a.67.67 0 0 0-.677-.466h-2.031a.79.79 0 0 0-.414.113c-.125.076-.213.189-.263.353l-4.15 9.782a.74.74 0 0 0 .063.706.72.72 0 0 0 .639.34h1.78a.79.79 0 0 0 .414-.113.62.62 0 0 0 .264-.328l2.495-5.988c.075-.176.313-.176.388 0l2.646 6.353.514 1.248c.062.139-.038.29-.188.29h-9.554c-.151 0-.289.038-.414.126a.7.7 0 0 0-.263.34l-.652 1.538a.66.66 0 0 0 .063.693.68.68 0 0 0 .614.34h14.105a.71.71 0 0 0 .614-.34c.138-.239.163-.479.063-.706l-6.056-14.283zm12.989-.202c-.2-.151-.413-.202-.639-.151a6.91 6.91 0 0 0-3.837 2.194c-1.341 1.513-2.006 3.404-2.006 5.673s.665 4.16 2.006 5.673a6.99 6.99 0 0 0 3.837 2.206h.151c.2 0 .363-.05.488-.164.189-.139.276-.328.276-.58v-1.677c0-.151-.05-.303-.163-.441a.68.68 0 0 0-.388-.265c-.778-.227-1.417-.618-1.919-1.185-.815-.908-1.216-2.093-1.216-3.567 0-1.462.401-2.647 1.216-3.568a4.49 4.49 0 0 1 1.442-1.046c.113-.05.276-.101.464-.151a.79.79 0 0 0 .389-.29c.1-.139.163-.277.163-.441v-1.664c.012-.227-.088-.416-.264-.555zm5.668 1.034c-.941-.668-2.032-1.097-3.235-1.298-.226-.025-.426.038-.589.189-.176.126-.251.315-.251.555v1.551c0 .202.05.366.175.504a.67.67 0 0 0 .464.239c.539.088 1.053.29 1.542.593.64.441 1.104 1.034 1.417 1.765.138.303.376.441.702.441h1.693c.251 0 .464-.101.614-.315.138-.214.176-.441.088-.681-.527-1.462-1.392-2.647-2.62-3.542zm1.905 8.799h-1.692c-.326 0-.552.151-.702.441-.314.731-.778 1.324-1.417 1.765-.451.315-.978.504-1.567.593-.188.025-.326.114-.439.239a.77.77 0 0 0-.176.504v1.55c0 .239.088.429.251.555.125.126.288.189.489.189h.1c1.216-.202 2.295-.63 3.235-1.298 1.229-.895 2.094-2.08 2.608-3.555.088-.239.05-.466-.088-.681a.73.73 0 0 0-.602-.303zm3.348-.681h9.679c.038 0 .075-.013.113-.025.326-.189.489-.429.489-.718V43.45c0-.29-.163-.529-.489-.719-.038-.013-.075-.025-.113-.025h-9.679c-.201 0-.376.076-.514.227s-.226.328-.226.517v1.588a.68.68 0 0 0 .226.517c.15.139.313.227.514.227zm10.983-9.19a.68.68 0 0 0-.526-.227h-10.457a.67.67 0 0 0-.514.227.7.7 0 0 0-.226.517v1.715c0 .038.013.076.025.113.188.315.427.479.715.479h10.457a.68.68 0 0 0 .526-.227c.138-.151.213-.328.213-.542v-1.538c0-.202-.062-.366-.213-.517zm-.526 12.518h-10.457c-.288 0-.527.164-.715.479-.012.038-.025.076-.025.113v1.714a.7.7 0 0 0 .226.517c.15.151.326.227.514.227h10.457a.68.68 0 0 0 .526-.227c.138-.151.213-.315.213-.517v-1.538c0-.214-.075-.391-.213-.542a.64.64 0 0 0-.526-.227zm-67.44 11.233a1.85 1.85 0 0 1-1.367.605c-1.179 0-2.094-.908-2.094-2.206 0-1.311.915-2.206 2.094-2.206a1.85 1.85 0 0 1 1.367.605c.062.076.175.088.263.025.113-.076.125-.227.038-.328a2.23 2.23 0 0 0-1.655-.693c-1.417 0-2.546 1.059-2.546 2.597s1.116 2.597 2.546 2.597c.802 0 1.379-.353 1.83-.895l-.2-.126c-.101-.05-.214-.05-.276.025zm8.889-3.731c-2.42-1.235-4.188.139-4.188 2.13 0 1.475.966 2.597 2.433 2.597 2.106 0 3.184-2.332 1.843-4.652-.013-.025-.05-.063-.088-.076zm-1.755 4.337c-1.216 0-1.981-.946-1.981-2.206 0-1.286.765-2.206 1.981-2.206 1.203 0 1.981.933 1.981 2.206 0 1.261-.778 2.206-1.981 2.206zm12.513-4.727h-.051c-.087 0-.175.063-.2.151l-.966 3.555c-.05.202-.338.202-.401 0l-.978-3.555c-.025-.088-.1-.151-.2-.151h-.076c-.087 0-.175.063-.2.151l-.991 3.555c-.062.202-.338.202-.401 0l-.965-3.555c-.025-.088-.101-.151-.201-.151h-.05c-.138 0-.238.139-.201.265l1.317 4.614c.025.088.113.151.2.151h.163c.088 0 .176-.063.201-.151l.965-3.454c.051-.202.339-.202.402 0l.965 3.454c.025.088.1.151.201.151h.163c.087 0 .175-.063.2-.151l1.304-4.614c.038-.139-.063-.265-.2-.265zm8.601.391c-2.42-1.235-4.188.139-4.188 2.13 0 1.475.965 2.597 2.432 2.597 2.107 0 3.185-2.332 1.843-4.652-.025-.025-.05-.063-.087-.076zM97.25 60.95c-1.216 0-1.981-.946-1.981-2.206 0-1.286.765-2.206 1.981-2.206 1.204 0 1.981.933 1.981 2.206 0 1.261-.777 2.206-1.981 2.206zm9.354-1.853c.601-.139 1.078-.63 1.078-1.412 0-.92-.665-1.475-1.53-1.475h-1.655c-.113 0-.213.088-.213.214v4.614c0 .113.088.214.213.214h.013c.113 0 .213-.088.213-.214v-1.664c0-.113.088-.214.213-.214h.79c.063 0 .138.038.175.088l1.279 1.903c.038.063.101.088.176.088h.414l-1.254-1.828c-.113-.101-.05-.277.088-.315zm-1.681-.315c-.112 0-.213-.088-.213-.214v-1.752c0-.114.088-.214.213-.214h1.204c.665 0 1.116.441 1.116 1.084s-.451 1.084-1.116 1.084h-1.204v.013zm8.764-.303l2.007-2.256h-.452c-.063 0-.113.025-.15.076l-1.994 2.269a.21.21 0 0 1-.363-.139v-1.992c0-.114-.088-.214-.214-.214h-.012c-.113 0-.213.088-.213.214v4.614c0 .114.088.214.213.214h.012c.113 0 .214-.088.214-.214v-1.475c0-.05.025-.101.05-.139l.351-.378c.088-.088.225-.088.313 0l1.856 2.118c.037.05.1.076.15.076h.452l-2.22-2.496c-.062-.076-.062-.189 0-.277zm6.796-2.256h-.013c-.112 0-.213.088-.213.214v4.614c0 .114.088.214.213.214h.013c.113 0 .213-.088.213-.214v-4.614c-.012-.126-.1-.214-.213-.214zm8.814 0h-.012c-.113 0-.214.088-.214.214v3.429c0 .202-.25.29-.376.126l-2.708-3.668c-.037-.05-.1-.088-.163-.088h-.125c-.113 0-.213.088-.213.214v4.614a.21.21 0 0 0 .213.214h.012c.113 0 .213-.088.213-.214v-3.479a.21.21 0 0 1 .377-.126l2.72 3.731c.038.05.101.088.163.088h.113c.113 0 .213-.088.213-.214V56.45c-.012-.139-.1-.227-.213-.227zm9.04 2.534h-2.119v.391h1.68c.113 0 .213.088.213.214v.908a.21.21 0 0 1-.062.151c-.289.265-.79.555-1.405.555-1.178 0-2.093-.92-2.093-2.219 0-1.311.915-2.206 2.093-2.206.577 0 1.091.227 1.455.58.075.063.175.076.263.013l.176-.126c-.464-.529-1.054-.857-1.881-.857-1.404 0-2.545 1.046-2.545 2.597s1.128 2.609 2.545 2.609a2.52 2.52 0 0 0 1.843-.782c.038-.038.063-.088.063-.151v-1.462c-.013-.126-.101-.214-.226-.214zM38.471 30.831a5.87 5.87 0 0 1 5.93 0l11.071 6.429c1.843 1.072 2.972 3.038 2.972 5.169v12.858a6 6 0 0 1-2.972 5.169l-11.071 6.429a5.87 5.87 0 0 1-5.93 0L27.4 60.455c-1.843-1.072-2.972-3.038-2.972-5.169V42.429c0-2.13 1.128-4.097 2.972-5.169l11.071-6.429zm11.096 20.611h-2.069a.87.87 0 0 0-.852.542c-.376.895-.953 1.614-1.73 2.143-.552.378-1.191.618-1.918.719a.86.86 0 0 0-.539.303c-.138.164-.213.366-.213.605v1.891c0 .29.1.517.313.668.151.151.351.227.589.227h.125c1.479-.239 2.796-.769 3.962-1.576 1.505-1.084 2.558-2.521 3.185-4.324.1-.29.063-.567-.1-.832-.201-.227-.451-.365-.752-.365zm-10.043-12.14a8.3 8.3 0 0 0-4.677 2.66c-1.643 1.84-2.457 4.147-2.457 6.908s.815 5.055 2.457 6.908c1.279 1.399 2.834 2.294 4.677 2.685h.176c.238 0 .439-.063.589-.202a.83.83 0 0 0 .338-.693v-2.042a.8.8 0 0 0-.201-.529c-.125-.164-.288-.277-.477-.328-.953-.277-1.73-.756-2.345-1.45-.991-1.109-1.479-2.546-1.479-4.349 0-1.778.489-3.227 1.479-4.349a5.49 5.49 0 0 1 1.768-1.273c.138-.063.326-.126.577-.176.188-.063.351-.189.477-.353a.87.87 0 0 0 .201-.529v-2.017c.013-.29-.1-.529-.326-.693-.238-.189-.502-.252-.777-.176zm3.022.063c-.213.151-.313.378-.313.668v1.891c0 .24.063.441.213.605a.74.74 0 0 0 .577.328c.652.101 1.279.34 1.893.718.777.53 1.354 1.248 1.73 2.143a.87.87 0 0 0 .852.542h2.069a.87.87 0 0 0 .752-.391.86.86 0 0 0 .1-.832c-.627-1.79-1.68-3.227-3.185-4.324-1.153-.807-2.47-1.336-3.962-1.576-.276-.038-.514.038-.727.227z" fill-rule="evenodd" fill="#fff"/></svg>