<svg xmlns="http://www.w3.org/2000/svg" width="24" height="24" fill="none" xmlns:v="https://vecta.io/nano"><g clip-path="url(#A)"><path d="M11.998 0C5.366 0 0 5.367 0 12a11.99 11.99 0 0 0 3.512 8.488c1.115 1.114 2.438 1.998 3.894 2.601A11.99 11.99 0 0 0 12 24c6.633 0 12-5.367 12-12S18.588 0 11.998 0zM6.37 14.575c.392.523.916.742 1.657.742.35 0 .699-.044 1.004-.175s.655-.306 1.09-.567l1.223 1.745c-1.003.83-2.138 1.222-3.447 1.222-1.048 0-1.92-.218-2.705-.654-.762-.45-1.371-1.119-1.746-1.92-.392-.83-.611-1.79-.611-2.925 0-1.09.219-2.094.61-2.923.373-.826.981-1.524 1.748-2.007.741-.48 1.657-.698 2.661-.698.699 0 1.353.087 1.877.305a5.64 5.64 0 0 1 1.614.96l-1.222 1.658c-.31-.229-.647-.42-1.003-.568-.305-.13-.698-.174-1.048-.174-1.483 0-2.225 1.134-2.225 3.446-.043 1.18.175 2.008.524 2.532H6.37v.001zm12 2.705c-.436 1.353-1.091 2.357-2.008 3.098s-2.138 1.135-3.665 1.266l-.305-2.05c1.003-.132 1.745-.35 2.225-.7.174-.13.524-.523.524-.523L11.519 6.764h3.01l2.095 8.683 2.226-8.683h2.923L18.37 17.28z" fill="#1b5bf7"/></g><defs><clipPath id="A"><path fill="#fff" d="M0 0h24v24H0z"/></clipPath></defs></svg>