<svg xmlns="http://www.w3.org/2000/svg" width="163" height="98" fill="none" xmlns:v="https://vecta.io/nano"><path d="M146.857 0H16C7.163 0 0 7.163 0 16v65.714c0 8.837 7.163 16 16 16h130.857c8.837 0 16-7.163 16-16V16c0-8.837-7.163-16-16-16z" fill="#ff6d00"/><path d="M28.363 41.457v14.266h4.704c2.407 0 4.085-1.063 5.035-3.188.519-1.167.778-2.556.778-4.167 0-2.224-.389-3.932-1.168-5.124s-2.327-1.787-4.646-1.787h-4.704zm5.565-3.796c1.513.02 2.771.178 3.776.475 1.711.504 3.097 1.429 4.157 2.773.85 1.087 1.43 2.264 1.739 3.529s.464 2.472.464 3.618c0 2.907-.651 5.368-1.954 7.385-1.767 2.719-4.494 4.078-8.182 4.078H23.411V37.661h10.517zm20.154 8.75c-1.093 0-1.94.306-2.542.919s-.98 1.443-1.134 2.491h7.337c-.077-1.117-.456-1.965-1.135-2.543s-1.521-.867-2.526-.867zm0-3.485c1.502 0 2.854.252 4.058.756s2.197 1.3 2.981 2.388c.707.959 1.165 2.071 1.375 3.337.121.742.171 1.809.149 3.203H50.289c.066 1.621.635 2.758 1.706 3.411.651.405 1.435.608 2.352.608.972 0 1.761-.247 2.368-.741.331-.267.624-.638.878-1.112h4.819c-.121.959-.679 1.933-1.673 2.922-1.545 1.572-3.709 2.358-6.492 2.358-2.297 0-4.323-.662-6.078-1.987s-2.633-3.48-2.633-6.466c0-2.798.792-4.943 2.377-6.436s3.641-2.239 6.169-2.239zM70.078 59.52h-4.72V37.661h4.72V59.52zM81.239 46.41c-1.094 0-1.941.306-2.543.919s-.98 1.443-1.134 2.491h7.337c-.078-1.117-.456-1.965-1.135-2.543s-1.521-.867-2.525-.867zm0-3.485c1.501 0 2.854.252 4.057.756s2.197 1.3 2.981 2.388c.707.959 1.165 2.071 1.375 3.337.121.742.171 1.809.149 3.203H77.446c.066 1.621.635 2.758 1.706 3.411.651.405 1.435.608 2.352.608.971 0 1.761-.247 2.368-.741.331-.267.624-.638.878-1.112h4.819c-.121.959-.679 1.933-1.673 2.922-1.545 1.572-3.709 2.358-6.492 2.358-2.296 0-4.322-.662-6.078-1.987s-2.633-3.48-2.633-6.466c0-2.798.792-4.943 2.376-6.436s3.641-2.239 6.17-2.239zm22.306.43h5.068l-6.509 16.164h-4.985l-6.476-16.164h5.3l3.76 11.923 3.842-11.923zm14.291 3.055c-1.093 0-1.941.306-2.542.919s-.98 1.443-1.135 2.491h7.337c-.077-1.117-.455-1.965-1.134-2.543s-1.521-.867-2.526-.867zm0-3.485c1.501 0 2.854.252 4.057.756a6.91 6.91 0 0 1 2.982 2.388c.706.959 1.164 2.071 1.374 3.337.122.742.171 1.809.149 3.203h-12.355c.066 1.621.635 2.758 1.706 3.411.651.405 1.435.608 2.352.608.971 0 1.761-.247 2.368-.741.331-.267.624-.638.878-1.112h4.819c-.121.959-.679 1.933-1.672 2.922-1.546 1.572-3.71 2.358-6.493 2.358-2.296 0-4.322-.662-6.078-1.987s-2.633-3.48-2.633-6.466c0-2.798.792-4.943 2.377-6.436s3.64-2.239 6.169-2.239zm20.981.045l.224.007.406.022v4.33l-.795-.059-.563-.015c-1.899 0-3.175.554-3.826 1.661-.364.623-.547 1.582-.547 2.877v7.726h-4.753V43.355h4.505v2.818c.729-1.078 1.364-1.814 1.905-2.21.883-.662 2.031-.994 3.444-.994z" fill="#fff"/></svg>