<svg xmlns="http://www.w3.org/2000/svg" width="252" height="49" fill="none" xmlns:v="https://vecta.io/nano"><path d="M18.44 2.88c4.736 0 8.875.96 12.416 2.88 3.584 1.877 6.336 4.523 8.256 7.936s2.88 7.317 2.88 11.712c0 4.352-.981 8.235-2.944 11.648-1.92 3.413-4.672 6.101-8.256 8.064C27.251 47.04 23.133 48 18.44 48H.584V2.88H18.44zm-.96 34.048c3.669 0 6.549-1.003 8.64-3.008s3.136-4.843 3.136-8.512c0-3.712-1.045-6.571-3.136-8.576-2.091-2.048-4.971-3.072-8.64-3.072h-4.352v23.168h4.352zm64.471-7.296a22.74 22.74 0 0 1-.192 2.944H58.015c.128 1.963.661 3.435 1.6 4.416.981.939 2.219 1.408 3.712 1.408 2.091 0 3.584-.939 4.48-2.816h13.376c-.555 2.475-1.643 4.693-3.264 6.656-1.579 1.92-3.584 3.435-6.016 4.544s-5.12 1.664-8.064 1.664c-3.541 0-6.699-.747-9.472-2.24-2.731-1.493-4.885-3.627-6.464-6.4-1.536-2.773-2.304-6.037-2.304-9.792s.768-6.997 2.304-9.728c1.536-2.773 3.669-4.907 6.4-6.4 2.773-1.493 5.952-2.24 9.536-2.24 3.541 0 6.677.725 9.408 2.176s4.864 3.541 6.4 6.272c1.536 2.688 2.304 5.867 2.304 9.536zm-12.8-3.136c0-1.536-.512-2.731-1.536-3.584-1.024-.896-2.304-1.344-3.84-1.344s-2.795.427-3.776 1.28c-.981.811-1.621 2.027-1.92 3.648h11.072zM99.628.64V48H87.084V.64h12.544zm41.448 28.992a22.74 22.74 0 0 1-.192 2.944H117.14c.128 1.963.661 3.435 1.6 4.416.981.939 2.218 1.408 3.712 1.408 2.09 0 3.584-.939 4.48-2.816h13.376a15.71 15.71 0 0 1-3.264 6.656c-1.579 1.92-3.584 3.435-6.016 4.544s-5.12 1.664-8.064 1.664c-3.542 0-6.699-.747-9.472-2.24-2.731-1.493-4.886-3.627-6.464-6.4-1.536-2.773-2.304-6.037-2.304-9.792s.768-6.997 2.304-9.728c1.536-2.773 3.669-4.907 6.4-6.4 2.773-1.493 5.952-2.24 9.536-2.24 3.541 0 6.677.725 9.408 2.176s4.864 3.541 6.4 6.272c1.536 2.688 2.304 5.867 2.304 9.536zm-12.8-3.136c0-1.536-.512-2.731-1.536-3.584-1.024-.896-2.304-1.344-3.84-1.344s-2.795.427-3.776 1.28c-.982.811-1.622 2.027-1.92 3.648h11.072zm35.149 9.664l6.72-24.064h13.376L171.169 48h-15.616l-12.352-35.904h13.376l6.848 24.064zm58.651-6.528a22.74 22.74 0 0 1-.192 2.944H198.14c.128 1.963.661 3.435 1.6 4.416.981.939 2.218 1.408 3.712 1.408 2.09 0 3.584-.939 4.48-2.816h13.376a15.71 15.71 0 0 1-3.264 6.656c-1.579 1.92-3.584 3.435-6.016 4.544s-5.12 1.664-8.064 1.664c-3.542 0-6.699-.747-9.472-2.24-2.731-1.493-4.886-3.627-6.464-6.4-1.536-2.773-2.304-6.037-2.304-9.792s.768-6.997 2.304-9.728c1.536-2.773 3.669-4.907 6.4-6.4 2.773-1.493 5.952-2.24 9.536-2.24 3.541 0 6.677.725 9.408 2.176s4.864 3.541 6.4 6.272c1.536 2.688 2.304 5.867 2.304 9.536zm-12.8-3.136c0-1.536-.512-2.731-1.536-3.584-1.024-.896-2.304-1.344-3.84-1.344s-2.795.427-3.776 1.28c-.982.811-1.622 2.027-1.92 3.648h11.072zm30.477-8.064c1.408-2.048 3.115-3.669 5.12-4.864a12.41 12.41 0 0 1 6.464-1.792v13.376h-3.52c-2.731 0-4.757.533-6.08 1.6s-1.984 2.923-1.984 5.568V48h-12.544V12.096h12.544v6.336z" fill="#ff5722"/></svg>