<svg xmlns="http://www.w3.org/2000/svg" width="24" height="24" fill="none" xmlns:v="https://vecta.io/nano"><g clip-path="url(#A)" fill="#0069ff"><path d="M12 24v-4.608a7.33 7.33 0 0 0 6.791-4.497 7.33 7.33 0 0 0 .436-4.233c-.276-1.423-.969-2.732-1.989-3.762a6.93 6.93 0 0 0-2.532-1.602c-5.184-1.86-10.062 1.92-10.062 6.804H0C0 4.32 7.59-1.752 15.816.798c3.6 1.11 6.456 3.948 7.578 7.512.592 1.799.749 3.712.456 5.583a11.95 11.95 0 0 1-6.4 8.813A11.95 11.95 0 0 1 12 24z"/><path d="M12.006 19.405H7.374v-4.59h4.632v4.59zm-4.632 3.528H3.816v-3.528h3.558v3.528zm-3.558-3.528H.84v-2.958h2.982v2.958h-.006z"/></g><defs><clipPath id="A"><path fill="#fff" d="M0 0h24v24H0z"/></clipPath></defs></svg>