<svg xmlns="http://www.w3.org/2000/svg" width="81" height="80" fill="none" xmlns:v="https://vecta.io/nano"><rect x=".5" width="80" height="80" rx="40" fill="#f4f7ff"/><g fill="#1b5bf7"><path opacity=".3" fill-rule="evenodd" d="M23.833 53.5a1.5 1.5 0 0 0 1.5 1.5h30.333a1.5 1.5 0 0 0 1.5-1.5V33.167a1.5 1.5 0 0 0-1.5-1.5h-18.5l-4.561-4.561a1.5 1.5 0 0 0-1.061-.439h-6.212a1.5 1.5 0 0 0-1.5 1.5V53.5z"/><path opacity=".3" d="M44.416 37.5c-1.341 0-2.91 1.52-3.75 2.5-.84-.98-2.409-2.5-3.75-2.5-2.374 0-3.75 1.852-3.75 4.209 0 3.916 7.5 8.291 7.5 8.291s7.5-4.375 7.5-8.125c0-2.357-1.376-4.375-3.75-4.375z"/></g></svg>