<svg xmlns="http://www.w3.org/2000/svg" width="24" height="24" fill="none" xmlns:v="https://vecta.io/nano"><path fill-rule="evenodd" d="M13.837 9.525h2.119v2.156h1.069a4.88 4.88 0 0 0 1.463-.244c.225-.075.487-.187.712-.319-.3-.394-.45-.881-.488-1.369-.056-.656.075-1.519.525-2.025l.225-.263.262.206c.675.544 1.219 1.275 1.331 2.138.806-.244 1.744-.187 2.456.225l.281.169-.15.3c-.6 1.162-1.856 1.537-3.075 1.463-1.837 4.556-5.812 6.713-10.65 6.713-2.494 0-4.781-.937-6.094-3.15l-.019-.038-.187-.394c-.45-.975-.581-2.044-.487-3.113l.038-.319h1.8V9.525h2.119v-2.1h4.219V5.306h2.531v4.219z" fill="#3a4d54"/><path d="M20.7 10.331c.15-1.106-.675-1.969-1.2-2.381-.581.675-.675 2.475.244 3.225-.525.45-1.594.881-2.719.881H3.487c-.113 1.163.094 2.231.562 3.15l.15.281c.094.169.206.319.319.488l1.538.037c.919-.019 1.669-.131 2.25-.319.094-.037.169.019.206.094.037.094-.019.169-.094.206-.075.019-.15.056-.244.075-.45.131-.938.206-1.556.244h-.112c-.244.019-.506.019-.788.019-.3 0-.581 0-.919-.019 1.125 1.275 2.888 2.025 5.1 2.025 4.687 0 8.662-2.081 10.406-6.731 1.256.131 2.456-.187 3-1.256-.844-.506-1.969-.338-2.606-.019z" fill="#00aada"/><path d="M20.7 10.331c.15-1.106-.675-1.969-1.2-2.381-.581.675-.675 2.475.244 3.225-.525.45-1.594.881-2.719.881H4.275c-.056 1.781.6 3.131 1.781 3.938.919-.019 1.669-.131 2.25-.319.094-.037.169.019.206.094.037.094-.019.169-.094.206-.075.019-.15.056-.244.075-.45.131-.975.225-1.594.262l-.019-.019c1.594.825 3.9.806 6.562-.206 2.962-1.144 5.738-3.319 7.669-5.794-.038.019-.075.019-.094.037z" fill="#28b8eb"/><path d="M3.506 13.462c.075.619.262 1.2.544 1.744l.15.281c.094.169.206.319.319.488l1.537.037c.919-.019 1.669-.131 2.25-.319.094-.037.169.019.206.094.037.094-.019.169-.094.206-.075.019-.15.056-.244.075-.45.131-.975.225-1.594.262h-.075c-.244.019-.506.019-.769.019-.3 0-.6 0-.919-.019 1.125 1.275 2.906 2.025 5.119 2.025 4.012 0 7.5-1.519 9.525-4.875H3.506v-.019z" fill="#028bb8"/><path d="M4.406 13.462c.244 1.087.806 1.95 1.65 2.531.919-.019 1.669-.131 2.25-.319.094-.037.169.019.206.094.038.094-.019.169-.094.206-.075.019-.15.056-.244.075a7.23 7.23 0 0 1-1.613.262c1.594.825 3.9.806 6.544-.206 1.594-.619 3.15-1.538 4.537-2.644H4.406z" fill="#019bc6"/><g fill-rule="evenodd"><path d="M5.325 9.881h1.838v1.838H5.325V9.881zm.15.15h.15v1.519h-.15v-1.519zm.263 0h.15v1.519h-.15v-1.519zm.281 0h.15v1.519h-.15v-1.519zm.281 0h.15v1.519H6.3v-1.519zm.281 0h.15v1.519h-.15v-1.519zm.281 0h.15v1.519h-.15v-1.519zm.563-2.25h1.838v1.838H7.425V7.781zm.169.15h.15V9.45h-.15V7.931zm.262 0h.15V9.45h-.15V7.931zm.281 0h.15V9.45h-.15V7.931zm.281 0h.15V9.45h-.15V7.931zm.262 0h.15V9.45h-.15V7.931zm.281 0h.15V9.45h-.15V7.931z" fill="#00acd3"/><path d="M7.425 9.881h1.838v1.837H7.425V9.881zm.169.15h.15v1.519h-.15v-1.519zm.263 0h.15v1.519h-.15v-1.519zm.281 0h.15v1.519h-.15v-1.519zm.281 0h.15v1.519h-.15v-1.519zm.263 0h.15v1.519h-.15v-1.519zm.281 0h.15v1.519h-.15v-1.519z" fill="#23c2ee"/><path d="M9.544 9.881h1.837v1.837H9.544V9.881zm.15.15h.15v1.519h-.15v-1.519zm.281 0h.15v1.519h-.15v-1.519zm.281 0h.15v1.519h-.15v-1.519zm.263 0h.15v1.519h-.15v-1.519zm.281 0h.15v1.519h-.15v-1.519zm.281 0h.15v1.519h-.15v-1.519z" fill="#00acd3"/><path d="M9.544 7.781h1.837v1.838H9.544V7.781zm.15.15h.15V9.45h-.15V7.931zm.281 0h.15V9.45h-.15V7.931zm.281 0h.15V9.45h-.15V7.931zm.263 0h.15V9.45h-.15V7.931zm.281 0h.15V9.45h-.15V7.931zm.281 0h.15V9.45h-.15V7.931zm.581 1.95H13.5v1.838h-1.838V9.881zm.15.15h.15v1.519h-.15v-1.519zm.281 0h.15v1.519h-.15v-1.519zm.263 0h.15v1.519h-.15v-1.519zm.281 0h.15v1.519h-.15v-1.519zm.281 0h.15v1.519h-.15v-1.519zm.281 0h.15v1.519h-.15v-1.519z" fill="#23c2ee"/><path d="M11.662 7.781H13.5v1.838h-1.837V7.781zm.15.15h.15V9.45h-.15V7.931zm.281 0h.15V9.45h-.15V7.931zm.262 0h.15V9.45h-.15V7.931zm.281 0h.15V9.45h-.15V7.931zm.281 0h.15V9.45h-.15V7.931zm.281 0h.15V9.45h-.15V7.931z" fill="#00acd3"/><path d="M11.662 5.663H13.5V7.5h-1.837V5.663zm.15.15h.15v1.519h-.15V5.813zm.281 0h.15v1.519h-.15V5.813zm.262 0h.15v1.519h-.15V5.813zm.281 0h.15v1.519h-.15V5.813zm.281 0h.15v1.519h-.15V5.813zm.281 0h.15v1.519h-.15V5.813z" fill="#23c2ee"/><path d="M13.781 9.881h1.838v1.837h-1.838V9.881zm.15.15h.15v1.519h-.15v-1.519zm.262 0h.15v1.519h-.15v-1.519zm.281 0h.15v1.519h-.15v-1.519zm.281 0h.15v1.519h-.15v-1.519zm.281 0h.15v1.519h-.15v-1.519zm.281 0h.15v1.519h-.15v-1.519z" fill="#00acd3"/><path d="M9.15 14.681c.281 0 .506.225.506.506s-.225.506-.506.506-.506-.225-.506-.506.225-.506.506-.506z" fill="#d4eef1"/><path d="M9.15 14.831c.037 0 .094 0 .131.019-.037.019-.075.075-.075.131 0 .075.075.15.15.15.056 0 .112-.037.131-.075.019.037.019.094.019.131 0 .206-.169.356-.356.356-.206 0-.356-.169-.356-.356s.15-.356.356-.356zM.206 13.65h23.513c-.506-.131-1.612-.3-1.444-.975-.937 1.069-3.169.75-3.75.225-.637.919-4.312.563-4.556-.15-.787.938-3.244.938-4.031 0-.263.713-3.938 1.069-4.556.15-.562.525-2.812.844-3.75-.225.206.656-.919.844-1.425.975z" fill="#3a4d54"/></g><path d="M10.5 18.337c-1.256-.6-1.931-1.406-2.325-2.287-.469.131-1.031.225-1.669.262-.244.019-.506.019-.769.019-.319 0-.638 0-.975-.019 1.125 1.125 2.55 2.006 5.156 2.025h.581z" fill="#bfdbe0"/><path d="M8.643 16.856c-.169-.244-.338-.525-.469-.806-.469.131-1.031.225-1.669.262.431.225 1.069.45 2.137.544z" fill="#d4eef1"/></svg>