<svg xmlns="http://www.w3.org/2000/svg" width="24" height="24" fill="none" xmlns:v="https://vecta.io/nano"><g clip-path="url(#A)"><path d="M23.958 12.588a4.73 4.73 0 0 0-3.12-4.464 6.79 6.79 0 0 0-1.413-5.615A6.79 6.79 0 0 0 14.196.024a6.79 6.79 0 0 0-5.49 2.82 3.6 3.6 0 0 0-4.337-.043A3.6 3.6 0 0 0 3.138 6.96c-.92.336-1.715.947-2.276 1.75S0 10.468 0 11.448a4.74 4.74 0 0 0 3.132 4.476 6.81 6.81 0 0 0 1.43 5.583 6.81 6.81 0 0 0 5.2 2.487 6.72 6.72 0 0 0 5.478-2.82c.624.497 1.398.768 2.196.768a3.6 3.6 0 0 0 2.964-1.551 3.6 3.6 0 0 0 .408-3.321c.92-.335 1.715-.943 2.278-1.744a4.79 4.79 0 0 0 .872-2.732v-.006z" fill="#fff"/><path d="M9.42 10.35l5.244 2.4 5.28-4.656c.174-.86.155-1.749-.056-2.601s-.608-1.647-1.163-2.327-1.254-1.229-2.046-1.606-1.659-.574-2.537-.576c-.96.001-1.905.236-2.753.686s-1.573 1.1-2.113 1.894l-.882 4.59 1.02 2.196h.006z" fill="#fed10a"/><path d="M3.99 15.924c-.177.864-.16 1.756.051 2.612s.608 1.655 1.166 2.339 1.259 1.234 2.055 1.613 1.667.576 2.549.576a5.92 5.92 0 0 0 2.775-.692c.855-.454 1.585-1.11 2.127-1.912l.87-4.56-1.164-2.244-5.262-2.406-5.166 4.68v-.006z" fill="#24bbb1"/><path d="M3.96 6.816l3.6.852.78-4.098c-.49-.366-1.084-.565-1.696-.567s-1.208.194-1.699.558-.853.876-1.03 1.462-.161 1.212.046 1.788v.006z" fill="#ef5098"/><path d="M3.648 7.68a3.99 3.99 0 0 0-2.716 3.689 3.99 3.99 0 0 0 2.542 3.811l5.04-4.584-.918-1.98-3.948-.936z" fill="#17a8e0"/><path d="M15.624 20.46c.498.378 1.092.588 1.71.588.459 0 .91-.112 1.317-.324s.755-.52 1.017-.897.428-.811.486-1.266.004-.917-.155-1.347l-3.582-.84-.792 4.086z" fill="#93c83e"/><path d="M16.357 15.426l3.948.924c.782-.256 1.466-.748 1.956-1.409s.765-1.457.784-2.28a3.98 3.98 0 0 0-2.566-3.812l-5.166 4.554 1.044 2.022z" fill="#0779a1"/></g><defs><clipPath id="A"><path fill="#fff" d="M0 0h24v24H0z"/></clipPath></defs></svg>