<svg xmlns="http://www.w3.org/2000/svg" width="56" height="56" fill="none" xmlns:v="https://vecta.io/nano"><path fill="#c4c4c4" fill-opacity=".01" d="M0 0h56v56H0z"/><g clip-path="url(#A)"><path d="M22 47c3.312 0 6-2.763 6-6.167v-6.167h-6c-3.312 0-6 2.763-6 6.167S18.688 47 22 47z" fill="#0acf83"/><path d="M16 28.5c0-3.404 2.688-6.167 6-6.167h6v12.333h-6c-3.312 0-6-2.763-6-6.167z" fill="#a259ff"/><path d="M16 16.167C16 12.763 18.688 10 22 10h6v12.333h-6c-3.312 0-6-2.763-6-6.167z" fill="#f24e1e"/><path d="M28 10h6c3.312 0 6 2.763 6 6.167s-2.688 6.167-6 6.167h-6V10z" fill="#ff7262"/><path d="M40 28.5c0 3.404-2.688 6.167-6 6.167s-6-2.763-6-6.167 2.688-6.167 6-6.167 6 2.763 6 6.167z" fill="#1abcfe"/></g><defs><clipPath id="A"><path fill="#fff" transform="translate(16 10)" d="M0 0h24v37H0z"/></clipPath></defs></svg>