<svg xmlns="http://www.w3.org/2000/svg" width="56" height="56" fill="none" stroke="#1b5bf7" stroke-width="3.5" stroke-linecap="round" stroke-linejoin="round" xmlns:v="https://vecta.io/nano"><path d="M37.334 9.334l7 7L15.517 45.15a4.95 4.95 0 0 1-7 0 4.95 4.95 0 0 1 0-7L37.334 9.334"/><path d="M23.333 23.334h14M44.334 35l3.5 3.733a4.67 4.67 0 0 1 1.115 2.392c.134.888.008 1.796-.361 2.614a4.66 4.66 0 0 1-1.722 2 4.67 4.67 0 0 1-5.064 0 4.67 4.67 0 0 1-1.722-2c-.37-.818-.495-1.726-.361-2.614s.521-1.719 1.115-2.392l3.5-3.733"/></svg>