<svg xmlns="http://www.w3.org/2000/svg" width="163" height="98" fill="none" xmlns:v="https://vecta.io/nano"><path d="M146.857 0H16C7.163 0 0 7.163 0 16v65.714c0 8.837 7.163 16 16 16h130.857c8.837 0 16-7.163 16-16V16c0-8.837-7.163-16-16-16z" fill="#f9f4e8"/><path d="M50.853 55.473c6.72 0 10.417-2.264 10.417-6.362 0-4.313-4.256-6.362-10.416-6.362-6.944 0-10.416 2.049-10.416 6.362 0 4.636 3.696 6.362 10.416 6.362zm0-1.725c4.841 0 7.504-1.65 7.504-4.636 0-3.143-3.066-4.636-7.504-4.636-5.003 0-7.504 1.493-7.504 4.636 0 3.379 2.663 4.636 7.504 4.636zm57.12 1.725c6.72 0 10.416-2.264 10.416-6.362 0-4.313-4.256-6.362-10.416-6.362-6.944 0-10.416 2.049-10.416 6.362 0 4.636 3.696 6.362 10.416 6.362zm0-1.725c4.841 0 7.504-1.65 7.504-4.636 0-3.143-3.067-4.636-7.504-4.636-5.003 0-7.504 1.493-7.504 4.636 0 3.379 2.662 4.636 7.504 4.636z" fill-rule="evenodd" fill="#1d1a2f"/><path d="M17.813 55.473V42.75h15.008v1.941H20.725v3.666h9.184l-.672 1.725h-8.512v5.391h-2.912zm52.64 0V42.75h3.482l11.526 9.92v-9.92h2.688v12.723h-3.266l-11.742-9.704v9.704h-2.688zm56.896 0V42.75h3.484l11.524 9.92v-9.92h2.688v12.723h-3.266l-11.742-9.704v9.704h-2.688z" fill="#1d1a2f"/></svg>