<svg xmlns="http://www.w3.org/2000/svg" width="24" height="24" fill="none" xmlns:v="https://vecta.io/nano"><g clip-path="url(#A)"><path d="M15.222 7.122h.732l2.088-2.088.102-.882a9.38 9.38 0 0 0-8.896-1.949 9.38 9.38 0 0 0-6.356 6.521 1.13 1.13 0 0 1 .732-.042l4.17-.69s.21-.348.324-.33c.893-.983 2.129-1.587 3.454-1.688s2.637.31 3.669 1.148h-.018z" fill="#ea4335"/><path d="M21.012 8.724a9.39 9.39 0 0 0-2.832-4.566l-2.928 2.928a5.21 5.21 0 0 1 1.914 4.128v.522c.691 0 1.353.274 1.841.763s.763 1.151.763 1.841-.274 1.353-.763 1.841-1.151.763-1.841.763h-5.214l-.522.528v3.126l.522.522h5.214a6.78 6.78 0 0 0 6.523-4.771 6.78 6.78 0 0 0-2.677-7.625z" fill="#4285f4"/><path d="M6.732 21.084h5.214V16.92H6.732c-.372 0-.738-.078-1.08-.234l-.726.228-2.1 2.088-.18.732c1.177.887 2.612 1.364 4.086 1.356v-.006z" fill="#34a853"/><path d="M6.731 7.554A6.78 6.78 0 0 0 .353 12.17a6.78 6.78 0 0 0 2.287 7.534l3.024-3.024a2.6 2.6 0 0 1-.977-.771c-.259-.332-.433-.722-.508-1.136s-.048-.84.078-1.242.347-.767.645-1.064.663-.518 1.065-.643.828-.151 1.242-.075.804.251 1.135.51.596.595.769.978l3.018-3.024a6.76 6.76 0 0 0-5.4-2.658z" fill="#fbbc05"/></g><defs><clipPath id="A"><path fill="#fff" d="M0 0h24v24H0z"/></clipPath></defs></svg>