<svg xmlns="http://www.w3.org/2000/svg" width="35" height="35" fill="#1b5bf7" xmlns:v="https://vecta.io/nano"><path opacity=".3" d="M27.158 14.219h.186a3.28 3.28 0 1 1 0 6.562h-.094a.71.71 0 0 0-.651.431c-.122.277-.066.587.129.786l.065.065a3.28 3.28 0 0 1 .001 4.642 3.28 3.28 0 0 1-4.643 0l-.057-.057c-.208-.203-.518-.26-.795-.137a.71.71 0 0 0-.431.646v.186a3.28 3.28 0 1 1-6.562 0 .76.76 0 0 0-.529-.749c-.266-.117-.576-.061-.776.134l-.065.065a3.28 3.28 0 0 1-4.642.001 3.28 3.28 0 0 1 0-4.643l.057-.057c.203-.208.26-.518.138-.795a.71.71 0 0 0-.646-.431h-.186a3.28 3.28 0 1 1 0-6.562.76.76 0 0 0 .749-.529c.117-.266.061-.576-.134-.776l-.065-.065a3.28 3.28 0 0 1-.001-4.642 3.28 3.28 0 0 1 4.643 0l.057.057a.71.71 0 0 0 .784.142l.157-.033a.71.71 0 0 0 .372-.618v-.186a3.28 3.28 0 1 1 6.562 0v.094c.001.283.171.539.442.655.266.117.576.061.776-.134l.065-.065a3.28 3.28 0 0 1 4.642-.001 3.28 3.28 0 0 1 0 4.643l-.057.057a.71.71 0 0 0-.142.784l.033.157a.71.71 0 0 0 .618.372z"/><path fill-rule="evenodd" d="M17.5 21.875c2.416 0 4.375-1.959 4.375-4.375s-1.959-4.375-4.375-4.375-4.375 1.959-4.375 4.375 1.959 4.375 4.375 4.375z"/></svg>