<svg xmlns="http://www.w3.org/2000/svg" width="24" height="24" fill="none" fill-rule="evenodd" xmlns:v="https://vecta.io/nano"><path d="M12 23.052l4.41-13.596H7.59L12 23.052z" fill="#e24329"/><path d="M12 23.052L7.596 9.456h-6.18L12 23.052z" fill="#fc6d26"/><path d="M1.416 9.456L.078 13.584c-.12.378.012.792.33 1.02L12 23.058 1.416 9.456z" fill="#fca326"/><path d="M1.416 9.456h6.18L4.938 1.26c-.031-.09-.089-.169-.166-.224S4.601.95 4.506.95s-.188.03-.266.086-.136.134-.166.224L1.416 9.456z" fill="#e24329"/><path d="M12 23.052l4.41-13.596h6.174L12 23.052z" fill="#fc6d26"/><path d="M22.584 9.456l1.338 4.128c.12.378-.012.792-.33 1.02L12 23.058 22.584 9.462v-.006z" fill="#fca326"/><path d="M22.584 9.456h-6.18l2.658-8.196c.03-.09.089-.169.166-.224s.171-.086.266-.086.188.03.266.086.136.134.166.224l2.658 8.196z" fill="#e24329"/></svg>