<svg xmlns="http://www.w3.org/2000/svg" width="24" height="24" fill="#327c99" xmlns:v="https://vecta.io/nano"><path fill-rule="evenodd" d="M11.753 9.548l-2.672.701c-.239.064-.255.08-.462-.16-.238-.271-.413-.446-.747-.605-1.002-.494-1.973-.35-2.88.239-1.081.701-1.638 1.736-1.622 3.026.016 1.274.89 2.326 2.147 2.501 1.082.143 1.988-.239 2.704-1.052.143-.175.27-.366.43-.589h-3.07c-.334 0-.414-.207-.302-.478l.811-1.736c.048-.096.159-.255.398-.255h5.79l-.095 1.29c-.175 1.147-.604 2.198-1.304 3.122-1.146 1.514-2.641 2.454-4.534 2.708-1.559.207-3.007-.096-4.279-1.051a5 5 0 0 1-2.02-3.537c-.207-1.736.302-3.298 1.352-4.667 1.13-1.482 2.625-2.422 4.454-2.756 1.495-.271 2.927-.096 4.215.78.844.558 1.448 1.322 1.846 2.246.095.144.032.223-.159.271z"/><path d="M17.018 18.357c-1.447-.032-2.768-.446-3.881-1.402-.938-.812-1.527-1.848-1.718-3.074-.286-1.8.207-3.393 1.288-4.811 1.162-1.53 2.561-2.326 4.454-2.66 1.622-.287 3.15-.128 4.534.812 1.256.86 2.036 2.023 2.243 3.552.27 2.151-.35 3.903-1.829 5.401-1.05 1.068-2.338 1.736-3.818 2.039-.429.08-.859.095-1.272.143h-.001zm3.786-6.436l-.048-.526c-.286-1.577-1.734-2.469-3.245-2.119-1.479.334-2.434 1.274-2.784 2.772-.286 1.242.318 2.501 1.464 3.011.875.382 1.75.334 2.593-.096 1.257-.653 1.941-1.672 2.02-3.042v-.001z"/></svg>