<svg xmlns="http://www.w3.org/2000/svg" width="24" height="24" fill="none" xmlns:v="https://vecta.io/nano"><path fill="#c4c4c4" fill-opacity=".01" d="M0 0h24v24H0z"/><path d="M22.822 10.54c-.039-.401-.105-.862-.235-1.375-.131-.507-.327-1.066-.615-1.645s-.661-1.178-1.145-1.763c-.19-.23-.399-.454-.622-.671.334-1.336-.406-2.493-.406-2.493-1.276-.079-2.087.401-2.388.618-.052-.02-.098-.046-.151-.066l-.674-.243-.707-.197-.733-.145-.131-.02C14.46.75 12.863 0 12.863 0c-1.786 1.138-2.12 2.73-2.12 2.73l-.02.092-.294.086c-.137.039-.275.092-.406.145l-.406.164-.798.395-.746.467-.065-.026c-2.473-.947-4.665.191-4.665.191-.203 2.645.988 4.309 1.224 4.612l-.164.493c-.183.599-.321 1.211-.406 1.849l-.033.276C1.674 12.612 1 14.934 1 14.934c1.904 2.204 4.129 2.342 4.129 2.342l.007-.006c.281.507.609.987.975 1.441l.484.546c-.694 2 .098 3.658.098 3.658 2.12.079 3.514-.934 3.808-1.164l.641.191a9.32 9.32 0 0 0 1.989.296l.497.007h.079.052.105l.105-.007v.007c1.001 1.434 2.755 1.638 2.755 1.638 1.25-1.322 1.322-2.638 1.322-2.921v-.059-.059a7.27 7.27 0 0 0 .746-.599c.497-.454.936-.974 1.302-1.533l.098-.158c1.413.079 2.415-.882 2.415-.882-.236-1.48-1.073-2.204-1.25-2.342 0 0-.007-.007-.02-.013-.02-.02-.033-.026-.046-.033l.02-.27c.013-.158.013-.322.013-.48v-.118-.059-.033-.04l-.007-.099-.006-.132c0-.046-.007-.085-.013-.125s-.006-.085-.013-.125l-.013-.125-.02-.125-.092-.487a6.49 6.49 0 0 0-.72-1.789c-.327-.546-.733-1.026-1.197-1.434a6.02 6.02 0 0 0-1.512-.98c-.543-.243-1.106-.401-1.669-.474a5.19 5.19 0 0 0-.844-.046h-.105-.026-.033-.046l-.105.007c-.039 0-.079.007-.111.007l-.425.059a4.64 4.64 0 0 0-1.557.592 4.79 4.79 0 0 0-1.197 1.026 4.7 4.7 0 0 0-.759 1.29 4.56 4.56 0 0 0-.301 1.382l-.006.342v.085l.006.092.013.164a3.62 3.62 0 0 0 .124.664 3.66 3.66 0 0 0 .563 1.145c.242.329.537.599.844.816.308.21.641.362.968.46s.654.138.962.138h.111.059c.02 0 .039 0 .059-.007.033 0 .066-.007.098-.007.007 0 .02 0 .026-.007l.033-.006c.02 0 .039-.007.059-.007l.111-.02a.48.48 0 0 0 .105-.026c.072-.013.137-.04.203-.059.131-.046.262-.099.373-.158.118-.059.223-.132.327-.197.026-.02.059-.039.085-.066.105-.086.124-.244.039-.349a.24.24 0 0 0-.308-.059l-.079.039c-.092.046-.183.086-.281.118a2.35 2.35 0 0 1-.307.079l-.164.02c-.026 0-.052.007-.085.007h-.079-.079c-.033 0-.066 0-.098-.007h-.02-.02c-.013 0-.033 0-.046-.007-.033-.007-.059-.007-.092-.013-.242-.033-.484-.105-.713-.21a2.5 2.5 0 0 1-.661-.434 2.52 2.52 0 0 1-.517-.651c-.137-.25-.236-.526-.281-.816a2.5 2.5 0 0 1-.026-.441c0-.04.007-.079.007-.119v-.02-.033c0-.02.006-.04.006-.059.007-.079.02-.158.033-.237.111-.632.425-1.25.91-1.717.124-.118.255-.224.393-.322a2.7 2.7 0 0 1 .445-.257c.157-.072.314-.132.484-.178.163-.046.334-.072.51-.092l.262-.013h.059.072.046.026l.072.007c.19.013.373.039.556.085a3.91 3.91 0 0 1 1.06.401c.668.375 1.237.954 1.584 1.651a3.69 3.69 0 0 1 .36 1.112l.033.296.006.072.007.072v.072.072.066.072l-.007.171-.033.322-.052.316-.072.309a5.54 5.54 0 0 1-.196.612 5.37 5.37 0 0 1-.615 1.125c-.504.697-1.191 1.263-1.976 1.625-.393.178-.805.309-1.23.375-.209.039-.425.059-.641.066h-.039-.033-.072-.105-.052c.026 0-.007 0-.007 0h-.02c-.118 0-.229-.007-.347-.02-.458-.033-.91-.118-1.354-.243-.438-.125-.864-.303-1.269-.513-.805-.434-1.531-1.026-2.094-1.743a6.79 6.79 0 0 1-.733-1.145c-.203-.401-.366-.829-.484-1.257a6.98 6.98 0 0 1-.222-1.322l-.007-.085v-.02-.02-.039-.072-.02-.026-.053-.105-.02-.046-.165l.052-.671.111-.678.164-.671a8.86 8.86 0 0 1 .465-1.27c.373-.803.857-1.52 1.44-2.092a6.66 6.66 0 0 1 .451-.408l.491-.355a5.07 5.07 0 0 1 .517-.303l.268-.132.137-.059.137-.059a5.31 5.31 0 0 1 .569-.204l.144-.046.144-.039.295-.072c.046-.013.098-.02.15-.033l.151-.033.15-.026.072-.013.079-.013.151-.02.17-.02.17-.02c.033-.007.072-.007.105-.013l.072-.007.033-.007h.039l.17-.013.085-.007h.007.02.039l.144-.007h.576c.379.013.752.059 1.112.125a7.84 7.84 0 0 1 2.029.678c.622.303 1.171.678 1.656 1.086l.092.079.085.079.17.158.163.158.157.164.563.658a8.49 8.49 0 0 1 .831 1.309l.039.079.039.079.072.158.072.151c.02.053.046.099.066.151l.216.566.229.77c.02.092.105.151.196.138.098-.007.17-.085.17-.184a6.55 6.55 0 0 0-.033-.842z" fill="url(#A)"/><defs><linearGradient id="A" x1="11.928" y1="29.243" x2="11.928" y2="7.437" gradientUnits="userSpaceOnUse"><stop stop-color="#fff100"/><stop offset="1" stop-color="#f05a28"/></linearGradient></defs></svg>