<svg xmlns="http://www.w3.org/2000/svg" width="163" height="98" fill="none" xmlns:v="https://vecta.io/nano"><path d="M147 .285H16.143c-8.837 0-16 7.163-16 16V82c0 8.837 7.163 16 16 16H147c8.836 0 16-7.163 16-16V16.285c0-8.837-7.164-16-16-16z" fill="#fff"/><g fill-rule="evenodd" fill="#000"><path d="M70.059 46.462v-.496c.711 0 1.066-.24 1.066-.72v-2.384a1.14 1.14 0 0 0-.299-.1 2.15 2.15 0 0 0-.452-.041h-1.305c-.269 0-.505.047-.708.142v2.384c0 .48.327.72.98.72v.496h-3.863v-.496c.732 0 1.099-.24 1.099-.72V40.09c0-.621-.367-.932-1.099-.932v-.52h3.863v.52c-.653 0-.98.311-.98.932v1.923c.109.039.218.067.327.083a2.69 2.69 0 0 0 .381.024h1.305c.378 0 .628-.032.751-.095V40.09c0-.621-.355-.932-1.066-.932v-.52H73.9v.52c-.66 0-.99.311-.99.932v5.157c0 .48.33.72.99.72v.496h-3.841zm12.416-3.954c0 .669-.098 1.259-.294 1.77s-.466.942-.811 1.292-.751.615-1.218.797a4.18 4.18 0 0 1-1.529.271c-.523 0-1.012-.077-1.469-.23a3.16 3.16 0 0 1-1.197-.72c-.341-.327-.61-.746-.806-1.257s-.294-1.122-.294-1.829c0-.716.095-1.332.283-1.847s.452-.94.789-1.275a3.11 3.11 0 0 1 1.197-.737c.461-.157.96-.236 1.497-.236.529 0 1.028.085 1.496.254s.876.421 1.224.755.624.752.827 1.251.305 1.08.305 1.741zm-3.765 3.54c.384 0 .7-.089.946-.266s.441-.421.583-.731a3.84 3.84 0 0 0 .293-1.098 10.45 10.45 0 0 0 .082-1.351c0-.449-.027-.885-.082-1.31s-.156-.803-.304-1.133a2 2 0 0 0-.626-.797c-.268-.201-.62-.301-1.056-.301-.399 0-.718.095-.957.283a1.79 1.79 0 0 0-.55.761c-.127.318-.21.685-.25 1.098a13.54 13.54 0 0 0-.06 1.304c0 .496.029.96.087 1.393s.162.808.31 1.127.35.568.604.749.581.271.98.271zm8.912-4.861a6.33 6.33 0 0 0-.218-.862 2.79 2.79 0 0 0-.321-.673 1.48 1.48 0 0 0-.435-.437c-.163-.102-.347-.153-.55-.153-.421 0-.747.093-.979.277a.88.88 0 0 0-.348.726c0 .212.04.385.119.519s.196.254.349.36a2.91 2.91 0 0 0 .56.295l.745.313.86.402c.261.134.484.295.669.484s.328.417.43.684.152.606.152 1.015c0 .394-.059.743-.179 1.05a2.2 2.2 0 0 1-.512.785 2.22 2.22 0 0 1-.794.496 2.91 2.91 0 0 1-1.017.171 2.83 2.83 0 0 1-.778-.106c-.25-.071-.47-.197-.659-.378a3.76 3.76 0 0 1-.451.295c-.156.087-.318.157-.485.212-.087-.276-.148-.553-.185-.832s-.054-.569-.054-.867l.016-.602.06-.602h.707c0 .26.031.523.093.791a2.45 2.45 0 0 0 .299.737 1.71 1.71 0 0 0 .539.549c.221.142.488.212.8.212a2.18 2.18 0 0 0 .712-.1 1.22 1.22 0 0 0 .468-.277 1.07 1.07 0 0 0 .262-.407 1.46 1.46 0 0 0 .081-.489c0-.276-.065-.506-.196-.691s-.344-.332-.642-.442l-1.219-.49a4.06 4.06 0 0 1-.963-.578 2.41 2.41 0 0 1-.636-.797c-.152-.307-.229-.684-.229-1.133 0-.338.06-.643.18-.914a2.06 2.06 0 0 1 .484-.691c.203-.189.441-.332.713-.431s.56-.147.865-.147a1.94 1.94 0 0 1 .773.159c.247.106.453.285.62.537a1.03 1.03 0 0 1 .348-.39c.152-.103.305-.177.457-.224.109.386.176.816.201 1.292l.039 1.351h-.751zm6.607 5.275v-.496c.711 0 1.066-.24 1.066-.72v-2.384a1.14 1.14 0 0 0-.299-.1 2.2 2.2 0 0 0-.452-.041h-1.305c-.269 0-.505.047-.708.142v2.384c0 .48.327.72.98.72v.496h-3.864v-.496c.733 0 1.1-.24 1.1-.72V40.09c0-.621-.367-.932-1.1-.932v-.52h3.864v.52c-.653 0-.98.311-.98.932v1.923c.109.039.218.067.327.083a2.67 2.67 0 0 0 .381.024h1.305c.378 0 .628-.032.751-.095V40.09c0-.621-.355-.932-1.066-.932v-.52h3.841v.52c-.66 0-.99.311-.99.932v5.157c0 .48.33.72.99.72v.496h-3.841zm4.916 0v-.496c.675 0 1.012-.24 1.012-.72v-5.157c0-.621-.352-.932-1.055-.932v-.52h3.819v.52c-.645 0-.968.311-.968.932v5.157c0 .48.341.72 1.023.72v.496h-3.831zm10.948 0v-.496c.631 0 .947-.26.947-.779l-.087-4.934-2.155 6.208h-.979l-2.329-6.172-.043 4.732c0 .63.355.944 1.066.944v.496h-2.709v-.496c.326 0 .577-.085.751-.254s.264-.431.272-.785l.087-5.158a1.75 1.75 0 0 0-.017-.254c-.011-.075-.051-.138-.119-.189s-.176-.093-.322-.124a3.04 3.04 0 0 0-.609-.047v-.52h2.916l2.101 5.712 2.024-5.712h2.568v.52c-.218 0-.392.018-.522.053s-.234.083-.31.142a.39.39 0 0 0-.147.195.75.75 0 0 0-.033.224l.131 5.335c.014.575.337.861.968.861v.496h-3.45zm12.035-3.954c0 .669-.098 1.259-.294 1.77s-.466.942-.81 1.292a3.43 3.43 0 0 1-1.219.797c-.468.182-.978.271-1.529.271a4.59 4.59 0 0 1-1.469-.23c-.457-.154-.856-.393-1.197-.72s-.61-.746-.805-1.257-.294-1.122-.294-1.829c0-.716.094-1.332.283-1.847s.451-.94.789-1.275a3.09 3.09 0 0 1 1.197-.737 4.61 4.61 0 0 1 1.496-.236c.529 0 1.028.085 1.496.254s.876.421 1.224.755.624.752.827 1.251.305 1.08.305 1.741zm-3.765 3.54c.384 0 .7-.089.947-.266s.44-.421.582-.731.239-.677.294-1.098a10.45 10.45 0 0 0 .081-1.351 10.38 10.38 0 0 0-.081-1.31c-.054-.425-.156-.803-.305-1.133a2 2 0 0 0-.626-.797c-.269-.201-.62-.301-1.055-.301-.399 0-.718.095-.958.283s-.423.443-.549.761-.211.685-.251 1.098a13.54 13.54 0 0 0-.06 1.304 10.33 10.33 0 0 0 .088 1.393c.057.432.161.808.31 1.127s.35.568.604.749.58.271.979.271zm6.889.508l-2.448-6.703c-.203-.465-.511-.696-.925-.696v-.52h3.613v.52h-.544c-.211 0-.316.047-.316.142 0 .165.029.33.087.495l1.731 4.981 1.588-4.744c.029-.095.044-.224.044-.389 0-.323-.327-.484-.98-.484v-.52h2.699v.52h-.402c-.102 0-.191.047-.267.142a1.91 1.91 0 0 0-.234.413l-2.579 6.927-1.067-.082zm-59.731 12.31v-.496c.675 0 1.012-.24 1.012-.72v-5.157c0-.622-.352-.932-1.055-.932v-.519h3.819v.519c-.645 0-.968.311-.968.932v5.157c0 .48.341.72 1.022.72v.496h-3.83zm8.706-.413c.385 0 .7-.088.947-.266a1.8 1.8 0 0 0 .582-.731 3.87 3.87 0 0 0 .294-1.098 10.63 10.63 0 0 0 .081-1.351 10.39 10.39 0 0 0-.081-1.31 3.99 3.99 0 0 0-.305-1.133 1.99 1.99 0 0 0-.626-.797c-.268-.201-.62-.301-1.055-.301-.392 0-.707.095-.947.283s-.423.443-.549.761-.211.684-.251 1.098a13.54 13.54 0 0 0-.06 1.304c0 .496.029.96.088 1.393s.159.808.304 1.127a1.81 1.81 0 0 0 .604.749c.258.181.582.272.974.272zm3.798 1.015c-.08.299-.183.537-.31.714a1.6 1.6 0 0 1-.403.407c-.141.095-.283.155-.424.183a2 2 0 0 1-.387.041c-.384 0-.75-.134-1.099-.401s-.664-.728-.946-1.381a5.77 5.77 0 0 1-1.557-.206 3.37 3.37 0 0 1-1.295-.679c-.37-.315-.665-.73-.886-1.245s-.332-1.147-.332-1.894c0-.716.094-1.332.283-1.847s.451-.94.789-1.274.736-.581 1.197-.738a4.61 4.61 0 0 1 1.496-.236 4.33 4.33 0 0 1 1.485.254 3.42 3.42 0 0 1 1.224.755c.349.334.624.751.828 1.251s.304 1.08.304 1.741c0 .999-.207 1.821-.62 2.467a3.45 3.45 0 0 1-1.654 1.381 2.42 2.42 0 0 0 .25.454 2.31 2.31 0 0 0 .327.378c.116.106.233.191.353.254s.231.095.332.095c.276 0 .483-.157.62-.472h.425zm1.805-.602v-.496c.755 0 1.132-.331 1.132-.991v-5.335c0-.236-.149-.354-.446-.354a1.28 1.28 0 0 0-.583.124 1.19 1.19 0 0 0-.424.372c-.12.165-.221.372-.305.62a7.2 7.2 0 0 0-.223.868l-.674-.106.304-2.62a6.61 6.61 0 0 0 .621.071l.533.024h4.298l.588-.024.631-.071v2.585l-.631.059c-.036-.621-.158-1.086-.365-1.393s-.564-.46-1.072-.46c-.311 0-.468.102-.468.307v5.335c0 .661.385.991 1.154.991v.496h-4.07zm6.105 0v-.496c.675 0 1.012-.24 1.012-.72v-5.157c0-.622-.352-.932-1.055-.932v-.519h3.819v.519c-.646 0-.968.311-.968.932v5.157c0 .48.341.72 1.023.72v.496h-3.831zm9.021-5.275a6.28 6.28 0 0 0-.218-.861c-.087-.259-.194-.484-.321-.673s-.272-.334-.435-.437a1.01 1.01 0 0 0-.55-.154c-.42 0-.747.093-.979.277a.88.88 0 0 0-.348.726c0 .213.04.386.12.519s.196.254.348.36a2.88 2.88 0 0 0 .56.295l.746.313.859.401a2.53 2.53 0 0 1 .669.484 1.95 1.95 0 0 1 .43.684c.102.268.153.606.153 1.015 0 .393-.06.743-.18 1.05a2.2 2.2 0 0 1-.512.785c-.222.217-.485.381-.794.496a2.91 2.91 0 0 1-1.017.171 2.83 2.83 0 0 1-.778-.106 1.55 1.55 0 0 1-.659-.378 3.76 3.76 0 0 1-.451.295c-.156.087-.317.157-.484.212a4.79 4.79 0 0 1-.185-.832 6.6 6.6 0 0 1-.055-.867l.017-.602.059-.602h.708a3.49 3.49 0 0 0 .092.791 2.45 2.45 0 0 0 .299.738c.138.224.318.407.539.549s.488.212.8.212c.283 0 .52-.034.713-.1s.348-.159.468-.277a1.07 1.07 0 0 0 .261-.407 1.44 1.44 0 0 0 .081-.49c0-.276-.065-.506-.196-.691s-.344-.332-.642-.443l-1.218-.49c-.37-.161-.691-.354-.964-.578s-.484-.49-.636-.797-.228-.684-.228-1.133c0-.338.059-.643.179-.914a2.07 2.07 0 0 1 .484-.69c.203-.188.441-.333.713-.431a2.52 2.52 0 0 1 .865-.148 1.94 1.94 0 0 1 .773.159c.247.106.453.285.62.537a1.02 1.02 0 0 1 .348-.389 1.77 1.77 0 0 1 .457-.224 5.95 5.95 0 0 1 .202 1.292l.038 1.351h-.751zm9.566 1.321c0 .669-.098 1.259-.294 1.77s-.466.942-.811 1.292-.751.616-1.219.797a4.2 4.2 0 0 1-1.528.271 4.59 4.59 0 0 1-1.469-.23 3.15 3.15 0 0 1-1.197-.72c-.342-.327-.61-.745-.806-1.257s-.294-1.121-.294-1.829c0-.716.095-1.332.283-1.847s.452-.94.789-1.275.736-.58 1.197-.738.96-.236 1.497-.236c.529 0 1.028.085 1.496.254a3.42 3.42 0 0 1 1.224.755 3.57 3.57 0 0 1 .827 1.251c.203.5.305 1.08.305 1.741zm-3.765 3.541c.384 0 .7-.088.946-.266a1.8 1.8 0 0 0 .582-.731c.141-.31.24-.677.294-1.098a10.45 10.45 0 0 0 .082-1.351 10.19 10.19 0 0 0-.082-1.31c-.054-.425-.156-.803-.305-1.133s-.357-.596-.625-.797-.621-.301-1.056-.301c-.399 0-.718.095-.957.283a1.79 1.79 0 0 0-.55.761c-.127.318-.21.684-.25 1.098a13.54 13.54 0 0 0-.06 1.304 10.5 10.5 0 0 0 .087 1.393c.058.433.161.808.31 1.127s.35.568.604.749.581.272.98.272zm7.595-.98c0 .189.014.334.043.437a.43.43 0 0 0 .153.236.54.54 0 0 0 .277.1 4.13 4.13 0 0 0 .419.018c.704 0 1.232-.266 1.583-.797s.528-1.367.528-2.508c0-1.125-.174-1.959-.522-2.502s-.936-.814-1.763-.814l-.359.018a.44.44 0 0 0-.223.082c-.055.043-.091.108-.109.195a1.75 1.75 0 0 0-.027.342v5.193zm-2.808 1.393v-.496c.21 0 .383-.012.517-.035s.238-.071.31-.142a.55.55 0 0 0 .147-.301c.026-.13.038-.301.038-.513v-4.803c0-.267-.018-.462-.054-.584s-.094-.206-.174-.254a.82.82 0 0 0-.321-.094c-.134-.016-.3-.047-.495-.094v-.519l.511.047.49.012.615-.012.604-.03.756-.029 1.083-.012c.565 0 1.068.073 1.507.218s.809.376 1.11.691.529.724.685 1.227.234 1.11.234 1.818c0 .677-.067 1.261-.201 1.752s-.35.897-.648 1.216-.685.555-1.164.708-1.066.23-1.763.23h-3.787z"/><use href="#D"/><path d="M120.311 58.866v-.496c.725 0 1.088-.153 1.088-.46v-2.231l-1.774-3.186c-.348-.622-.74-.932-1.175-.932v-.519h3.624v.519c-.515 0-.773.106-.773.319 0 .079.058.216.174.413l1.426 2.561 1.327-2.549a1.63 1.63 0 0 0 .055-.472c0-.181-.283-.271-.849-.271v-.519h2.622v.519c-.391 0-.678.13-.859.39l-1.981 3.682v2.325c0 .275.348.413 1.045.413v.496h-3.95zm13.037-3.954c0 .669-.098 1.259-.294 1.77s-.466.942-.811 1.292a3.41 3.41 0 0 1-1.218.797c-.468.181-.978.271-1.529.271-.523 0-1.012-.077-1.469-.23s-.856-.394-1.197-.72-.61-.745-.806-1.257-.294-1.121-.294-1.829c0-.716.095-1.332.284-1.847s.451-.94.788-1.275a3.11 3.11 0 0 1 1.197-.738c.461-.157.96-.236 1.497-.236.529 0 1.028.085 1.496.254a3.42 3.42 0 0 1 1.224.755c.349.334.624.751.827 1.251s.305 1.08.305 1.741zm-3.765 3.541c.384 0 .7-.088.947-.266a1.8 1.8 0 0 0 .582-.731 3.87 3.87 0 0 0 .294-1.098 10.64 10.64 0 0 0 .081-1.351 10.39 10.39 0 0 0-.081-1.31 3.99 3.99 0 0 0-.305-1.133 2 2 0 0 0-.626-.797c-.268-.201-.62-.301-1.055-.301-.399 0-.719.095-.958.283a1.79 1.79 0 0 0-.55.761c-.127.318-.21.684-.25 1.098a13.54 13.54 0 0 0-.06 1.304 10.5 10.5 0 0 0 .087 1.393c.058.433.162.808.31 1.127a1.86 1.86 0 0 0 .605.749c.253.181.58.272.979.272zm-99.486.746v-1.314c1.884 0 2.826-.636 2.826-1.908v-6.318c-.192-.104-.457-.193-.793-.266s-.735-.11-1.197-.11h-3.461c-.711 0-1.336.125-1.875.375v6.318c0 1.272.865 1.908 2.596 1.908v1.314H17.955v-1.314c1.942 0 2.913-.636 2.913-1.908V42.308c0-1.648-.971-2.471-2.913-2.471v-1.376h10.238v1.376c-1.731 0-2.596.824-2.596 2.471v5.098c.288.104.577.177.865.219a7.13 7.13 0 0 0 1.009.063h3.461c1 0 1.663-.083 1.99-.25v-5.13c0-1.648-.942-2.471-2.826-2.471v-1.376h10.181v1.376c-1.75 0-2.625.824-2.625 2.471v13.669c0 1.272.875 1.908 2.625 1.908v1.314h-10.18zm13.036 0v-1.314c1.788 0 2.682-.636 2.682-1.908V42.308c0-1.648-.932-2.471-2.797-2.471v-1.376H53.14v1.376c-1.711 0-2.567.824-2.567 2.471v13.669c0 1.272.904 1.908 2.711 1.908v1.314H43.133zm92.119-.333v-.496c.754 0 1.132-.331 1.132-.991v-5.335c0-.236-.149-.354-.446-.354a1.28 1.28 0 0 0-.583.124 1.19 1.19 0 0 0-.424.372c-.12.165-.221.372-.305.62a7.2 7.2 0 0 0-.223.868l-.674-.106.304-2.62a6.61 6.61 0 0 0 .621.071l.533.024h4.298l.588-.024.631-.071v2.585l-.631.059c-.036-.621-.158-1.086-.365-1.393s-.564-.46-1.072-.46c-.311 0-.468.102-.468.307v5.335c0 .661.385.991 1.154.991v.496h-4.07z"/></g><mask id="A" mask-type="alpha" maskUnits="userSpaceOnUse" x="141" y="51" width="5" height="8"><path d="M141.313 51.041h3.874v7.825h-3.874v-7.825z" fill="#fff"/></mask><g mask="url(#A)"><use href="#D" x="27.161" fill-rule="evenodd" fill="#000"/></g><mask id="B" mask-type="alpha" maskUnits="userSpaceOnUse" x="53" y="27" width="12" height="44"><path d="M53.283 27.258h11.599v43.259H53.283V27.258z" fill="#fff"/></mask><g mask="url(#B)"><path fill-rule="evenodd" d="M64.873 27.666c.044-.225-.088-.408-.296-.408h-2.511c-.208 0-.412.183-.456.408l-8.318 42.442c-.044.226.089.409.297.409h2.511c.208 0 .412-.183.456-.409l8.318-42.442z" fill="#ff2828"/></g><defs ><path id="D" d="M114.196 58.866v-.496c.675 0 1.012-.24 1.012-.72v-5.157c0-.622-.352-.932-1.056-.932v-.519h3.82v.519c-.646 0-.969.311-.969.932v5.157c0 .48.341.72 1.023.72v.496h-3.83z"/></defs></svg>