<svg xmlns="http://www.w3.org/2000/svg" width="56" height="56" fill="none" xmlns:v="https://vecta.io/nano"><path fill="#c4c4c4" fill-opacity=".01" d="M0 0h56v56H0z"/><g clip-path="url(#A)"><path d="M13.333 13.373h29.333v28.533H13.333V13.373z" fill="#210b00"/><path d="M13.333 13.374h29.333v28.534H13.333V13.374zM12 43.241h32v-31.2H12v31.2zm20.96-20.08c0-.107.04-.16.16-.16h2.093c.107 0 .16.04.16.16v10.52c0 .107-.027.16-.16.16h-2.067c-.133 0-.173-.067-.173-.173V23.161h-.013zm-.147-3.027c0-.853.6-1.36 1.36-1.36.813 0 1.36.547 1.36 1.36 0 .88-.573 1.36-1.387 1.36-.773 0-1.333-.48-1.333-1.36zm-6 7.413l-1.587-6.267H25.2c-.28 1.56-.987 4.2-1.547 6.267h3.16zm-3.707 2.16l-1.053 4c-.027.107-.067.133-.2.133h-1.96c-.133 0-.16-.04-.133-.2l3.787-13.253c.067-.24.107-.453.133-1.107 0-.093.04-.133.107-.133h2.8c.093 0 .133.027.16.133l4.24 14.387c.027.107 0 .173-.107.173h-2.213c-.107 0-.173-.027-.2-.12l-1.093-4.013h-4.267z" fill="#ff7f18"/></g><defs><clipPath id="A"><path fill="#fff" transform="translate(12 12)" d="M0 0h32v32H0z"/></clipPath></defs></svg>