<svg xmlns="http://www.w3.org/2000/svg" width="163" height="97" fill="none" xmlns:v="https://vecta.io/nano"><path d="M147 0H16C7.163 0 0 7.163 0 16v65c0 8.837 7.163 16 16 16h131c8.837 0 16-7.163 16-16V16c0-8.837-7.163-16-16-16z" fill="#01cab0"/><path d="M31.934 63.114v1.778h2.143v.561h-2.143v2.187h-.706v-5.087h3.213v.561h-2.507zm5.65 2.638l-.819-2.07-.076-.213-.076-.263a3.81 3.81 0 0 1-.156.479l-.819 2.066h1.947zm1.47 1.889h-.546c-.063 0-.114-.015-.153-.046s-.068-.07-.087-.117l-.487-1.228h-2.34l-.487 1.228a.25.25 0 0 1-.084.114c-.041.033-.092.05-.153.05h-.546l2.085-5.087h.713l2.085 5.087zm1.282-.001h-.706v-5.087h.706v5.087zm4.75-4.508h-1.688v4.508h-.702v-4.508h-1.692v-.579h4.082v.579zm4.889-.579v5.087h-.706v-2.315h-2.812v2.315h-.706v-5.087h.706v2.268h2.812v-2.268h.706zm9.248 2.545c0 .381-.062.728-.186 1.04a2.3 2.3 0 0 1-.524.802 2.35 2.35 0 0 1-.815.518 2.91 2.91 0 0 1-1.048.181h-1.947v-5.087h1.947a2.86 2.86 0 0 1 1.048.185 2.29 2.29 0 0 1 .815.518 2.3 2.3 0 0 1 .524.802c.124.312.186.659.186 1.04zm-.724 0c0-.312-.044-.592-.131-.838a1.76 1.76 0 0 0-.371-.625c-.16-.171-.354-.301-.582-.391s-.483-.135-.764-.135H55.41v3.972h1.241c.281 0 .536-.045.764-.135s.422-.219.582-.387.284-.379.371-.625.131-.525.131-.838zm3.076-.081c.204 0 .383-.024.538-.071s.289-.118.393-.206.187-.196.24-.32.08-.259.08-.408c0-.303-.101-.531-.305-.685s-.51-.231-.917-.231h-.771v1.921h.742zm2.408 2.623h-.625c-.129 0-.224-.049-.284-.145l-1.354-1.818c-.041-.057-.086-.097-.134-.121s-.119-.039-.219-.039h-.534v2.123h-.703v-5.087h1.474a3.25 3.25 0 0 1 .855.099 1.61 1.61 0 0 1 .593.28 1.12 1.12 0 0 1 .349.447 1.45 1.45 0 0 1 .113.582c0 .18-.029.348-.087.504s-.143.297-.255.422-.244.228-.404.316a1.99 1.99 0 0 1-.538.199c.089.05.167.122.233.217l1.52 2.02zm1.306 0h-.706v-5.087h.706v5.087zm5.463-5.087l-2.124 5.087h-.633l-2.125-5.087h.564a.24.24 0 0 1 .153.046.3.3 0 0 1 .087.117l1.47 3.589.091.263.083.298.077-.298a2.77 2.77 0 0 1 .087-.263l1.466-3.589a.26.26 0 0 1 .084-.11c.044-.035.096-.053.157-.053h.563zm3.794 4.526l-.004.561h-3.213v-5.087h3.213v.561h-2.507v1.69h2.03v.54h-2.03v1.736h2.511zm5.098-4.526v5.087h-.353a.32.32 0 0 1-.142-.028.36.36 0 0 1-.109-.096l-3.016-3.834.011.174.003.16v3.624h-.618v-5.087h.364a.37.37 0 0 1 .08.007.15.15 0 0 1 .058.018c.017.007.034.019.051.035s.035.033.054.057l3.017 3.83-.015-.178-.004-.167v-3.603h.619zm8.034.579H85.99v4.508h-.702v-4.508h-1.692v-.579h4.082v.579zm3.881 3.947l-.003.561h-3.213v-5.087h3.213v.561h-2.507v1.69h2.03v.54h-2.03v1.736h2.51zm4.421-.489c.039 0 .073.015.102.046l.28.295a2.22 2.22 0 0 1-.778.564c-.304.135-.671.202-1.103.202-.373 0-.713-.063-1.019-.188a2.28 2.28 0 0 1-.782-.532c-.216-.23-.383-.504-.502-.824A3 3 0 0 1 92 65.099a2.91 2.91 0 0 1 .185-1.054 2.41 2.41 0 0 1 .521-.824c.225-.23.494-.407.807-.532a2.72 2.72 0 0 1 1.037-.192c.371 0 .699.058.983.174a2.49 2.49 0 0 1 .749.472l-.233.316c-.014.024-.034.044-.058.06s-.052.021-.091.021c-.044 0-.097-.022-.16-.067a2.3 2.3 0 0 0-.247-.156 1.9 1.9 0 0 0-.382-.153c-.153-.047-.341-.071-.564-.071a1.92 1.92 0 0 0-.739.138 1.62 1.62 0 0 0-.579.394 1.82 1.82 0 0 0-.374.632 2.46 2.46 0 0 0-.135.841c0 .317.046.6.138.849a1.88 1.88 0 0 0 .382.632 1.65 1.65 0 0 0 .572.39c.22.09.458.135.713.135a3.1 3.1 0 0 0 .418-.025 1.82 1.82 0 0 0 .346-.085 1.47 1.47 0 0 0 .295-.142c.092-.059.183-.129.272-.21.042-.035.083-.053.124-.053zm5.316-4.037v5.087h-.706v-2.315h-2.813v2.315h-.706v-5.087h.706v2.268h2.813v-2.268h.706zm5.447 0v5.087h-.352c-.056 0-.104-.009-.142-.028s-.073-.051-.11-.096l-3.016-3.834.011.174.004.16v3.624h-.619v-5.087h.364c.032 0 .058.002.08.007a.15.15 0 0 1 .058.018c.017.007.034.019.051.035s.036.033.055.057l3.016 3.83-.014-.178-.004-.167v-3.603h.618zm6.041 2.546a2.88 2.88 0 0 1-.185 1.051 2.39 2.39 0 0 1-.524.82c-.226.229-.497.408-.815.536a2.81 2.81 0 0 1-1.048.188c-.383 0-.732-.063-1.048-.188a2.31 2.31 0 0 1-.811-.536c-.225-.23-.4-.503-.524-.82a2.88 2.88 0 0 1-.186-1.051 2.85 2.85 0 0 1 .186-1.047 2.42 2.42 0 0 1 .524-.824 2.34 2.34 0 0 1 .811-.54 2.77 2.77 0 0 1 1.048-.192c.383 0 .733.064 1.048.192a2.34 2.34 0 0 1 .815.54 2.39 2.39 0 0 1 .524.824c.124.32.185.666.185 1.047zm-.724 0a2.51 2.51 0 0 0-.131-.841 1.74 1.74 0 0 0-.371-.628 1.6 1.6 0 0 0-.582-.398 2.02 2.02 0 0 0-.764-.138c-.279 0-.532.046-.76.138a1.63 1.63 0 0 0-.586.398c-.16.17-.284.38-.371.628a2.51 2.51 0 0 0-.131.841 2.51 2.51 0 0 0 .131.841 1.79 1.79 0 0 0 .371.628c.162.17.358.302.586.394s.481.135.76.135.536-.045.764-.135a1.62 1.62 0 0 0 .582-.394 1.79 1.79 0 0 0 .371-.628 2.51 2.51 0 0 0 .131-.841zm4.583 1.963v.579h-2.958v-5.087h.702v4.508h2.256zm5.247-1.963a2.88 2.88 0 0 1-.186 1.051 2.39 2.39 0 0 1-.524.82c-.226.229-.497.408-.815.536a2.81 2.81 0 0 1-1.048.188c-.383 0-.732-.063-1.048-.188a2.32 2.32 0 0 1-.811-.536 2.4 2.4 0 0 1-.524-.82 2.88 2.88 0 0 1-.186-1.051 2.85 2.85 0 0 1 .186-1.047 2.42 2.42 0 0 1 .524-.824 2.35 2.35 0 0 1 .811-.54 2.77 2.77 0 0 1 1.048-.192c.383 0 .733.064 1.048.192a2.34 2.34 0 0 1 .815.54 2.39 2.39 0 0 1 .524.824c.124.32.186.666.186 1.047zm-.725 0a2.51 2.51 0 0 0-.131-.841 1.74 1.74 0 0 0-.371-.628 1.6 1.6 0 0 0-.582-.398c-.228-.092-.482-.138-.764-.138s-.532.046-.76.138a1.63 1.63 0 0 0-.586.398c-.16.17-.284.38-.371.628s-.131.529-.131.841.044.593.131.841a1.79 1.79 0 0 0 .371.628c.162.17.358.302.586.394s.481.135.76.135.536-.045.764-.135a1.62 1.62 0 0 0 .582-.394 1.79 1.79 0 0 0 .371-.628 2.51 2.51 0 0 0 .131-.841zm5.86.096v1.952c-.262.185-.542.323-.84.415a3.34 3.34 0 0 1-.975.135c-.42 0-.798-.063-1.135-.188s-.626-.305-.866-.532a2.35 2.35 0 0 1-.55-.824 2.81 2.81 0 0 1-.193-1.054 2.91 2.91 0 0 1 .186-1.061c.126-.319.304-.593.535-.82s.51-.407.84-.532.699-.188 1.106-.188c.207 0 .398.015.575.046a2.69 2.69 0 0 1 .491.128c.15.057.29.122.419.202s.248.167.36.266l-.2.312c-.032.047-.073.078-.124.092s-.103 0-.164-.035l-.2-.121a1.64 1.64 0 0 0-.276-.135 2.09 2.09 0 0 0-.382-.114 2.55 2.55 0 0 0-.52-.046c-.294 0-.56.047-.797.142s-.441.226-.608.401a1.77 1.77 0 0 0-.386.632 2.43 2.43 0 0 0-.134.831c0 .319.046.606.138.859a1.85 1.85 0 0 0 .4.642c.175.175.386.309.633.401a2.38 2.38 0 0 0 .834.138c.242 0 .457-.026.644-.078a2.8 2.8 0 0 0 .553-.224V65.72h-.812c-.046 0-.083-.013-.113-.039s-.04-.058-.04-.096v-.39h1.601zm2.808.418v2.027h-.706v-2.027l-1.91-3.06h.619c.063 0 .112.015.149.046a.37.37 0 0 1 .094.114l1.194 1.977.12.234a1.98 1.98 0 0 1 .095.217c.026-.073.057-.145.09-.217l.113-.234 1.19-1.977a.39.39 0 0 1 .091-.11c.039-.033.089-.05.149-.05h.622l-1.91 3.06zm-99.27-8.162V29.8h3.868v27.651h-3.868zm24.405-7.859l-9.175-10.083V57.43h-3.868V29.301l13.003 13.804 13.145-13.804V57.45h-3.868V39.53l-9.236 10.062zm34.391-19.75L102.017 57.7h-4.415l-2.997-6.965s-5.064.042-8.487 1.331c-3.828 1.455-7.372 5.634-7.372 5.634h-4.273l12.962-27.858h1.924zm3.524 17.276l-4.76-9.563-5.468 12.328c1.073-.624 1.357-.894 3.322-1.684 1.944-.769 6.906-1.081 6.906-1.081zm18.187-17.276l17.377 21.206V29.905h3.99v27.796h-3.909l-15.514-19.355v19.355h-3.868V29.842h1.924z" fill="#fff"/></svg>