<svg xmlns="http://www.w3.org/2000/svg" width="300" height="64.379" viewBox="0 0 300 64.379" fill="none"><path d="M2.281 56.696v2.982h3.563v.941H2.281v3.667H1.107v-8.53h5.341v.942zm9.395 4.422-1.362-3.47a7 7 0 0 1-.253-.797q-.128.482-.261.803l-1.361 3.464zm2.444 3.167h-.908a.4.4 0 0 1-.253-.077.5.5 0 0 1-.145-.196l-.811-2.06H8.111l-.811 2.06a.4.4 0 0 1-.14.191.4.4 0 0 1-.253.082H6l3.466-8.53h1.187zm2.133-.001h-1.174v-8.53h1.174zm7.899-7.559h-2.807v7.559h-1.169v-7.56h-2.814v-.97h6.79zm8.13-.97v8.529h-1.174v-3.881H26.43v3.881h-1.171v-8.53h1.174v3.804h4.678v-3.803zm15.379 4.268q0 .957-.309 1.743-.308.786-.871 1.345-.563.56-1.355.869a4.8 4.8 0 0 1-1.742.304h-3.238v-8.53h3.238q.956 0 1.742.31.792.305 1.355.869.563.56.871 1.346.309.785.309 1.743m-1.204 0q0-.787-.217-1.405a2.9 2.9 0 0 0-.618-1.048 2.6 2.6 0 0 0-.968-.654 3.4 3.4 0 0 0-1.271-.226h-2.062v6.659h2.062q.703 0 1.271-.225.568-.226.968-.649.4-.429.618-1.047t.217-1.405m5.116-.137q.508 0 .895-.119.392-.125.654-.345.266-.226.399-.536t.133-.684q0-.762-.508-1.149t-1.525-.387h-1.283v3.22zm4.006 4.399h-1.041q-.32 0-.473-.244l-2.25-3.048a.6.6 0 0 0-.223-.201q-.115-.066-.363-.066h-.889v3.56h-1.168v-8.53h2.45q.823 0 1.421.167.6.161.986.471.394.309.581.749.188.436.188.976 0 .453-.146.846-.145.392-.422.708-.274.309-.672.53-.394.22-.895.333.223.125.386.363zm2.171 0h-1.173v-8.53h1.174zm9.086-8.529-3.534 8.529h-1.053l-3.534-8.53h.939q.157 0 .253.078a.5.5 0 0 1 .146.196l2.444 6.017q.078.202.151.441.078.238.139.5.06-.263.128-.5.066-.238.145-.441l2.438-6.017a.4.4 0 0 1 .139-.184.4.4 0 0 1 .262-.091zm6.307 7.589-.006.941h-5.342v-8.53h5.342v.942h-4.169v2.833h3.376v.905h-3.376v2.91zm8.479-7.589v8.529h-.586a.5.5 0 0 1-.236-.047.6.6 0 0 1-.181-.161l-5.017-6.428a7 7 0 0 1 .024.559v6.076h-1.027v-8.528h.605a.6.6 0 0 1 .23.041.3.3 0 0 1 .084.06 1 1 0 0 1 .091.095l5.017 6.423-.024-.298a7 7 0 0 1-.006-.28v-6.042zm13.362.97h-2.808v7.559h-1.168v-7.56h-2.814v-.97h6.789zm6.454 6.619-.006.941h-5.343v-8.53h5.343v.942h-4.17v2.833h3.377v.905h-3.377v2.91zm7.351-.821q.098 0 .17.076l.466.494a3.7 3.7 0 0 1-1.295.947q-.756.34-1.834.34a4.4 4.4 0 0 1-1.694-.316 3.8 3.8 0 0 1-1.301-.893 4 4 0 0 1-.835-1.38 5 5 0 0 1-.297-1.768q0-.965.309-1.767.308-.804.865-1.381a3.9 3.9 0 0 1 1.343-.892 4.5 4.5 0 0 1 1.724-.322q.925 0 1.634.292t1.247.792l-.387.53a.4.4 0 0 1-.098.101.27.27 0 0 1-.151.036q-.109 0-.267-.114a3.1 3.1 0 0 0-1.046-.518 3.2 3.2 0 0 0-.939-.119q-.672 0-1.228.231-.556.226-.962.662a3.1 3.1 0 0 0-.624 1.059 4.2 4.2 0 0 0-.223 1.41q0 .798.229 1.423.236.625.636 1.059.405.428.95.654.55.226 1.186.227.387 0 .696-.042.315-.047.574-.143a2.4 2.4 0 0 0 .491-.238q.229-.149.454-.351a.3.3 0 0 1 .205-.09m8.842-6.767v8.529h-1.174v-3.881h-4.678v3.881h-1.174v-8.53h1.174v3.804h4.678v-3.803zm9.06 0v8.529h-.587a.5.5 0 0 1-.236-.047.6.6 0 0 1-.181-.161l-5.016-6.428a8 8 0 0 1 .024.559v6.076h-1.029v-8.528h.606a.6.6 0 0 1 .229.041.3.3 0 0 1 .084.06 1 1 0 0 1 .092.095l5.016 6.423-.024-.298a7 7 0 0 1-.006-.28v-6.042zm10.046 4.268q0 .958-.309 1.76a4 4 0 0 1-.871 1.376 3.9 3.9 0 0 1-1.356.898 4.6 4.6 0 0 1-1.742.316 4.6 4.6 0 0 1-1.742-.316 3.9 3.9 0 0 1-1.35-.898 4 4 0 0 1-.871-1.375 4.9 4.9 0 0 1-.309-1.762q0-.959.309-1.755.309-.804.871-1.381.563-.583 1.35-.905a4.5 4.5 0 0 1 1.742-.321q.956 0 1.742.322a3.9 3.9 0 0 1 1.356.904q.562.577.871 1.381a4.8 4.8 0 0 1 .309 1.755m-1.204 0q0-.787-.218-1.411a2.9 2.9 0 0 0-.618-1.053 2.6 2.6 0 0 0-.968-.667 3.3 3.3 0 0 0-1.27-.231q-.696 0-1.264.231-.568.232-.975.667a2.9 2.9 0 0 0-.617 1.053 4.2 4.2 0 0 0-.218 1.41q0 .786.218 1.411.217.619.617 1.053.406.429.975.661.568.226 1.264.226.701 0 1.27-.226.569-.232.968-.661.4-.435.618-1.053.217-.626.218-1.411m7.621 3.292v.971h-4.919v-8.53h1.168v7.559zm8.724-3.29q0 .958-.309 1.76a4 4 0 0 1-.871 1.376q-.563.576-1.355.898a4.6 4.6 0 0 1-1.742.316 4.6 4.6 0 0 1-1.743-.316 3.9 3.9 0 0 1-1.349-.898 4 4 0 0 1-.871-1.375 4.8 4.8 0 0 1-.309-1.762q0-.959.309-1.755a4 4 0 0 1 .871-1.381q.563-.583 1.349-.905a4.5 4.5 0 0 1 1.743-.321q.956 0 1.742.322.792.321 1.355.904.563.577.871 1.381a4.8 4.8 0 0 1 .309 1.755m-1.204 0q0-.787-.217-1.411a2.9 2.9 0 0 0-.618-1.053 2.6 2.6 0 0 0-.968-.667 3.3 3.3 0 0 0-1.27-.231q-.697 0-1.265.231a2.7 2.7 0 0 0-.974.667 2.9 2.9 0 0 0-.618 1.053 4.3 4.3 0 0 0-.217 1.41q0 .786.217 1.411a3 3 0 0 0 .618 1.053q.406.429.974.661.568.226 1.265.226.701 0 1.27-.226.569-.232.968-.661a3 3 0 0 0 .618-1.053q.217-.626.217-1.411m9.746.162v3.274a5 5 0 0 1-1.398.696 5.5 5.5 0 0 1-1.622.226q-1.046 0-1.887-.316a4.2 4.2 0 0 1-1.44-.893 3.9 3.9 0 0 1-.913-1.38 4.7 4.7 0 0 1-.321-1.768q0-.976.309-1.779.314-.803.889-1.375a3.9 3.9 0 0 1 1.397-.892 5.1 5.1 0 0 1 1.84-.316 5.5 5.5 0 0 1 .956.077 4.1 4.1 0 0 1 1.513.553q.321.196.6.447l-.333.523a.35.35 0 0 1-.206.156q-.121.03-.272-.06a8 8 0 0 1-.333-.201 2.7 2.7 0 0 0-.46-.227 3.4 3.4 0 0 0-.636-.19 4 4 0 0 0-.865-.077q-.732 0-1.325.238a2.8 2.8 0 0 0-1.011.672q-.417.435-.641 1.06-.224.619-.224 1.392 0 .805.23 1.44.235.631.665 1.077.436.441 1.053.673.617.231 1.385.231.606 0 1.071-.131a5 5 0 0 0 .919-.374v-1.875h-1.349a.27.27 0 0 1-.188-.065.22.22 0 0 1-.066-.161v-.655zm4.669.702v3.399h-1.174v-3.399l-3.177-5.13h1.029q.157 0 .247.077.091.07.158.19l1.985 3.316q.109.208.199.392.091.179.157.363.067-.184.152-.362.084-.185.187-.393l1.979-3.316a.6.6 0 0 1 .152-.184.36.36 0 0 1 .247-.083h1.035zM0 47.198V.836h6.433v46.363zm40.586-13.176L25.328 17.116v30.048h-6.434V0l21.624 23.146L62.377 0v47.199h-6.433V17.151zM97.777.906l21.051 46.711h-7.342l-4.985-11.678s-8.42.07-14.113 2.231c-6.365 2.44-12.259 9.447-12.259 9.447h-7.107L94.578.906zm5.86 28.968-7.914-16.035-9.093 20.672c1.784-1.046 2.255-1.499 5.522-2.824 3.234-1.291 11.486-1.813 11.486-1.813M133.885.906l28.899 35.556V1.011h6.635v46.606h-6.5l-25.801-32.453v32.453h-6.433V.906z" fill="#01CAB0"/></svg>