<svg xmlns="http://www.w3.org/2000/svg" width="56" height="56" fill="none" xmlns:v="https://vecta.io/nano"><path d="M22.932 21.401a9.33 9.33 0 0 0-4.779-2.555c-1.811-.36-3.687-.176-5.393.531s-3.163 1.903-4.189 3.438S6.998 26.154 6.998 28s.547 3.651 1.573 5.186 2.484 2.731 4.189 3.438 3.582.891 5.393.531a9.33 9.33 0 0 0 4.779-2.555A23.33 23.33 0 0 0 28 28c1.28-2.485 2.997-4.721 5.068-6.599 1.305-1.306 2.968-2.195 4.779-2.555s3.687-.176 5.393.531 3.163 1.903 4.189 3.438 1.573 3.34 1.573 5.186-.547 3.651-1.573 5.186-2.483 2.731-4.189 3.438-3.582.891-5.393.531-3.474-1.249-4.779-2.555C30.997 32.72 29.28 30.485 28 28a23.33 23.33 0 0 0-5.068-6.599" stroke="#1b5bf7" stroke-width="3.5" stroke-linecap="round" stroke-linejoin="round"/></svg>