<svg xmlns="http://www.w3.org/2000/svg" width="24" height="24" fill="none" xmlns:v="https://vecta.io/nano"><g clip-path="url(#A)"><path d="M24 7.968v13.956c0 .55-.218 1.077-.606 1.466s-.915.609-1.464.61H2.07c-.538.002-1.056-.207-1.443-.581S.016 22.534 0 21.996V2.076A2.05 2.05 0 0 1 .599.603 2.05 2.05 0 0 1 2.07 0h19.752c.566.009 1.107.234 1.512.629s.643.93.666 1.495v5.844z" fill="#ed4969"/><path d="M16.74 8.448c1.332 0 2.382.912 2.382 2.778 0 .456-.072.984-.21 1.548l-.666 2.394c-.072.282-.138.456-.138.666 0 .39.21.672.456.672.312 0 .732-.282 1.188-1.548l.912.312c-.522 1.938-1.542 2.748-2.772 2.748-1.47 0-2.136-.882-2.136-2.076 0-.318.066-.672.138-1.056l.666-2.46c.072-.288.144-.534.144-.744 0-.81-.456-1.26-1.26-1.26-.99 0-1.656.732-2.004 2.07l-1.332 5.382h-2.28l.384-1.722c-.666 1.128-1.65 1.86-2.844 1.86-1.404 0-2.07-.804-2.07-2.07 0-.318.072-.738.138-1.056l1.056-4.398h-1.65l.456-1.866H9.3L7.722 14.88c-.144.384-.144.738-.144.984 0 .39.21.528.528.6h.138c.39 0 1.65-.21 2.388-1.8l1.05-4.182H9.966l.528-1.866h3.576l-.456 2.148c.6-1.2 1.86-2.322 3.12-2.322l.006.006zM8.346 7.32c-.81 0-1.404-.6-1.404-1.41a1.41 1.41 0 0 1 1.404-1.404c.804 0 1.404.6 1.404 1.404.066.81-.6 1.41-1.404 1.41z" fill="#fff"/></g><defs><clipPath id="A"><path fill="#fff" d="M0 0h24v24H0z"/></clipPath></defs></svg>