<svg xmlns="http://www.w3.org/2000/svg" width="56" height="56" fill="none" xmlns:v="https://vecta.io/nano"><path fill="#c4c4c4" fill-opacity=".01" d="M0 0h56v56H0z"/><g stroke="#1b5bf7" stroke-width="3.5" stroke-linejoin="round"><path d="M21 16.333c-7 0-9.333 7-9.333 12.833 0 7 4.667 17.5 9.333 17.5 2.539-.107 3.918-1.167 7-1.167 3.061 0 3.5 1.167 7 1.167s9.333-7 9.333-11.667c-.065-.023-5.768-.94-5.833-7-.044-5.063 5.637-6.893 5.833-7-2.387-3.481-6.886-4.58-8.167-4.667-3.344-.259-6.603 2.333-8.167 2.333-1.587 0-4.433-2.333-7-2.333z"/><path d="M28 9.333c1.238 0 2.425-.492 3.3-1.367s1.367-2.062 1.367-3.3c-1.238 0-2.425.492-3.3 1.367S28 8.096 28 9.333" stroke-linecap="round"/></g></svg>