<svg xmlns="http://www.w3.org/2000/svg" width="24" height="24" fill="none" xmlns:v="https://vecta.io/nano"><path d="M16.934 3.09c-.44.174-1.173.662-2.042 1.37l.801 1.007c.56-.537 1.136-1.018 1.712-1.429l.068-.049c-.021.017-.047.031-.068.049-.188.136-.754.575-1.607 1.45l3.115-.258c.309-1.143-.299-1.666-.299-1.666s-.775-.833-1.681-.474z" fill="url(#A)"/><g fill="#1b5bf7"><use href="#J"/><use href="#J" opacity=".35"/><use href="#K"/><use href="#K" opacity=".35"/></g><path d="M13.324 8.067l.738-.889.785-.871.047-.049.791-.795-.801-1.004-.183.15-.717.617-.853.784-.812.798-.691.725-.026.028 1.042 1.37.681-.864z" fill="url(#B)"/><path d="M8.577 15.794l-.414.774-.063.122-.361.701c.309.094.555.338.785.617-.026-.289-.204-.561-.545-.77 1.513.045 2.822-.209 3.492-.948l.168-.209c-.309.258-.686.369-1.403.342h-.005.005c1.052-.314 1.581-.617 2.047-1.115l.33-.39c-.921.631-1.99.809-3.115.673l-.843.063-.079.143z" fill="url(#C)"/><path d="M8.969 14.536l.56-.951.566-.924.592-.931.628-.944.644-.927.241-.331.419-.565c.005-.01.016-.021.021-.031l-1.031-1.366c-.016.017-.031.038-.052.056l-.723.809-.707.85-.571.735-.11.15-.618.903-.555.938-.293.565-.209.463c-.157.363-.288.725-.398 1.087l1.047 1.377.424-.749.126-.213z" fill="url(#D)"/><path d="M7.356 14.17c-.131.439-.225.878-.272 1.317 0 .014-.005.031-.005.045-.325-.348-1.204-.69-1.199-.687.628.607 1.105 1.206 1.173 1.795-.335.045-.796-.021-1.325-.15.555.338.969.432 1.131.457-.508.021-1.037.254-1.571.523.78-.213 1.414-.296 1.864-.227L5 21.667c.22-.042.351-.143.424-.275l2.309-4.639.115-.213.031-.059.44-.795.105-.185v-.004l-1.047-1.377c-.01.017-.016.031-.021.049z" fill="url(#E)"/><path d="M12.813 9.05l-.089.122-.272.38-.304.429-.157.223-.477.701-.602.924-.592.945-.576.958-.524.906c-.01.014-.016.031-.026.045l-.529.948c-.005.007-.01.014-.01.021l.843-.063c-.016-.004-.031-.004-.052-.007 1.011-.084 2.351-.585 3.215-1.206a6.11 6.11 0 0 0 1.094-1.014c.251-.293.482-.617.707-.979.194-.314.382-.655.56-1.025a4.27 4.27 0 0 1-.791.181l-.157.021-.162.017c.942-.241 1.534-.704 1.963-1.276a4.43 4.43 0 0 1-1.131.331l-.199.024c-.016 0-.031.003-.052.003.325-.091.602-.192.843-.314a1.66 1.66 0 0 0 .147-.08l.209-.132.126-.091c.094-.073.183-.153.262-.241l.073-.08.089-.119.319-.471.11-.192c.01-.024.026-.045.037-.07l.084-.178c.031-.077.052-.139.063-.185-.031.017-.068.035-.11.049-.283.112-.77.216-1.162.265l.775-.056-.775.056-.136.017c.005-.003.016-.003.021-.007l-2.649.192c.005.014 0 .021-.005.024z" fill="url(#F)"/><path d="M15.797 5.488l-.77.823c-.016.017-.031.031-.042.049l-.759.885-.723.899-.676.889 2.649-.192c.77-.237 1.115-.45 1.45-.76l.267-.268a10.26 10.26 0 0 0 .775-.903c.23-.3.435-.596.586-.861.099-.171.178-.328.236-.467a3.83 3.83 0 0 0 .115-.349l-3.11.254z" fill="url(#G)"/><g fill="#1b5bf7"><use href="#L"/><use href="#L" opacity=".35"/></g><use href="#L" fill="url(#H)"/><g fill="#1b5bf7"><use href="#M"/><use href="#M" opacity=".35"/></g><use href="#M" fill="url(#I)"/><path fill="#c4c4c4" fill-opacity=".01" d="M0 0h24v24H0z"/><defs><linearGradient id="A" x1="15.575" y1="4.581" x2="20.961" y2="2.332" href="#N"><stop stop-color="#f69923"/><stop offset=".312" stop-color="#f79a23"/><stop offset=".838" stop-color="#e97826"/></linearGradient><linearGradient id="B" x1="2.722" y1="22.121" x2="8.598" y2="3.191" href="#N"><stop offset=".323" stop-color="#9e2064"/><stop offset=".63" stop-color="#c92037"/><stop offset=".751" stop-color="#cd2335"/><stop offset="1" stop-color="#e97826"/></linearGradient><linearGradient id="C" x1="6.734" y1="20.861" x2="10.235" y2="9.58" href="#N"><stop stop-color="#282662"/><stop offset=".095" stop-color="#662e8d"/><stop offset=".788" stop-color="#9f2064"/><stop offset=".949" stop-color="#cd2032"/></linearGradient><linearGradient id="D" x1="3.155" y1="21.09" x2="9.031" y2="2.16" href="#N"><stop offset=".323" stop-color="#9e2064"/><stop offset=".63" stop-color="#c92037"/><stop offset=".751" stop-color="#cd2335"/><stop offset="1" stop-color="#e97826"/></linearGradient><linearGradient id="E" x1="4.373" y1="19.954" x2="7.46" y2="10.006" href="#N"><stop stop-color="#282662"/><stop offset=".095" stop-color="#662e8d"/><stop offset=".788" stop-color="#9f2064"/><stop offset=".949" stop-color="#cd2032"/></linearGradient><linearGradient id="F" x1="5.806" y1="21.913" x2="11.682" y2="2.983" href="#N"><stop offset=".323" stop-color="#9e2064"/><stop offset=".63" stop-color="#c92037"/><stop offset=".751" stop-color="#cd2335"/><stop offset="1" stop-color="#e97826"/></linearGradient><linearGradient id="G" x1="4.934" y1="22.929" x2="10.809" y2="3.999" href="#N"><stop offset=".323" stop-color="#9e2064"/><stop offset=".63" stop-color="#c92037"/><stop offset=".751" stop-color="#cd2335"/><stop offset="1" stop-color="#e97826"/></linearGradient><linearGradient id="H" x1="6.605" y1="22.157" x2="12.488" y2="3.232" href="#N"><stop offset=".323" stop-color="#9e2064"/><stop offset=".63" stop-color="#c92037"/><stop offset=".751" stop-color="#cd2335"/><stop offset="1" stop-color="#e97826"/></linearGradient><linearGradient id="I" x1="6.516" y1="22.128" x2="12.398" y2="3.205" href="#N"><stop offset=".323" stop-color="#9e2064"/><stop offset=".63" stop-color="#c92037"/><stop offset=".751" stop-color="#cd2335"/><stop offset="1" stop-color="#e97826"/></linearGradient><path id="J" d="M14.236 11.545l-.314.035.162-.018.152-.017z"/><path id="K" d="M14.509 10.664c.016 0 .031-.004.047-.004l.199-.024-.246.028z"/><path id="L" d="M14.084 11.566l-.162.017.162-.017z"/><path id="M" d="M14.503 10.663c.016 0 .031-.003.052-.003-.016 0-.031.003-.052.003z"/><linearGradient id="N" gradientUnits="userSpaceOnUse"/></defs></svg>