<svg xmlns="http://www.w3.org/2000/svg" width="35" height="35" fill="#1b5bf7" xmlns:v="https://vecta.io/nano"><path d="M16.566 23.78a1.5 1.5 0 0 0 1.868-.001l9.8-7.801.91-.72a1.5 1.5 0 0 0 .003-2.35L18.434 4.388a1.5 1.5 0 0 0-1.867 0L5.85 12.911a1.5 1.5 0 0 0-.001 2.347l.903.72 9.814 7.802z"/><path opacity=".3" fill-rule="evenodd" d="M18.418 27.568a1.5 1.5 0 0 1-1.867 0l-8.767-6.97a1.32 1.32 0 0 0-1.625 2.084l10.426 7.975a1.5 1.5 0 0 0 1.822 0l10.422-7.968a1.33 1.33 0 1 0-1.637-2.1l-8.774 6.978z"/></svg>