<svg xmlns="http://www.w3.org/2000/svg" width="48" height="48" fill="#f50000" xmlns:v="https://vecta.io/nano"><circle opacity=".2" cx="24" cy="24" r="24"/><path d="M26.504 22.36a2.24 2.24 0 0 0-.99-.954c-.42-.228-.918-.342-1.494-.342-.996 0-1.794.33-2.394.99-.6.648-.9 1.518-.9 2.61 0 1.164.312 2.076.936 2.736.636.648 1.506.972 2.61.972.756 0 1.392-.192 1.908-.576.528-.384.912-.936 1.152-1.656h-3.906v-2.268h6.696v2.862c-.228.768-.618 1.482-1.17 2.142-.54.66-1.23 1.194-2.07 1.602s-1.788.612-2.844.612c-1.248 0-2.364-.27-3.348-.81-.972-.552-1.734-1.314-2.286-2.286-.54-.972-.81-2.082-.81-3.33s.27-2.358.81-3.33c.552-.984 1.314-1.746 2.286-2.286.972-.552 2.082-.828 3.33-.828 1.512 0 2.784.366 3.816 1.098 1.044.732 1.734 1.746 2.07 3.042h-3.402z"/></svg>