<svg xmlns="http://www.w3.org/2000/svg" width="48" height="48" fill="none" xmlns:v="https://vecta.io/nano"><circle cx="24" cy="24" r="24" fill="#f4f7ff"/><path d="M24.688 31.126c-.924 0-1.752-.15-2.484-.45s-1.32-.744-1.764-1.332c-.432-.588-.66-1.296-.684-2.124h3.276c.048.468.21.828.486 1.08.276.24.636.36 1.08.36.456 0 .816-.102 1.08-.306.264-.216.396-.51.396-.882 0-.312-.108-.57-.324-.774-.204-.204-.462-.372-.774-.504-.3-.132-.732-.282-1.296-.45-.816-.252-1.482-.504-1.998-.756s-.96-.624-1.332-1.116-.558-1.134-.558-1.926c0-1.176.426-2.094 1.278-2.754.852-.672 1.962-1.008 3.33-1.008 1.392 0 2.514.336 3.366 1.008.852.66 1.308 1.584 1.368 2.772h-3.33c-.024-.408-.174-.726-.45-.954-.276-.24-.63-.36-1.062-.36-.372 0-.672.102-.9.306-.228.192-.342.474-.342.846 0 .408.192.726.576.954s.984.474 1.8.738c.816.276 1.476.54 1.98.792.516.252.96.618 1.332 1.098s.558 1.098.558 1.854c0 .72-.186 1.374-.558 1.962-.36.588-.888 1.056-1.584 1.404s-1.518.522-2.466.522z" fill="#1b5bf7"/></svg>