<svg xmlns="http://www.w3.org/2000/svg" width="48" height="48" fill="none" xmlns:v="https://vecta.io/nano"><circle cx="24" cy="24" r="24" fill="#ffddd3"/><path d="M23.85 17.364c1.332 0 2.496.264 3.492.792s1.764 1.272 2.304 2.232c.552.948.828 2.046.828 3.294 0 1.236-.276 2.334-.828 3.294-.54.96-1.314 1.704-2.322 2.232-.996.528-2.154.792-3.474.792h-4.734V17.364h4.734zm-.198 9.972c1.164 0 2.07-.318 2.718-.954s.972-1.536.972-2.7-.324-2.07-.972-2.718-1.554-.972-2.718-.972h-1.458v7.344h1.458z" fill="#ff5722"/></svg>