<svg xmlns="http://www.w3.org/2000/svg" width="264.2" height="318" viewBox="-181.1 -67 264.2 318" xmlns:v="https://vecta.io/nano"><linearGradient id="A" gradientUnits="userSpaceOnUse" x1="-55.301" y1="303.415" x2="-124.014" y2="-39.625"><stop offset="0" stop-color="#f9ec1c"/><stop offset="1" stop-color="#f05a2b"/></linearGradient><path d="M-127.3-58.2l-.2-.9-.8.2z" fill="url(#A)"/><linearGradient id="B" gradientUnits="userSpaceOnUse" x1="-103.22" y1="302.85" x2="-171.933" y2="-40.19"><stop offset="0" stop-color="#f9ec1c"/><stop offset="1" stop-color="#f05a2b"/></linearGradient><path d="M-108.3 219.3l-22.4 4.5 4.5 22.5 22.4-4.5z" fill="url(#B)"/><linearGradient id="C" gradientUnits="userSpaceOnUse" x1="40.552" y1="274.051" x2="-28.161" y2="-68.989"><stop offset="0" stop-color="#f9ec1c"/><stop offset="1" stop-color="#f05a2b"/></linearGradient><path d="M-27.8 190l99.1-19.9-4.5-22.4-99.1 19.8z" fill="url(#C)"/><linearGradient id="D" gradientUnits="userSpaceOnUse" x1="-32.917" y1="288.768" x2="-101.63" y2="-54.272"><stop offset="0" stop-color="#f9ec1c"/><stop offset="1" stop-color="#f05a2b"/></linearGradient><path d="M-67.5 174.6L-63 197l22.5-4.5-4.5-22.4z" fill="url(#D)"/><linearGradient id="E" gradientUnits="userSpaceOnUse" x1="-68.069" y1="295.809" x2="-136.782" y2="-47.231"><stop offset="0" stop-color="#f9ec1c"/><stop offset="1" stop-color="#f05a2b"/></linearGradient><path d="M-68.6 234.7l-4.5-22.4-22.5 4.5 4.5 22.4z" fill="url(#E)"/><path d="M-133.3 211.1l22.5-4.5-4.5-22.4-22.5 4.5z" fill="url(#B)"/><path d="M73.8 182.8l-99.1 19.9 4.5 22.4 99.1-19.8z" fill="url(#C)"/><path d="M-60.4 209.7l4.5 22.5 22.4-4.5-4.5-22.5z" fill="url(#D)"/><path d="M-98.1 204.1l22.4-4.5-4.5-22.5-22.4 4.5z" fill="url(#E)"/><linearGradient id="F" gradientUnits="userSpaceOnUse" x1="-111.04" y1="297.486" x2="-176.208" y2="-27.858"><stop offset="0" stop-color="#f9ec1c"/><stop offset="1" stop-color="#f05a2b"/></linearGradient><path d="M-140.3 176l9.5-1.9-36-179.7-9.5 1.9z" fill="url(#F)"/><linearGradient id="G" gradientUnits="userSpaceOnUse" x1="-96.195" y1="303.897" x2="-166.164" y2="-45.41"><stop offset="0" stop-color="#f9ec1c"/><stop offset="1" stop-color="#f05a2b"/></linearGradient><path d="M-127.3 173.4l9.5-1.9-38.6-192.9-9.5 1.9z" fill="url(#G)"/><linearGradient id="H" gradientUnits="userSpaceOnUse" x1="-70.191" y1="318.135" x2="-150.106" y2="-80.827"><stop offset="0" stop-color="#f9ec1c"/><stop offset="1" stop-color="#f05a2b"/></linearGradient><path d="M-105 168.9l9.5-1.9-44.2-220.3-9.5 1.9z" fill="url(#H)"/><linearGradient id="I" gradientUnits="userSpaceOnUse" x1="-59.621" y1="303.207" x2="-132.984" y2="-63.044"><stop offset="0" stop-color="#f9ec1c"/><stop offset="1" stop-color="#f05a2b"/></linearGradient><path d="M-92 166.3l9.5-1.9L-123-37.9l-9.5 1.9z" fill="url(#I)"/><linearGradient id="J" gradientUnits="userSpaceOnUse" x1="-42.646" y1="273.839" x2="-102.726" y2="-26.105"><stop offset="0" stop-color="#f9ec1c"/><stop offset="1" stop-color="#f05a2b"/></linearGradient><path d="M-70 161.9l9.5-1.9L-93.7-5.7l-9.5 1.9z" fill="url(#J)"/><linearGradient id="K" gradientUnits="userSpaceOnUse" x1="-28.742" y1="275.555" x2="-91.125" y2="-35.883"><stop offset="0" stop-color="#f9ec1c"/><stop offset="1" stop-color="#f05a2b"/></linearGradient><path d="M-57 159.3l9.5-1.9-34.4-172-9.5 1.9z" fill="url(#K)"/></svg>