<svg xmlns="http://www.w3.org/2000/svg" width="163" height="98" fill="none" xmlns:v="https://vecta.io/nano"><path d="M0 16C0 7.163 7.163 0 16 0h130.857c8.837 0 16 7.163 16 16v65.714c0 8.837-7.163 16-16 16H16c-8.836 0-16-7.163-16-16V16z" fill="#23384a"/><g fill-rule="evenodd"><path d="M46.925 46.069c-.455.678-.714 1.53-.776 2.557h4.406c.083-.862.372-1.478.869-1.848s1.179-.555 2.048-.555a7.42 7.42 0 0 1 1.102.077c.341.051.641.154.9.308s.465.37.621.647.233.652.233 1.124l.002.102c-.003.402-.138.712-.406.929-.29.236-.683.416-1.179.539s-1.065.216-1.707.277l-.483.05-1.472.196a18.69 18.69 0 0 0-1.971.416c-.652.175-1.231.436-1.738.785a4 4 0 0 0-1.241 1.401c-.321.585-.481 1.33-.481 2.233 0 .821.14 1.53.419 2.125a4.02 4.02 0 0 0 1.164 1.478c.496.39 1.076.678 1.738.862s1.376.277 2.141.277c.993 0 1.965-.144 2.917-.431a5.75 5.75 0 0 0 2.482-1.509c.021.267.057.529.109.785s.119.508.202.755h4.469c-.207-.329-.352-.821-.435-1.479a16.47 16.47 0 0 1-.124-2.064v-8.286c0-.965-.217-1.74-.652-2.325s-.992-1.042-1.675-1.371-1.438-.549-2.265-.662a18.12 18.12 0 0 0-2.451-.169c-.89 0-1.774.087-2.653.262s-1.671.467-2.374.878-1.283.955-1.738 1.633zM18.83 59.652V43.728h4.158v2.156h.062c.579-.821 1.277-1.458 2.095-1.91s1.753-.678 2.808-.678c1.014 0 1.939.195 2.777.585s1.474 1.078 1.908 2.064c.476-.698 1.122-1.314 1.939-1.848s1.784-.801 2.901-.801c.848 0 1.634.103 2.358.308s1.345.534 1.862.986.92 1.042 1.21 1.771.434 1.607.434 2.633v10.657h-4.406v-9.025l-.062-1.509c-.041-.472-.155-.883-.341-1.232a2.06 2.06 0 0 0-.822-.832c-.362-.205-.853-.308-1.474-.308s-1.122.118-1.505.354-.683.544-.9.924a3.68 3.68 0 0 0-.434 1.294 9.85 9.85 0 0 0-.109 1.463v8.871h-4.406V50.72l-.031-1.402c-.021-.462-.109-.888-.264-1.278a1.97 1.97 0 0 0-.776-.939c-.362-.236-.895-.354-1.598-.354-.207 0-.481.046-.822.139s-.672.267-.993.524-.595.626-.822 1.109-.341 1.114-.341 1.894v9.24H18.83zm37.497-7.793a1.98 1.98 0 0 1-.698.385 7.17 7.17 0 0 1-.9.231l-.748.121-.261.033-1.055.154c-.331.062-.657.144-.977.246s-.6.241-.838.416a1.98 1.98 0 0 0-.574.662c-.145.267-.217.606-.217 1.016 0 .39.072.719.217.986s.341.477.589.631a2.5 2.5 0 0 0 .869.323c.331.062.672.092 1.024.092.869 0 1.541-.144 2.017-.431s.828-.631 1.055-1.032.367-.806.419-1.217l.078-.986v-1.633zm6.155-8.132l5.275 7.546-5.771 8.378h4.934l3.351-5.021 3.351 5.021h5.027l-5.927-8.47 5.275-7.454h-4.871l-2.793 4.158-2.824-4.158h-5.027z" fill="#e54c65"/><path d="M133.085 37.66h-4.406v21.992h4.406V54.17l1.707-1.632 4.406 7.115h5.338l-6.734-10.072 6.051-5.852h-5.213l-5.555 5.729V37.66zm-52.024 1.293v4.774h3.228v2.926h-3.228v7.885c0 .739.124 1.232.373 1.478s.744.37 1.489.37l.714-.031a6.23 6.23 0 0 0 .652-.092v3.388c-.373.062-.787.103-1.242.123l-1.334.031c-.683 0-1.329-.046-1.939-.139s-1.149-.272-1.614-.539a2.86 2.86 0 0 1-1.102-1.14c-.269-.493-.403-1.14-.403-1.94v-9.394h-2.669v-2.926h2.669v-4.774h4.406zm4.853 20.699V43.729h4.189v2.957h.063c.206-.493.486-.95.837-1.371s.755-.78 1.211-1.078.941-.529 1.458-.693 1.055-.246 1.614-.246c.289 0 .61.051.962.154v4.066a8.56 8.56 0 0 0-.745-.108c-.29-.031-.569-.046-.838-.046-.807 0-1.489.133-2.048.4s-1.009.631-1.35 1.093-.584 1.001-.729 1.617a8.73 8.73 0 0 0-.217 2.002v7.177h-4.407zm10.43-11.027c.062-1.027.321-1.879.776-2.556a5.26 5.26 0 0 1 1.738-1.633c.703-.411 1.494-.703 2.374-.878s1.763-.262 2.653-.262a18.1 18.1 0 0 1 2.451.169 7.53 7.53 0 0 1 2.265.662 4.45 4.45 0 0 1 1.676 1.371c.434.585.652 1.36.652 2.325v8.286a16.47 16.47 0 0 0 .124 2.064c.082.657.227 1.15.434 1.478h-4.468c-.083-.246-.15-.498-.202-.755s-.088-.519-.109-.785a5.74 5.74 0 0 1-2.482 1.509c-.952.288-1.924.431-2.917.431-.765 0-1.479-.092-2.141-.277s-1.241-.472-1.738-.862a4.02 4.02 0 0 1-1.163-1.479c-.28-.596-.419-1.304-.419-2.125 0-.904.16-1.648.481-2.233s.734-1.052 1.241-1.401 1.086-.611 1.738-.785a18.64 18.64 0 0 1 1.97-.416l1.472-.196.483-.05a11.86 11.86 0 0 0 1.707-.277c.496-.123.889-.303 1.179-.539.267-.218.402-.528.405-.93l-.002-.102c0-.472-.077-.847-.232-1.124s-.362-.493-.621-.647-.559-.257-.9-.308-.708-.077-1.102-.077c-.868 0-1.551.185-2.048.554s-.786.986-.868 1.848h-4.407zm9.48 3.619c.28-.092.512-.221.699-.385v1.633c0 .246-.026.575-.078.986a3.28 3.28 0 0 1-.419 1.217c-.227.4-.579.744-1.055 1.032s-1.148.431-2.017.431c-.352 0-.693-.031-1.024-.092s-.62-.169-.869-.323a1.65 1.65 0 0 1-.589-.631c-.145-.267-.218-.596-.218-.986 0-.411.073-.749.218-1.016a1.97 1.97 0 0 1 .574-.662c.238-.175.517-.313.838-.416a7.98 7.98 0 0 1 .977-.246l1.055-.154.261-.033.748-.121c.32-.062.62-.139.899-.231zm17.501-2.91h4.313c-.062-1.027-.31-1.915-.745-2.664s-.998-1.376-1.691-1.879-1.479-.878-2.358-1.124a10.13 10.13 0 0 0-2.746-.37c-1.304 0-2.462.216-3.476.647s-1.872 1.032-2.575 1.802-1.236 1.684-1.598 2.741-.544 2.202-.544 3.434c0 1.191.197 2.284.59 3.28s.941 1.853 1.645 2.572 1.556 1.278 2.56 1.679 2.105.601 3.304.601c2.131 0 3.879-.554 5.245-1.663s2.192-2.721 2.482-4.836h-4.251c-.145.986-.502 1.771-1.071 2.356s-1.381.878-2.436.878c-.682 0-1.261-.154-1.737-.462s-.854-.703-1.133-1.186a5.41 5.41 0 0 1-.605-1.617 8.6 8.6 0 0 1-.186-1.756c0-.595.062-1.196.186-1.802s.336-1.16.636-1.663.688-.914 1.164-1.232 1.065-.477 1.769-.477c1.882 0 2.968.914 3.258 2.741z" fill="#fff"/></g></svg>