<svg xmlns="http://www.w3.org/2000/svg" width="35" height="35" fill="#1b5bf7" fill-rule="evenodd" xmlns:v="https://vecta.io/nano"><path opacity=".3" d="M7.292 10.208v11.667h20.417V10.208H7.292z"/><path opacity=".3" d="M17.042 21.875a1 1 0 0 0-1 1v4.833h-2.188a.73.73 0 0 0-.729.729.73.73 0 0 0 .729.729h3.182.923 3.187a.73.73 0 0 0 .729-.729.73.73 0 0 0-.729-.729h-2.187v-4.833a1 1 0 0 0-1-1h-.917z"/><path d="M27.344 7.292H7.656c-1.812 0-3.281 1.306-3.281 2.917v11.667c0 1.611 1.469 2.917 3.281 2.917h19.687c1.812 0 3.281-1.306 3.281-2.917V10.208c0-1.611-1.469-2.917-3.281-2.917zM7.292 21.875V10.208h20.417v11.667H7.292z"/></svg>