<svg xmlns="http://www.w3.org/2000/svg" width="163" height="98" fill="none" xmlns:v="https://vecta.io/nano"><g fill="#fde61d"><path d="M146.857 0H16C7.163 0 0 7.163 0 16v65.714c0 8.837 7.163 16 16 16h130.857c8.837 0 16-7.163 16-16V16c0-8.837-7.163-16-16-16z"/><path d="M58.027 22.393h46.803c1.685 0 3.062 1.373 3.062 3.052V72.27c0 1.679-1.377 3.052-3.062 3.052H58.027c-1.684 0-3.063-1.373-3.063-3.052V25.445c0-1.678 1.378-3.052 3.063-3.052z" fill-rule="evenodd"/></g><path fill-rule="evenodd" d="M102.703 48.672c.625 0 1.137.508 1.137 1.128v17.24c0 .62-.547.926-1.137 1.128l-14.054 4.815 1.761-4.815H60.777c-.626 0-1.137-.508-1.137-1.128V49.8c0-.62.511-1.128 1.137-1.128h41.926z" fill="#1c1b19"/><path fill-rule="evenodd" d="M66.421 30.058c0-.239.197-.434.437-.434h4.469c.241 0 .483.19.539.422l1.857 7.656c.056.232.148.232.204 0l1.842-7.656c.056-.232.298-.422.539-.422h4.465c.24 0 .437.195.437.434V43.16c0 .239-.197.434-.437.434h-2.452c-.241 0-.438-.195-.438-.434v-9.787c0-.239-.046-.244-.102-.012l-2.36 9.81c-.056.232-.299.422-.539.422h-2.137c-.241 0-.484-.19-.539-.422l-2.356-9.81c-.056-.232-.102-.227-.102.012v9.787c0 .239-.196.434-.437.434h-2.453c-.24 0-.437-.195-.437-.434V30.058zm16.285-.066c-.128-.202-.035-.367.205-.367h3.639a.83.83 0 0 1 .65.379l2.223 3.955c.117.209.309.209.426 0l2.228-3.956c.117-.209.41-.379.65-.379h3.614c.241 0 .334.165.206.368l-4.649 7.383a1.78 1.78 0 0 0-.231.802v4.984c0 .239-.197.434-.438.434h-3.197c-.24 0-.437-.195-.437-.434v-4.984c0-.239-.105-.599-.232-.802l-4.657-7.384z" fill="#252522"/><path fill-rule="evenodd" d="M61.151 52.048c0-.239.197-.434.438-.434h10.169c.24 0 .437.195.437.434v2.454c0 .239-.197.434-.437.434h-2.831c-.24 0-.437.195-.437.434v9.265c0 .239-.197.434-.437.434h-2.759c-.24 0-.437-.195-.437-.434V55.37c0-.239-.197-.434-.438-.434h-2.83c-.241 0-.438-.195-.438-.434v-2.454zm17.612 7.89c.241 0 .387-.189.325-.419l-1.073-3.998c-.061-.231-.162-.23-.223 0l-1.062 3.998c-.061.231.086.42.326.42h1.707zm1.302 3.329a.6.6 0 0 0-.548-.419h-3.25c-.24 0-.486.189-.546.42l-.356 1.38c-.06.231-.305.42-.546.42h-2.835c-.24 0-.376-.186-.301-.413l4.148-12.629c.074-.227.332-.413.572-.413h3.089c.24 0 .498.186.573.413l4.147 12.629c.074.227-.062.413-.302.413h-2.93a.6.6 0 0 1-.548-.42l-.367-1.381zm4.85-11.275c-.119-.207-.019-.377.222-.377h3.127a.78.78 0 0 1 .632.388l1.691 3.362c.107.213.281.213.386-.002l1.643-3.358a.77.77 0 0 1 .629-.39h3.087c.24 0 .341.17.224.379l-3.233 5.758c-.117.209-.115.548.004.756l3.57 6.185c.12.207.02.377-.22.377H93.47c-.241 0-.53-.172-.643-.383l-1.911-3.557c-.113-.21-.298-.21-.412 0l-1.91 3.557c-.113.211-.403.383-.643.383h-3.183c-.241 0-.34-.17-.22-.377l3.62-6.259a.84.84 0 0 0 .002-.754l-3.255-5.688zm13.507.056c0-.239.197-.434.437-.434h2.766c.241 0 .438.195.438.434v12.587c0 .239-.197.434-.438.434h-2.766c-.24 0-.437-.195-.437-.434V52.048z" fill="#fde61d"/></svg>