<svg xmlns="http://www.w3.org/2000/svg" width="24" height="24" fill="#8cc84b" xmlns:v="https://vecta.io/nano"><path d="M11.011.305a2.04 2.04 0 0 1 1.975 0l9.023 5.047c.566.315.944.939.938 1.584V17.06c.004.672-.411 1.31-1.008 1.618l-8.99 5.023c-.611.346-1.406.32-1.998-.055l-2.697-1.544c-.184-.109-.39-.195-.52-.371.114-.153.319-.172.486-.24.375-.117.72-.307 1.064-.491.087-.059.193-.036.277.016l2.301 1.318c.165.094.331-.03.472-.108l8.827-4.934c.052-.026.096-.067.124-.118s.041-.109.036-.167l.002-10.02c.005-.065-.01-.131-.044-.187s-.085-.1-.145-.126l-8.96-5c-.052-.035-.113-.053-.175-.053a.32.32 0 0 0-.175.053L2.863 6.676a.31.31 0 0 0-.189.31V17.01c-.005.058.008.116.038.166s.073.09.126.115l2.392 1.338c.45.24 1.001.382 1.496.198.216-.08.402-.224.534-.412a1.11 1.11 0 0 0 .201-.644l.003-9.961c-.01-.147.13-.27.275-.255h1.15c.16-.003.27.156.25.304l-.003 10.025c0 .89-.369 1.86-1.2 2.295-1.025.526-2.292.415-3.304-.09l-2.573-1.408c-.599-.307-1.012-.947-1.008-1.62V6.937c-.006-.659.387-1.293.97-1.604l8.99-5.027V.305zm2.617 7.013c1.307-.083 2.706-.05 3.882.589.911.488 1.416 1.514 1.432 2.516-.026.135-.168.21-.298.2-.38 0-.759.005-1.138-.002-.161.006-.255-.141-.275-.282-.109-.48-.373-.954-.828-1.185-.7-.347-1.51-.33-2.274-.322-.556.029-1.155.077-1.627.4-.362.246-.472.742-.343 1.142.122.286.456.379.73.464 1.575.408 3.244.368 4.79.904.64.22 1.265.645 1.484 1.308.286.89.16 1.952-.478 2.666-.518.587-1.272.907-2.025 1.08-1 .221-2.04.227-3.056.129-.955-.108-1.95-.357-2.688-1.002-.63-.542-.94-1.388-.908-2.204.007-.137.145-.234.279-.222h1.145c.153-.01.266.12.274.262.07.457.244.937.646 1.207.776.496 1.75.462 2.639.476.736-.032 1.563-.042 2.163-.524.317-.275.411-.735.326-1.13-.093-.334-.446-.49-.749-.592-1.555-.487-3.243-.31-4.783-.861-.625-.219-1.23-.633-1.47-1.269-.335-.9-.181-2.013.524-2.703.688-.686 1.681-.95 2.626-1.045z"/></svg>