<svg xmlns="http://www.w3.org/2000/svg" width="35" height="35" fill="#1b5bf7" fill-rule="evenodd" xmlns:v="https://vecta.io/nano"><path opacity=".3" d="M11.667 3.646c-1.007 0-1.823.816-1.823 1.823v24.062c0 1.007.816 1.823 1.823 1.823h11.667c1.007 0 1.823-.816 1.823-1.823V5.469c0-1.007-.816-1.823-1.823-1.823H11.667z"/><path d="M11.667 1.458h11.667a4.01 4.01 0 0 1 4.011 4.01v24.062a4.01 4.01 0 0 1-4.011 4.011H11.667a4.01 4.01 0 0 1-4.01-4.011V5.469a4.01 4.01 0 0 1 4.01-4.01zm0 2.188c-1.007 0-1.823.816-1.823 1.823v24.062c0 1.007.816 1.823 1.823 1.823h11.667c1.007 0 1.823-.816 1.823-1.823V5.469c0-1.007-.816-1.823-1.823-1.823H21.7V4.6a1 1 0 0 1-1 1h-6.4a1 1 0 0 1-1-1v-.954h-1.633z"/></svg>