<svg xmlns="http://www.w3.org/2000/svg" width="81" height="80" fill="none" xmlns:v="https://vecta.io/nano"><rect x=".5" width="80" height="80" rx="40" fill="#f4f7ff"/><path fill-rule="evenodd" d="M40.358 43.571l3.673-3.673c1.014-1.014 1.266-2.564.624-3.848l-.208-.416c-.642-1.283-.39-2.833.624-3.848l4.555-4.555c.325-.326.853-.326 1.178 0 .063.063.116.136.156.217l1.84 3.68c1.408 2.815.856 6.215-1.37 8.441l-9.998 9.998c-2.422 2.423-6.006 3.269-9.256 2.185l-4.024-1.341c-.437-.146-.672-.617-.527-1.054.041-.123.11-.234.201-.326l4.419-4.419c1.014-1.015 2.564-1.266 3.848-.624l.416.208c1.283.642 2.833.39 3.848-.624z" fill="#1b5bf7"/></svg>