<svg xmlns="http://www.w3.org/2000/svg" viewBox="0 0 512 512" xmlns:v="https://vecta.io/nano"><path d="M512,512H0V0h512V512z" fill="#00c3ff"/><path d="M512,512H256V0h256V512z" fill="#00aaf0"/><path d="M482,482H30V30h452V482z" fill="#063e8b"/><path d="M482,482H256V30h226V482z" fill="#032e68"/><path d="M256 450.376a44.7 44.7 0 0 1-31.82-13.181L74.805 287.82a44.7 44.7 0 0 1 0-63.64L224.18 74.805a44.7 44.7 0 0 1 63.64 0L437.195 224.18a44.7 44.7 0 0 1 0 63.64L287.82 437.195A44.7 44.7 0 0 1 256 450.376zm0-358.752c-4.007 0-7.773 1.561-10.607 4.394L96.018 245.393A14.9 14.9 0 0 0 91.624 256c0 4.007 1.561 7.773 4.394 10.607l149.375 149.375A14.9 14.9 0 0 0 256 420.376c4.007 0 7.773-1.561 10.607-4.394l149.375-149.375A14.9 14.9 0 0 0 420.376 256c0-4.007-1.561-7.773-4.394-10.607L266.607 96.018c-2.834-2.833-6.6-4.394-10.607-4.394z" fill="#ccefff"/><path d="M437.195 224.18L287.82 74.805A44.7 44.7 0 0 0 256 61.624v30c4.007 0 7.773 1.561 10.607 4.394l149.375 149.375A14.9 14.9 0 0 1 420.376 256c0 4.007-1.561 7.773-4.394 10.607L266.607 415.982A14.9 14.9 0 0 1 256 420.376v30a44.7 44.7 0 0 0 31.82-13.181L437.195 287.82a44.7 44.7 0 0 0 0-63.64z" fill="#ace3fc"/><path d="M309.019 311.6c-19.353 0-33.12-8.8-37.92-12.96l8-13.44c5.12 3.627 16.901 11.04 29.44 11.04 8.127 0 13.76-3.407 13.76-9.28 0-7.21-11.895-9.545-18.4-11.36-5.44-1.493-29.92-4.933-29.92-23.36 0-17.74 15.437-27.68 32.96-27.68 18.394 0 28.213 7.468 32.8 11.52l-8.64 12.96c-4.267-3.2-13.766-9.28-24.32-9.28-7.779 0-12.8 3.323-12.8 9.44 0 7.633 13.385 9.815 16.48 10.56 5.76 1.495 32.48 5.573 32.48 25.28 0 23.293-23.467 26.56-33.92 26.56z" fill="#00aaf0"/><path d="M179.741 310V196.4h48.16c22.043 0 36.16 20.267 36.16 37.76 0 20.618-15.673 37.76-35.36 37.76h-26.88V310h-22.08zm22.08-57.44h25.6c7.745 0 14.24-7.227 14.24-18.4 0-9.6-5.828-18.4-15.2-18.4h-24.64v36.8h0z" fill="#00c3ff"/><path d="M256 210.909v47.219c5.046-6.553 8.062-14.926 8.062-23.968 0-7.893-2.883-16.345-8.062-23.251z" fill="#00aaf0"/></svg>