<svg xmlns="http://www.w3.org/2000/svg" width="24" height="24" fill="none" xmlns:v="https://vecta.io/nano"><path fill-rule="evenodd" d="M3.372 20.34V8.97a8.64 8.64 0 0 1 5.293-7.964A8.64 8.64 0 0 1 18.058 2.8a8.64 8.64 0 0 1 1.987 9.354 8.64 8.64 0 0 1-7.853 5.456c-.321.003-.639-.058-.936-.178a2.44 2.44 0 0 1-1.527-2.243 2.44 2.44 0 0 1 2.421-2.463c.736-.028 1.448-.272 2.046-.702s1.057-1.025 1.32-1.714.316-1.439.156-2.157-.529-1.375-1.06-1.886-1.2-.855-1.924-.988-1.472-.051-2.15.237-1.256.769-1.663 1.383-.624 1.334-.624 2.071v12.588a2.44 2.44 0 0 1-1.315 2.162 2.44 2.44 0 0 1-1.285.271c-.445-.029-.874-.179-1.24-.435a1.69 1.69 0 0 0 .61-.304c.181-.142.33-.319.44-.521a1.69 1.69 0 0 0 .125-1.33 1.69 1.69 0 0 0-.336-.593c-.151-.173-.336-.313-.543-.413a1.69 1.69 0 0 0-1.335-.055zm8.82-3.48a1.69 1.69 0 0 0 1.26-.46 1.69 1.69 0 0 0 .53-1.232 1.69 1.69 0 0 0-.534-1.231 1.69 1.69 0 0 0-1.262-.455 1.69 1.69 0 0 0-1.591 1.689 1.69 1.69 0 0 0 1.591 1.689h.006z" fill="url(#A)"/><defs><linearGradient id="A" x1="12" y1=".33" x2="12" y2="15.15" gradientUnits="userSpaceOnUse"><stop stop-color="#d378e5"/><stop offset="1" stop-color="#7526c2"/></linearGradient></defs></svg>