<svg xmlns="http://www.w3.org/2000/svg" width="24" height="24" fill="none" xmlns:v="https://vecta.io/nano"><path d="M11.88 0c-6.06 0-5.7 2.64-5.7 2.64V5.4H12v.84H3.9S0 5.82 0 11.94c0 6.18 3.42 5.94 3.42 5.94h2.04V15s-.12-3.42 3.36-3.42h5.76s3.24.06 3.24-3.12V3.18c-.06 0 .42-3.18-5.94-3.18zM8.7 1.86c.12 0 .3 0 .42.06s.24.12.36.24.18.24.24.36.06.24.06.42c0 .3-.12.54-.3.72a1.11 1.11 0 0 1-.72.3c-.12 0-.3 0-.42-.06s-.24-.12-.36-.24-.18-.24-.24-.36-.06-.24-.06-.42c0-.3.12-.54.3-.72s.42-.3.72-.3z" fill="#387eb8"/><path d="M12.06 23.94c6.06 0 5.7-2.64 5.7-2.64v-2.76h-5.82v-.84h8.1s3.9.42 3.9-5.7c0-6.18-3.42-5.94-3.42-5.94h-2.04v2.88s.12 3.42-3.36 3.42H9.36s-3.24-.06-3.24 3.12v5.28c.12-.06-.42 3.18 5.94 3.18zm3.18-1.86c-.12 0-.3 0-.42-.06s-.24-.12-.36-.24-.18-.24-.24-.36-.06-.24-.06-.42c0-.3.12-.54.3-.72a1.11 1.11 0 0 1 .72-.3c.12 0 .3 0 .42.06s.24.12.36.24.18.24.24.36.06.24.06.42c0 .3-.12.54-.3.72s-.42.3-.72.3z" fill="#ffc331"/></svg>