<svg xmlns="http://www.w3.org/2000/svg" width="24" height="24" fill="none" xmlns:v="https://vecta.io/nano"><g clip-path="url(#A)" fill="#53c1de"><path fill-rule="evenodd" d="M18.963 7.882l.772.251c2.592.92 4.268 2.36 4.268 3.849 0 1.554-1.79 3.072-4.542 4.012l-.446.144.145.662c.542 2.827.125 5.152-1.163 5.92-1.246.743-3.261.013-5.301-1.796l-.649-.611-.5.476c-2.106 1.897-4.268 2.684-5.557 1.918-1.247-.741-1.639-2.905-1.138-5.628l.19-.885-.649-.208c-2.647-.933-4.389-2.47-4.389-4.002 0-1.484 1.623-2.916 4.164-3.828l.887-.289-.176-.819c-.527-2.772-.158-4.988 1.094-5.735 1.304-.778 3.477.058 5.644 2.041l.398.379.598-.565c2.068-1.856 4.116-2.631 5.367-1.888 1.306.776 1.689 3.134 1.103 6.059l-.119.543zm-.195 7.239l.404-.13c2.38-.81 3.845-2.053 3.845-3.008 0-.898-1.357-2.063-3.582-2.85l-.715-.234a25.24 25.24 0 0 1-1.17 3.088c.475 1.016.882 2.063 1.218 3.134h-.001zm-.468 5.148c.159-.884.125-2.015-.116-3.265h.001l-.13-.598a23.32 23.32 0 0 1-3.256.517 24.77 24.77 0 0 1-2.015 2.632l.605.567c1.746 1.547 3.367 2.134 4.125 1.682.356-.212.644-.742.787-1.535h0zM6.514 21.793c.355.211.946.204 1.685-.066H8.2c.823-.3 1.758-.895 2.692-1.733l.458-.434a25.6 25.6 0 0 1-2.064-2.624c-1.165-.098-2.256-.258-3.24-.482l-.176.822c-.43 2.329-.115 4.067.644 4.517h.001zm-4.587-8.339c.664.584 1.632 1.12 2.804 1.531v.001l.594.19a26.18 26.18 0 0 1 1.186-3.168A25.73 25.73 0 0 1 5.34 8.886l-.828.268c-2.177.78-3.482 1.93-3.482 2.83 0 .424.302.946.898 1.471h-.001zM6.495 2.227c-.754.45-1.055 2.242-.604 4.618l.166.762a24.52 24.52 0 0 1 3.209-.514 25.2 25.2 0 0 1 2.048-2.607l-.361-.343C9.078 2.432 7.3 1.748 6.495 2.227zm9.038 6.014l.731 1.237.691 1.286.77-2.129c-.723-.168-1.455-.3-2.192-.394zM13.45 6.998a22.55 22.55 0 0 0-1.415-1.757l-1.427 1.756 2.842.001zm-6.35 3.767l1.416-2.526-2.179.385.763 2.141zm-.778 4.668c.732.162 1.472.284 2.216.368V15.8l-1.436-2.55-.78 2.184-.001-.001zm4.296 1.585l1.446 1.779v.001a22.24 22.24 0 0 0 1.412-1.786l-2.858.006zm7.156-1.63a22.71 22.71 0 0 0-.808-2.176l-1.436 2.57a21.31 21.31 0 0 0 2.243-.394zm-3.548.521l1.153-1.914h.001l1.033-2.003a34.83 34.83 0 0 0-2.195-3.888 28.28 28.28 0 0 0-4.383 0 29.83 29.83 0 0 0-2.188 3.904 30.11 30.11 0 0 0 2.2 3.91l2.178.071 2.201-.079zm3.885-8.784c.505-2.527.192-4.452-.613-4.93-.756-.447-2.414.179-4.189 1.769l-.554.521c.735.823 1.414 1.695 2.033 2.609a23.98 23.98 0 0 1 3.215.524l.108-.492.001-.001z"/><path d="M12.023 9.774c1.186 0 2.146.988 2.146 2.208s-.961 2.209-2.146 2.209-2.147-.988-2.147-2.208.962-2.209 2.148-2.209l-.001.001z"/></g><defs><clipPath id="A"><path fill="#fff" d="M0 0h24v24H0z"/></clipPath></defs></svg>