<svg xmlns="http://www.w3.org/2000/svg" width="56" height="56" fill="none" stroke="#1b5bf7" stroke-width="3.5" stroke-linejoin="round" xmlns:v="https://vecta.io/nano"><path d="M14 49a4.67 4.67 0 0 0 4.667-4.667A4.67 4.67 0 0 0 14 39.667a4.67 4.67 0 0 0-4.667 4.667A4.67 4.67 0 0 0 14 49zm28-32.667a4.67 4.67 0 0 0 4.667-4.667A4.67 4.67 0 0 0 42 7a4.67 4.67 0 0 0-4.667 4.667A4.67 4.67 0 0 0 42 16.333z"/><path d="M28 44.333h10.5c2.166 0 4.243-.86 5.775-2.392s2.392-3.609 2.392-5.775-.86-4.243-2.392-5.775S40.666 28 38.5 28H19.834c-2.166 0-4.243-.86-5.775-2.392s-2.392-3.609-2.392-5.775.86-4.243 2.392-5.775 3.609-2.392 5.775-2.392H28" stroke-linecap="round"/></svg>