<svg xmlns="http://www.w3.org/2000/svg" width="56" height="56" fill="none" stroke="#1b5bf7" stroke-width="3.5" stroke-linecap="round" stroke-linejoin="round" xmlns:v="https://vecta.io/nano"><path d="M11.666 9.334h32.667c.619 0 1.212.246 1.65.683s.683 1.031.683 1.65v11.667c0 .619-.246 1.212-.683 1.65s-1.031.683-1.65.683H28c-.619 0-1.212.246-1.65.683s-.683 1.031-.683 1.65v16.333c0 .619-.246 1.212-.683 1.65s-1.031.683-1.65.683H11.666c-.619 0-1.212-.246-1.65-.683s-.683-1.031-.683-1.65V11.667c0-.619.246-1.212.683-1.65s1.031-.683 1.65-.683"/><path d="M9.333 18.667H14M9.333 28h7m-7 9.334H14m4.667-28V14M28 9.334v7m9.333-7V14"/></svg>