<svg xmlns="http://www.w3.org/2000/svg" width="56" height="56" fill="none" stroke="#000" stroke-width="3.5" stroke-linejoin="round" xmlns:v="https://vecta.io/nano"><path d="M16.333 23.333L28 9.333l11.667 14" stroke-linecap="round"/><path d="M49 23.333L44.333 42c-.218 1.338-.805 2.537-1.657 3.39s-1.918 1.305-3.009 1.277H16.333c-1.092.027-2.157-.424-3.009-1.277s-1.439-2.052-1.657-3.39L7 23.333h42z"/><path d="M28 39.667A4.67 4.67 0 0 0 32.666 35 4.67 4.67 0 0 0 28 30.333 4.67 4.67 0 0 0 23.333 35 4.67 4.67 0 0 0 28 39.667z"/></svg>