<svg xmlns="http://www.w3.org/2000/svg" width="56" height="56" fill="none" xmlns:v="https://vecta.io/nano"><path fill="#c4c4c4" fill-opacity=".01" d="M0 0h56v56H0z"/><g fill-rule="evenodd"><g fill="#ea6c00"><path d="M16.128 23.295l11.831 23.663L8.073 23.295h8.055z"/><path d="M39.792 23.295L27.961 46.958l19.885-23.663h-8.055z"/></g><path d="M16.127 23.295h23.662L27.958 46.958 16.127 23.295z" fill="#fdad00"/><g fill="#fdd231"><path d="M27.958 10.18L16.75 11.391l-.623 11.903L27.958 10.18z"/><path d="M27.958 10.18l11.208 1.211.623 11.903L27.958 10.18z"/></g><path d="M47.847 23.295L39.17 11.392l.623 11.903h8.055zm-39.774 0l8.677-11.903-.623 11.903H8.073z" fill="#fdad00"/><path d="M27.958 10.18L16.127 23.294h23.662L27.958 10.18z" fill="#feeeb7"/></g></svg>