<svg xmlns="http://www.w3.org/2000/svg" width="56" height="56" fill="none" stroke="#1b5bf7" stroke-width="3.5" stroke-linejoin="round" xmlns:v="https://vecta.io/nano"><path d="M32.667 18.667A4.67 4.67 0 0 0 37.333 14a4.67 4.67 0 0 0-4.667-4.667A4.67 4.67 0 0 0 28 14a4.67 4.67 0 0 0 4.667 4.667z"/><path d="M9.333 14H28m9.333 0h9.333" stroke-linecap="round"/><path d="M18.667 32.667A4.67 4.67 0 0 0 23.333 28a4.67 4.67 0 0 0-4.667-4.667A4.67 4.67 0 0 0 14 28a4.67 4.67 0 0 0 4.667 4.667z"/><path d="M9.333 28H14m9.333 0h23.333" stroke-linecap="round"/><path d="M39.667 46.667A4.67 4.67 0 0 0 44.333 42a4.67 4.67 0 0 0-4.667-4.667A4.67 4.67 0 0 0 35 42a4.67 4.67 0 0 0 4.667 4.667z"/><path d="M9.333 42H35m9.333 0h2.333" stroke-linecap="round"/></svg>