<svg xmlns="http://www.w3.org/2000/svg" width="313" height="47" fill="none" xmlns:v="https://vecta.io/nano"><path d="M18.608 46.448c-5.248 0-9.557-1.237-12.928-3.712C2.309 40.219.496 36.635.24 31.984h13.376c.128 1.579.597 2.731 1.408 3.456s1.856 1.088 3.136 1.088c1.152 0 2.091-.277 2.816-.832.768-.597 1.152-1.408 1.152-2.432 0-1.323-.619-2.347-1.856-3.072s-3.243-1.536-6.016-2.432c-2.944-.981-5.333-1.92-7.168-2.816-1.792-.939-3.371-2.283-4.736-4.032C1.029 19.12.368 16.795.368 13.936c0-2.901.725-5.376 2.176-7.424C3.995 4.421 6 2.843 8.56 1.776s5.461-1.6 8.704-1.6c5.248 0 9.429 1.237 12.544 3.712 3.157 2.432 4.843 5.867 5.056 10.304H21.232c-.043-1.365-.469-2.389-1.28-3.072-.768-.683-1.771-1.024-3.008-1.024-.939 0-1.707.277-2.304.832s-.896 1.344-.896 2.368c0 .853.32 1.6.96 2.24.683.597 1.515 1.131 2.496 1.6.981.427 2.432.981 4.352 1.664 2.859.981 5.205 1.963 7.04 2.944 1.877.939 3.477 2.283 4.8 4.032 1.365 1.707 2.048 3.883 2.048 6.528 0 2.688-.683 5.099-2.048 7.232-1.323 2.133-3.264 3.819-5.824 5.056-2.517 1.237-5.504 1.856-8.96 1.856zM88.184 9.776c4.523 0 8.064 1.365 10.624 4.096 2.602 2.731 3.904 6.464 3.904 11.2V46H90.168V26.736c0-1.92-.533-3.413-1.6-4.48s-2.517-1.6-4.352-1.6-3.285.533-4.352 1.6-1.6 2.56-1.6 4.48V46H65.72V26.736c0-1.92-.533-3.413-1.6-4.48-1.024-1.067-2.453-1.6-4.288-1.6-1.877 0-3.349.533-4.416 1.6s-1.6 2.56-1.6 4.48V46H41.272V10.096h12.544v4.736c1.109-1.536 2.539-2.752 4.288-3.648 1.792-.939 3.84-1.408 6.144-1.408 2.645 0 4.992.576 7.04 1.728a12.56 12.56 0 0 1 4.928 4.864c1.28-1.963 2.965-3.541 5.056-4.736 2.091-1.237 4.395-1.856 6.912-1.856zm36.697 36.672c-3.243 0-6.144-.533-8.704-1.6-2.517-1.109-4.523-2.603-6.016-4.48-1.451-1.92-2.261-4.075-2.432-6.464h12.16c.171 1.152.704 2.048 1.6 2.688s2.005.96 3.328.96c1.024 0 1.835-.213 2.432-.64s.896-.981.896-1.664c0-.896-.491-1.557-1.472-1.984s-2.603-.896-4.864-1.408c-2.56-.512-4.693-1.088-6.4-1.728s-3.2-1.685-4.48-3.136c-1.237-1.451-1.856-3.413-1.856-5.888 0-2.133.576-4.053 1.728-5.76 1.152-1.749 2.837-3.136 5.056-4.16 2.261-1.024 4.971-1.536 8.128-1.536 4.693 0 8.384 1.152 11.072 3.456s4.245 5.333 4.672 9.088H128.4c-.213-1.152-.725-2.027-1.536-2.624-.768-.64-1.813-.96-3.136-.96-1.024 0-1.813.192-2.368.576-.512.384-.768.917-.768 1.6 0 .853.491 1.515 1.472 1.984.981.427 2.56.875 4.736 1.344 2.603.555 4.757 1.173 6.464 1.856 1.749.683 3.264 1.792 4.544 3.328 1.323 1.493 1.984 3.541 1.984 6.144a9.2 9.2 0 0 1-1.856 5.632c-1.195 1.664-2.923 2.987-5.184 3.968-2.219.939-4.843 1.408-7.872 1.408zm57.815-36.352V46h-12.608v-5.12c-1.067 1.621-2.539 2.944-4.416 3.968-1.877.981-4.032 1.472-6.464 1.472-4.181 0-7.488-1.365-9.92-4.096-2.389-2.773-3.584-6.528-3.584-11.264V10.096h12.48V29.36c0 2.048.533 3.669 1.6 4.864 1.109 1.152 2.56 1.728 4.352 1.728 1.835 0 3.285-.576 4.352-1.728 1.067-1.195 1.6-2.816 1.6-4.864V10.096h12.608zm19.043 25.472h15.296V46h-29.12v-9.92l14.272-15.552h-14.144V10.096h28.48v9.92l-14.784 15.552zm26.614 10.944c-2.219 0-4.011-.597-5.376-1.792-1.323-1.237-1.984-2.795-1.984-4.672s.661-3.435 1.984-4.672c1.365-1.237 3.157-1.856 5.376-1.856 2.176 0 3.925.619 5.248 1.856 1.365 1.237 2.048 2.795 2.048 4.672 0 1.835-.683 3.371-2.048 4.608-1.323 1.237-3.072 1.856-5.248 1.856zm49.906-36.416V46H265.65v-5.12c-1.067 1.621-2.539 2.944-4.416 3.968-1.878.981-4.032 1.472-6.464 1.472-4.182 0-7.488-1.365-9.92-4.096-2.39-2.773-3.584-6.528-3.584-11.264V10.096h12.48V29.36c0 2.048.533 3.669 1.6 4.864 1.109 1.152 2.56 1.728 4.352 1.728 1.834 0 3.285-.576 4.352-1.728 1.066-1.195 1.6-2.816 1.6-4.864V10.096h12.608zm19.043 25.472h15.296V46h-29.12v-9.92l14.272-15.552h-14.144V10.096h28.48v9.92l-14.784 15.552z" fill="#1b5bf7"/></svg>