<svg xmlns="http://www.w3.org/2000/svg" width="164" height="98" fill="none" xmlns:v="https://vecta.io/nano"><path d="M147.143 0H16.286c-8.837 0-16 7.163-16 16v65.714c0 8.837 7.163 16 16 16h130.857c8.837 0 16-7.163 16-16V16c0-8.837-7.163-16-16-16z" fill="#1b5bf7"/><path d="M20.645 51.585c.085.713.268 1.219.55 1.519.498.534 1.419.802 2.762.802.789 0 1.414-.117 1.874-.352.47-.234.705-.586.705-1.055 0-.45-.188-.792-.564-1.027s-1.771-.638-4.185-1.209c-1.738-.431-2.964-.97-3.678-1.617-.714-.638-1.071-1.556-1.071-2.757 0-1.416.554-2.63 1.663-3.642 1.118-1.022 2.687-1.533 4.707-1.533 1.916 0 3.476.384 4.678 1.153 1.212.759 1.907 2.077 2.085 3.952h-4.016c-.056-.516-.202-.924-.437-1.224-.442-.544-1.193-.816-2.255-.816-.874 0-1.498.136-1.874.408-.366.272-.549.591-.549.956 0 .459.197.792.592.999.395.216 1.79.586 4.185 1.111 1.597.375 2.795.942 3.593 1.702.789.769 1.184 1.73 1.184 2.883 0 1.519-.568 2.761-1.705 3.727-1.127.956-2.875 1.435-5.242 1.435-2.414 0-4.199-.506-5.355-1.519-1.146-1.022-1.719-2.32-1.719-3.896h4.072zm30.387-10.772a5.35 5.35 0 0 1 2.001.394c.658.263 1.254.722 1.79 1.378.432.535.723 1.191.874 1.969.094.516.141 1.27.141 2.264l-.028 9.662h-4.115v-9.76c0-.581-.094-1.059-.282-1.434-.357-.713-1.015-1.069-1.973-1.069-1.108 0-1.874.459-2.297 1.378-.216.487-.324 1.074-.324 1.758v9.127h-4.044v-9.127c0-.909-.094-1.57-.282-1.983-.338-.741-1-1.111-1.987-1.111-1.146 0-1.917.37-2.311 1.111-.216.422-.324 1.05-.324 1.885v9.226h-4.072V41.178h3.903v2.236c.498-.797.968-1.364 1.409-1.702.78-.6 1.79-.9 3.03-.9 1.174 0 2.123.258 2.846.773a4.5 4.5 0 0 1 1.325 1.842c.526-.9 1.179-1.561 1.959-1.983.827-.422 1.747-.633 2.762-.633zM62.96 51.585c.085.713.268 1.219.55 1.519.498.534 1.418.802 2.762.802.789 0 1.413-.117 1.874-.352.469-.234.704-.586.704-1.055 0-.45-.188-.792-.563-1.027s-1.771-.638-4.186-1.209c-1.737-.431-2.963-.97-3.677-1.617-.714-.638-1.071-1.556-1.071-2.757 0-1.416.554-2.63 1.662-3.642 1.118-1.022 2.687-1.533 4.707-1.533 1.916 0 3.476.384 4.678 1.153 1.212.759 1.907 2.077 2.086 3.952H68.47c-.057-.516-.202-.924-.437-1.224-.442-.544-1.193-.816-2.255-.816-.873 0-1.498.136-1.874.408-.366.272-.549.591-.549.956 0 .459.197.792.591.999.395.216 1.79.586 4.186 1.111 1.597.375 2.794.942 3.593 1.702.789.769 1.183 1.73 1.183 2.883 0 1.519-.568 2.761-1.705 3.727-1.127.956-2.874 1.435-5.241 1.435-2.415 0-4.2-.506-5.355-1.519-1.146-1.022-1.719-2.32-1.719-3.896h4.072zm46.237.703h4.27v4.191h-4.27v-4.191zM80.364 41.15v9.24c0 .872.103 1.528.31 1.969.366.778 1.085 1.167 2.156 1.167 1.372 0 2.311-.553 2.818-1.66.263-.6.395-1.392.395-2.377v-8.34h4.072v7.665 7.665h-3.903v-2.166c-.038.047-.132.188-.282.422a2.83 2.83 0 0 1-.535.619c-.63.563-1.24.947-1.832 1.153-.583.206-1.268.309-2.058.309-2.273 0-3.804-.816-4.593-2.447-.442-.9-.663-2.227-.663-3.98v-9.24h4.115zm13.055 3.263V41.15h12.457v3.333l-7.792 8.705h8.06v3.291h-13.26v-3.122l7.877-8.944h-7.342zm27.527-3.263v9.24c0 .872.103 1.528.31 1.969.366.778 1.085 1.167 2.156 1.167 1.371 0 2.311-.553 2.818-1.66.263-.6.395-1.392.395-2.377v-8.34h4.072v7.665 7.665h-3.903v-2.166c-.038.047-.132.188-.282.422a2.81 2.81 0 0 1-.536.619c-.629.563-1.24.947-1.831 1.153-.583.206-1.269.309-2.058.309-2.273 0-3.804-.816-4.594-2.447-.441-.9-.662-2.227-.662-3.98v-9.24h4.115zm12.933 3.263V41.15h12.457v3.333l-7.793 8.705h8.061v3.291h-13.26v-3.122l7.877-8.944h-7.342z" fill="#fff"/></svg>