<svg xmlns="http://www.w3.org/2000/svg" width="56" height="56" fill="none" xmlns:v="https://vecta.io/nano"><path fill="#c4c4c4" fill-opacity=".01" d="M0 0h56v56H0z"/><path d="M47.278 18.319c0-.829-.084-1.656-.249-2.468-.165-.832-.447-1.636-.835-2.389a9.09 9.09 0 0 0-1.5-1.992 7.38 7.38 0 0 0-2.086-1.434c-.763-.385-1.578-.653-2.42-.797-.835-.161-1.752-.161-2.587-.24H16.998c-.643.01-1.284.064-1.919.161a6.88 6.88 0 0 0-1.834.479c-.167.079-.416.161-.583.24a10.66 10.66 0 0 0-1.576 1.034c-.167.161-.334.239-.501.397-.614.57-1.122 1.244-1.5 1.992a7.44 7.44 0 0 0-.835 2.389A24.74 24.74 0 0 0 8 18.159v19.033a12.39 12.39 0 0 0 .249 2.468 9.07 9.07 0 0 0 .835 2.389 9.09 9.09 0 0 0 1.5 1.992 7.38 7.38 0 0 0 2.086 1.434 8.59 8.59 0 0 0 2.42.797c.835.161 1.752.161 2.587.239h19.924c.868-.001 1.734-.081 2.587-.239.842-.144 1.658-.413 2.42-.797.756-.383 1.458-.865 2.086-1.434.614-.57 1.122-1.244 1.5-1.992.413-.743.695-1.551.835-2.389.124-.818.207-1.642.249-2.468V18.319h-.003z" fill="#f05138"/><path d="M34.253 37.998c-3.501 1.932-8.314 2.13-13.158.148-3.777-1.532-7.006-4.164-9.269-7.554 1.052.805 2.201 1.474 3.419 1.992 5.002 2.238 10 2.083 13.52 0-5.011-3.675-9.266-8.453-12.436-12.354a13.7 13.7 0 0 1-1.667-2.149c3.832 3.344 9.928 7.564 12.096 8.758a85.65 85.65 0 0 1-8.509-10.192c4.27 4.149 8.968 7.833 14.015 10.99.224.12.397.221.536.315a10.3 10.3 0 0 0 .381-1.106c1.169-4.062-.167-8.679-3.085-12.502 6.757 3.899 10.775 11.223 9.092 17.356-.044.167-.091.315-.142.488l.06.069c3.338 3.98 2.421 8.194 2.001 7.406-1.812-3.397-5.162-2.348-6.855-1.664z" fill="#fefefe"/></svg>