<svg xmlns="http://www.w3.org/2000/svg" viewBox="0 0 36 36" fill="#1b5bf7" fill-rule="evenodd" xmlns:v="https://vecta.io/nano"><path opacity=".3" d="M7.292 10.208c0 3.222 2.612 5.833 5.833 5.833s5.833-2.612 5.833-5.833-2.612-5.833-5.833-5.833-5.833 2.612-5.833 5.833zm14.583 5.833c0 2.416 1.959 4.375 4.375 4.375s4.375-1.959 4.375-4.375-1.959-4.375-4.375-4.375-4.375 1.959-4.375 4.375z"/><path d="M13.101 18.958c-6.885 0-12.534 3.539-13.1 10.499-.031.379.694 1.168 1.06 1.168h24.09c1.096 0 1.113-.882 1.096-1.167-.427-7.156-6.164-10.5-13.146-10.5zm15.482 11.667a14.52 14.52 0 0 0-2.915-8.749c4.968.054 9.024 2.566 9.33 7.874.012.214 0 .875-.791.875h-5.623z"/></svg>