<svg xmlns="http://www.w3.org/2000/svg" width="81" height="80" fill="none" xmlns:v="https://vecta.io/nano"><rect x=".5" width="80" height="80" rx="40" fill="#f4f7ff"/><g fill-rule="evenodd" fill="#1b5bf7"><path opacity=".3" d="M28.833 31.667a6.67 6.67 0 0 0 6.667 6.667 6.67 6.67 0 0 0 6.667-6.667A6.67 6.67 0 0 0 35.5 25a6.67 6.67 0 0 0-6.667 6.667zM45.5 38.333a5 5 0 1 0 10 0 5 5 0 1 0-10 0z"/><path d="M35.472 41.667c-7.869 0-14.325 4.044-14.971 11.999-.035.433.793 1.335 1.211 1.335h27.532c1.252 0 1.271-1.008 1.252-1.333-.488-8.178-7.044-12-15.024-12zM59.593 55h-6.426a16.59 16.59 0 0 0-3.331-9.999c5.677.062 10.313 2.933 10.662 8.999.014.244 0 1-.904 1z"/></g></svg>