<svg xmlns="http://www.w3.org/2000/svg" width="81" height="80" fill="none" xmlns:v="https://vecta.io/nano"><rect x=".5" width="80" height="80" rx="40" fill="#f4f7ff"/><g fill="#1b5bf7"><path d="M32.705 28.837c.77-.504 1.803-.289 2.307.482s.289 1.803-.482 2.307C31.725 33.463 30 36.583 30 39.999c0 5.523 4.477 10 10 10s10-4.477 10-10c0-3.341-1.649-6.401-4.354-8.255-.759-.52-.953-1.558-.432-2.317s1.558-.953 2.317-.432c3.603 2.47 5.803 6.552 5.803 11.004 0 7.364-5.97 13.333-13.333 13.333s-13.333-5.97-13.333-13.333a13.32 13.32 0 0 1 6.038-11.162z"/><rect opacity=".3" x="38.333" y="25" width="3.333" height="16.667" rx="1"/></g></svg>