<svg xmlns="http://www.w3.org/2000/svg" width="55" height="54" fill="none" xmlns:v="https://vecta.io/nano"><g stroke="#1b5bf7" stroke-width="3.5" stroke-linejoin="round"><use href="#B"/><use href="#B" x="27.5"/><use href="#B" x="13.75" y="-27"/><g stroke-linecap="round"><path d="M13.75 33.75V31.5a4.46 4.46 0 0 1 1.342-3.182c.86-.844 2.025-1.318 3.241-1.318h18.333c1.215 0 2.381.474 3.241 1.318A4.46 4.46 0 0 1 41.25 31.5v2.25"/><path d="M27.5 20.25V27"/></g></g><defs ><path id="B" d="M16.042 33.75h-4.583c-2.531 0-4.583 2.015-4.583 4.5v4.5c0 2.485 2.052 4.5 4.583 4.5h4.583c2.531 0 4.583-2.015 4.583-4.5v-4.5c0-2.485-2.052-4.5-4.583-4.5z"/></defs></svg>