<svg xmlns="http://www.w3.org/2000/svg" viewBox="0 0 576 436" fill="none" xmlns:v="https://vecta.io/nano"><style><![CDATA[.B{opacity:.6}.C{fill:#030f1c}.D{fill:#fff}.E{fill:#0b122d}.F{fill:#ffb7b6}.G{fill:#161b36}.H{opacity:.4}.I{fill:#2d2b72}.J{fill:#f76161}.K{fill:#dee6ee}.L{fill:#85ceb4}]]></style><path d="M268.518 0h125.809c4.148 0 7.511 3.391 7.511 7.574V124.03c0 4.184-3.363 7.575-7.511 7.575H268.518c-4.148 0-7.511-3.391-7.511-7.575V7.574c0-4.183 3.363-7.574 7.511-7.574z" fill="#f2e9ff"/><path d="M261.684 85.459h139.892v38.818c0 4.184-3.363 7.575-7.511 7.575h-124.87c-4.149 0-7.511-3.391-7.511-7.575V85.459z" fill="#000" style="mix-blend-mode:overlay"/><path d="M281.052 113.454c-1.037 0-1.878-.848-1.878-1.894s.841-1.893 1.878-1.893h16.655c1.037 0 1.878.847 1.878 1.893s-.841 1.894-1.878 1.894h-16.655zm42.249 0c-1.037 0-1.878-.848-1.878-1.894s.841-1.893 1.878-1.893h16.656c1.037 0 1.877.847 1.877 1.893s-.84 1.894-1.877 1.894h-16.656zm40.372-1.894c0 1.046.84 1.894 1.878 1.894h16.655c1.037 0 1.878-.848 1.878-1.894s-.841-1.893-1.878-1.893h-16.655c-1.038 0-1.878.847-1.878 1.893z" class="D"/><path d="M281.052 103.986c-1.037 0-1.878-.848-1.878-1.894s.841-1.893 1.878-1.893h10.083c1.037 0 1.878.847 1.878 1.893s-.841 1.894-1.878 1.894h-10.083zm42.249 0c-1.037 0-1.878-.848-1.878-1.894s.841-1.893 1.878-1.893h10.084c1.037 0 1.877.847 1.877 1.893s-.84 1.894-1.877 1.894h-10.084zm40.372-1.894c0 1.046.84 1.894 1.878 1.894h10.083c1.037 0 1.878-.848 1.878-1.894s-.841-1.893-1.878-1.893h-10.083c-1.038 0-1.878.847-1.878 1.893zm-74.246-54.221l-10.44 9.979-.648-.691 10.506-10.027 8.619-5.898.141-.066 10.186-2.679 9.389 8.606 8.788 4.033 9.154-8.644.085-.066 9.642-5.633 9.717-5.056 9.342 10.689 9.285 4.923 8.863-8.919.667.672-9.389 9.402-9.98-5.283-.131-.104-8.92-10.197-9.041 4.734-9.539 5.529-9.567 9.042-9.389-4.289-.122-.085-9.098-8.313-9.623 2.537-8.497 5.804z" style="mix-blend-mode:overlay" fill="#231f20"/><path d="M352.913 23.311c0-.784.63-1.42 1.408-1.42s1.408.636 1.408 1.42v19.816c0 .784-.63 1.42-1.408 1.42s-1.408-.636-1.408-1.42V23.311zm-54.925 8.048c-.777 0-1.408.636-1.408 1.42v19.816c0 .784.631 1.42 1.408 1.42s1.409-.636 1.409-1.42V32.779c0-.784-.631-1.42-1.409-1.42zm-18.777 18.936c-.778 0-1.408.636-1.408 1.42v10.349c0 .784.63 1.42 1.408 1.42s1.408-.636 1.408-1.42V51.715c0-.784-.63-1.42-1.408-1.42zm36.147-8.048c0-.784.631-1.42 1.408-1.42s1.409.636 1.409 1.42v10.349c0 .784-.631 1.42-1.409 1.42s-1.408-.636-1.408-1.42V42.247zm20.186-6.154c-.778 0-1.409.636-1.409 1.42v10.349c0 .784.631 1.42 1.409 1.42s1.408-.636 1.408-1.42V37.513c0-.784-.631-1.42-1.408-1.42zm37.554 0c-.778 0-1.408.636-1.408 1.42v19.816c0 .784.63 1.42 1.408 1.42s1.409-.636 1.409-1.42V37.513c0-.784-.631-1.42-1.409-1.42z" fill="#3268ae"/><path d="M306.674 31.549a1.42 1.42 0 0 0-.704 1.23v10.349c0 .784.63 1.42 1.408 1.42s1.408-.636 1.408-1.42V32.779a1.42 1.42 0 0 0-.704-1.23c-.436-.254-.972-.254-1.408 0zm-18.073 9.278c-.778 0-1.409.636-1.409 1.42v10.348c0 .784.631 1.42 1.409 1.42s1.408-.636 1.408-1.42V42.247c0-.784-.631-1.42-1.408-1.42zm36.147 4.261c0-.784.63-1.42 1.408-1.42s1.408.636 1.408 1.42v10.348c0 .784-.63 1.42-1.408 1.42s-1.408-.636-1.408-1.42V45.087zm20.185-13.729c-.777 0-1.408.636-1.408 1.42v10.349c0 .784.631 1.42 1.408 1.42s1.409-.636 1.409-1.42V32.779c0-.784-.631-1.42-1.409-1.42zm17.369 1.42c0-.784.631-1.42 1.409-1.42s1.408.636 1.408 1.42v16.976c0 .784-.63 1.42-1.408 1.42s-1.409-.636-1.409-1.42V32.779zm20.186-1.42c-.778 0-1.408.636-1.408 1.42v10.349c0 .784.63 1.42 1.408 1.42s1.408-.636 1.408-1.42V32.779c0-.784-.63-1.42-1.408-1.42z" fill="#ec7ef2"/><path d="M357.341 232.912v.947h-.099v-.947H225.194v.947h-.089v-.947H0v173.264h13.492v23.457c0 3.449 2.772 6.246 6.192 6.249a5.97 5.97 0 0 0 1.549-.223c2.73-.706 4.641-3.184 4.647-6.026v-23.457h60.703v23.457c0 3.451 2.774 6.249 6.197 6.249a5.97 5.97 0 0 0 1.549-.223c2.73-.706 4.641-3.184 4.647-6.026v-23.457h63.595v23.457c0 3.451 2.774 6.249 6.197 6.249.522-.007 1.041-.081 1.544-.223 2.731-.704 4.643-3.183 4.648-6.026v-23.457h50.145v-.559h.089v.559h10.464v23.457c0 3.449 2.771 6.246 6.192 6.249a5.97 5.97 0 0 0 1.549-.223c2.73-.706 4.641-3.184 4.647-6.026v-23.457h62.093v23.457c0 3.449 2.771 6.246 6.192 6.249a5.97 5.97 0 0 0 1.549-.223c2.73-.706 4.641-3.184 4.647-6.026v-23.457h34.739v-.559h.084v.559h28.782v23.457c0 3.451 2.774 6.249 6.196 6.249.524-.007 1.045-.081 1.549-.223 2.73-.706 4.639-3.185 4.643-6.026v-23.457h60.698v23.457c0 3.451 2.775 6.249 6.197 6.249.524-.007 1.044-.081 1.549-.223 2.729-.706 4.639-3.185 4.643-6.026v-23.457h17.796V232.912H357.341z" class="K"/><g style="mix-blend-mode:overlay" class="B C"><use href="#B"/></g><g style="mix-blend-mode:overlay" class="B C"><use href="#B" y="82.182"/></g><g style="mix-blend-mode:overlay" class="B C"><path d="M0 232.912h92.794v173.245H0z"/></g><g style="mix-blend-mode:overlay" class="B C"><use href="#B"/></g><g style="mix-blend-mode:overlay" class="B C"><use href="#B" y="82.182"/></g><g style="mix-blend-mode:overlay" opacity=".2" class="C"><path d="M302.29 244.851h45.151v67.999H302.29z"/></g><g style="mix-blend-mode:overlay" opacity=".2" class="C"><path d="M302.29 327.033h45.151v67.999H302.29z"/></g><g style="mix-blend-mode:overlay" class="B C"><path d="M13.487 406.157H25.88v3.191H13.487z"/></g><g style="mix-blend-mode:overlay" class="B C"><path d="M16.59 429.614v-23.438h-3.098v23.457c0 3.449 2.771 6.246 6.192 6.249a5.97 5.97 0 0 0 1.549-.223c-2.736-.708-4.648-3.197-4.643-6.045z"/></g><g style="mix-blend-mode:overlay" class="B C"><path d="M86.583 406.157h12.393v3.191H86.583z"/></g><g style="mix-blend-mode:overlay" class="B C"><path d="M89.663 429.614v-23.438h-3.098v23.457c0 3.451 2.774 6.249 6.197 6.249a5.97 5.97 0 0 0 1.549-.223c-2.737-.707-4.65-3.196-4.647-6.045z"/></g><g style="mix-blend-mode:overlay" class="B C"><use href="#C"/></g><g style="mix-blend-mode:overlay" class="B C"><path d="M165.67 429.614v-23.438h-3.099v23.457c0 3.451 2.775 6.249 6.197 6.249.522-.007 1.041-.081 1.544-.223-2.736-.708-4.647-3.197-4.642-6.045z"/></g><g style="mix-blend-mode:overlay" class="B C"><use href="#C" x="73.097"/></g><g style="mix-blend-mode:overlay" class="B C"><path d="M238.766 429.614v-23.438h-3.108v23.457c0 3.449 2.772 6.246 6.192 6.249.524-.006 1.045-.081 1.549-.223-2.732-.711-4.639-3.199-4.633-6.045z"/></g><g style="mix-blend-mode:overlay" class="B C"><use href="#C" x="147.568"/></g><g style="mix-blend-mode:overlay" class="B C"><path d="M313.237 429.614v-23.438h-3.098v23.457c0 3.449 2.771 6.246 6.192 6.249.523-.006 1.044-.081 1.549-.223-2.736-.708-4.648-3.197-4.643-6.045z"/></g><g style="mix-blend-mode:overlay" class="B C"><use href="#C" x="223.556"/></g><g style="mix-blend-mode:overlay" class="B C"><path d="M389.22 429.614v-23.438h-3.098v23.457c0 3.451 2.774 6.249 6.197 6.249.523-.006 1.044-.081 1.549-.223-2.737-.707-4.65-3.196-4.648-6.045z"/></g><g style="mix-blend-mode:overlay" class="B C"><use href="#C" x="296.648"/></g><g style="mix-blend-mode:overlay" class="B C"><path d="M462.316 429.614v-23.438h-3.098v23.457c0 3.451 2.774 6.249 6.196 6.249a6.02 6.02 0 0 0 1.55-.223c-2.738-.706-4.652-3.195-4.648-6.045z"/></g><g style="mix-blend-mode:overlay" class="B C"><path d="M107.412 244.586h4.704v149.632h-4.704z"/></g><g style="mix-blend-mode:overlay" class="B C"><use href="#D"/></g><g style="mix-blend-mode:overlay" class="B C"><use href="#D" x="17.759"/></g><g style="mix-blend-mode:overlay" class="B C"><path d="M210.087 393.21h.005v-1.212h-97.99v2.168h97.985v-.956z"/></g><g style="mix-blend-mode:overlay" class="B C"><path d="M112.102 244.572h97.986v2.168h-97.986z"/></g><g style="mix-blend-mode:overlay" class="B C"><path d="M210.092 244.572h1.929v149.57h-1.929z"/></g><g style="mix-blend-mode:overlay" class="B C"><path d="M158.304 246.74h2.751v145.243h-2.751z"/></g><g style="mix-blend-mode:overlay" class="B C"><path d="M368.641 244.586h4.704v149.632h-4.704z"/></g><g style="mix-blend-mode:overlay" class="B C"><use href="#D" x="261.233"/></g><g style="mix-blend-mode:overlay" class="B C"><use href="#D" x="278.987"/></g><g style="mix-blend-mode:overlay" class="B C"><path d="M471.32 393.21v-1.212h-97.986v2.168h97.986v-.956z"/></g><g style="mix-blend-mode:overlay" class="B C"><path d="M373.334 244.572h97.986v2.168h-97.986z"/></g><g style="mix-blend-mode:overlay" class="B C"><path d="M471.32 244.572h1.929v149.57h-1.929z"/></g><g style="mix-blend-mode:overlay" class="B C"><path d="M419.532 246.74h2.751v145.243h-2.751z"/></g><path d="M184.83 111.402c0-7.557 8.275-5.148 9.683-4.674s4.694-10.415 4.694-10.415 16.9-1.42 20.186 1.894c0 0 .939 14.202.47 23.197s-3.336 12.773-6.622 12.773c-1.039-.059-2.06-.299-3.018-.711v16.558l-19.877-10.39 2.448-19.559c-.101-.06-.159-.091-.159-.091s-7.805-1.445-7.805-8.581z" class="F"/><path d="M219.93 110.518l-1.033-9.926c-.168-3.096-3.027-3.746-4.708-1.574-2.418 3.224-6.522 4.666-10.403 3.654-3.405-.799-4.839-1.718-5.151 1.748s-1.484 9.221-2.576 7.682-2.316-4.924-4.481-5.318c-3.308-.601-5.354 3.382-4.573 5.757s1.884 3.858 5.967 6.105l-1.273 10.176c-10.119-13.531-13.931-32.113-.206-36.416 5.127-1.608 10.453-12.025 20.374-9.655 7.03 1.679 7.03 7.11 7.53 11.833 9.444.394.533 15.934.533 15.934z" fill="#352316"/><g class="G"><ellipse rx=".878" ry="1.456" transform="matrix(-1 0 0 1 209.331 109.062)"/><ellipse rx=".878" ry="1.456" transform="matrix(-1 0 0 1 218.019 109.667)"/><path d="M211.145 103.237c-.312-.354-.741-.63-2.029-.551s-3.24 1.299-2.81 1.614 1.717-.748 2.732-.394 1.597.646 1.938.453c.429-.243.319-.952.169-1.122zm5.582-.361c.409-.234.903-.355 2.097.139s2.65 2.284 2.143 2.442-1.386-1.267-2.46-1.262-1.718.091-1.979-.203c-.329-.369.002-1.004.199-1.116z"/></g><g style="mix-blend-mode:overlay" class="B C"><path d="M214.821 118.884c.453.017.903-.088 1.302-.305a1.01 1.01 0 0 0 .497-.704c.097-.617-.528-1.572-1.294-2.665a7.85 7.85 0 0 1-.534-.817c-.155-.336-.111-3.402.022-6.171l-.469-.023c-.046.961-.261 5.782.022 6.394a7.51 7.51 0 0 0 .576.89c.482.689 1.289 1.841 1.213 2.318-.031.161-.134.3-.279.375-.674.292-1.433.316-2.123.066l-.144.451c.392.126.8.19 1.211.191z"/></g><path d="M215.39 123.388c.04-.14.023-.29-.048-.417a.54.54 0 0 0-.326-.259l-2.934-.914a24.38 24.38 0 0 1-2.943-1.412c-.165-.09-.366-.088-.529.005a.55.55 0 0 0-.277.455c-.066 1.457.108 4.303 2.38 4.883 2.763.705 4.21-.802 4.677-2.341z" class="G"/><path d="M214.188 125.204s-2.377-3.349-5.774-2.584c0 0-.005 2.616 2.185 3.206 2.357.634 3.589-.622 3.589-.622z" fill="#e55151"/><path d="M190.01 109.787c2.251-.768 4.341 4.172 4.429 4.383.05.121-.006.259-.126.31s-.257-.006-.307-.126c-.364-.853-.809-1.668-1.329-2.434a2 2 0 0 0-1.377.254 1.83 1.83 0 0 0-.723 1.293c-.019.114-.117.198-.231.198-.013 0-.026-.001-.039-.003-.061-.01-.116-.045-.152-.096a.24.24 0 0 1-.041-.176c.082-1.146 1.052-2.019 2.19-1.97-.668-.835-1.431-1.429-2.143-1.185-.08.028-.167.01-.231-.046s-.091-.141-.075-.224.075-.151.155-.178h0zm20.213 23.916c.111 0 .207-.078.23-.188s-.033-.22-.135-.265c-.077-.035-7.79-3.515-11.045-7.721-.08-.102-.227-.12-.329-.04s-.121.229-.041.332c3.328 4.3 10.904 7.718 11.225 7.861.03.014.062.021.095.021z" class="E"/><path d="M199.225 100.316a.23.23 0 0 0 .144-.05c3.542-2.774 2.224-8.151 2.166-8.378-.032-.126-.16-.202-.285-.17s-.201.161-.17.287c.014.053 1.298 5.305-1.999 7.887-.079.062-.111.169-.078.264s.122.16.222.16h0z" class="D"/><g style="mix-blend-mode:overlay" class="B C"><path d="M210.208 133.574s-6.765-3.173-8.95-5.482c0 0 .504 6.225 4.972 10.6s3.978.84 3.978.84v-5.958z"/></g><path d="M222.531 418.754h10.649v-13.506h-11.169l.52 13.506zm-42.253-13.09l-11.008-.382-.468 13.472h10.649l.827-13.09z" class="F"/><path d="M159.381 429.574l-.028-.002 8.701-13.532c.118-.184.476-.248.836-.26-.645-.85-1.077-1.708-.92-2.376.127-.54.593-.897 1.385-1.061.632-.15 1.299.004 1.801.416.777.622 1.246 1.789 1.531 2.957l1.262-.007c.588-1.237 1.321-2.391 2.085-2.626a1 1 0 0 1 .956.199c.506.356.79.95.749 1.567-.044.377-.173.74-.377 1.061.254.037.505.093.75.167.566-.11 1.968.27 2.036.737l1.919 13.371a2.37 2.37 0 0 1 .093.653v1.84h-23.14v-1.84c.003-.446.128-.883.361-1.264zm11.481-16.448c-.284-.238-.642-.367-1.011-.366a2 2 0 0 0-.401.043c-.597.124-.942.362-1.023.708-.135.578.365 1.428 1.082 2.292l.021.003h0l.092.01.238-.009h0l2.343-.082c-.264-1.05-.679-2.069-1.341-2.599zm5.833.522a1.31 1.31 0 0 1 .575 1.162 2.25 2.25 0 0 1-.409 1.034c-.699-.078-1.535-.116-2.387-.129.53-1.085 1.134-2.01 1.699-2.184.182-.059.382-.014.522.117zm45.687 2.223s5.741 4.611 10.711 0a20.73 20.73 0 0 1 4.369 1.765l.001-.001.06.032.766.394 1.258.635c-.315-.785-.881-2.436-.427-3.203a.86.86 0 0 1 .721-.421.92.92 0 0 1 .814.34c.451.569.326 1.744.172 2.532.81-.715 2.184-1.782 2.889-1.507.287.131.462.429.438.746.028.399-.115.79-.393 1.074-.727.772-2.3.958-3.078 1.002l2.903 1.385.175-.168c.095-.089.243-.083.331.012a.24.24 0 0 1-.012.335l-.033.031a64.08 64.08 0 0 0 2.321 1.006l.895.338.237-.229c.095-.089.243-.084.331.012a.24.24 0 0 1-.012.335c-.002.001-.024.022-.064.06a57.14 57.14 0 0 0 1.806.616l3.855 1.086.226.056c3.765.919 7.435 3.134 8.023 5.094h.085v1.908a1.57 1.57 0 0 1-.453 1.104c-.29.293-.683.457-1.094.457h-39.324a1.54 1.54 0 0 1-1.094-.457 1.57 1.57 0 0 1-.453-1.104v-1.462l.007-10.072c.104-2.247 3.043-3.731 3.043-3.731zm17.907-.163c-.103-.123-.261-.185-.419-.163-.141-.005-.275.069-.347.192-.327.552.173 2.153.587 3.092l.018-.016.068-.237c.176-.608.535-2.309.093-2.868zm3.257 1.171c.083.032.13.144.141.332.019.267-.077.53-.265.719-.625.664-2.115.821-2.814.859 1.005-.977 2.301-1.929 2.828-1.929.038-.001.075.006.11.019z" fill="#4c3939"/><g fill="#2f282d"><path d="M222.428 428.124c-.92 0-1.666-.745-1.666-1.664s.746-1.664 1.666-1.664 1.665.745 1.665 1.664-.746 1.664-1.665 1.664z" class="H"/><path d="M223 423.748h-3.21v-.469H223a3.05 3.05 0 0 1 3.045 3.042v2.92h35.826v1.89a1.55 1.55 0 0 1-1.548 1.547h-39.371a1.55 1.55 0 0 1-1.095-.453c-.291-.29-.454-.684-.454-1.094v-1.89h6.173v-2.92a2.58 2.58 0 0 0-2.576-2.573z"/></g><path d="M163.863 427.493h13.454c2.675 0 4.843 1.498 4.843 3.345v1.84h-23.14v-1.84c0-1.847 2.168-3.345 4.843-3.345z" class="C H"/><path d="M239.642 418.808l.174.406c.01.022.023.042.04.06-.735.722-1.418 1.496-2.044 2.314-.077.104-.055.25.048.328s.25.057.328-.046a21.9 21.9 0 0 1 2.234-2.491l.357-.014 2.907 1.372c-.786.761-1.515 1.579-2.181 2.448-.077.104-.056.251.048.329s.251.056.328-.047c.69-.897 1.447-1.74 2.266-2.522l2.361 1.012.853.326c-.761.742-1.467 1.538-2.112 2.381-.077.104-.056.251.048.328s.25.057.328-.046a22.05 22.05 0 0 1 2.227-2.485c2.872 1.017 5.902 1.733 5.902 1.733s-.494 1.98-2.212 2.448-11.473-2.886-14.052-4.133.065-4.752.065-4.752l2.087 1.051z" fill="#2f282d"/><g style="mix-blend-mode:overlay" class="H C"><path d="M173.05 417.913a16 16 0 0 0-.361-2.197l1.262-.007c-.366.769-.676 1.571-.901 2.204z"/></g><g style="mix-blend-mode:overlay" class="H C"><path d="M169.311 416.303a22.55 22.55 0 0 0 2.571 2.479c-.953.073-1.887.306-2.762.69-.076.037-.126.111-.132.194s.032.164.102.211.159.054.234.017a8.99 8.99 0 0 1 3.177-.681c.061-.061.154-.079.234-.044a.21.21 0 0 1 .124.202c.114.017.224-.053.257-.164a25.72 25.72 0 0 1 1.361-3.493l2.387.129c-.997 1.502-3.461 2.915-3.492 2.932-.088.05-.134.152-.114.251s.103.175.204.186a29.54 29.54 0 0 1 3.803.697c.021.006.042.009.063.009.118 0 .217-.087.233-.203s-.057-.226-.169-.257a26.18 26.18 0 0 0-3.212-.627c.864-.554 2.458-1.691 3.185-2.921.767.121 1.283.307 1.314.591.159 1.457-.429 7.918-1.21 8.373s-11.767.351-11.835.086c-.156-.605 2.699-6.856 3.677-8.657zm7.99 4.758c-.136-.04-3.395-.965-9.003-.006-.128.022-.213.143-.192.271s.143.213.271.192c5.481-.94 8.749-.019 8.792-.007h0c.081.024.168.003.228-.055s.086-.144.066-.225-.081-.146-.162-.17h0zm.369 2.289c-3.439-.389-6.912-.389-10.351.001h0a.24.24 0 0 1-.26-.206c-.015-.129.077-.245.206-.261 3.479-.393 6.991-.393 10.471.001.121.018.209.126.201.249s-.11.218-.234.218c-.011 0-.022-.001-.033-.002z"/></g><g style="mix-blend-mode:overlay" class="H C"><path d="M169.568 415.872c.025-.033.046-.056.057-.056l2.58-.092c.239 1.008.385 2.036.438 3.07a23.03 23.03 0 0 1-3.075-2.922z"/></g><path d="M231.465 245.407l5.199 81.863-1.249 83.435s-7.493 4.093-15.298 0l-6.869-57.617c-2.186-13.224-1.561-31.17-1.561-31.17l-11.24-28.022-19.411 117.722s-9.937 2.551-14.62-.598c0 0 .936-22.354 0-44.394s.936-38.096 3.746-46.597c0 0-6.24-45.026-4.991-74.622h66.294z" class="I"/><g style="mix-blend-mode:overlay" class="B D"><path d="M182.506 402.701s-6.766 2.912-15.842 0v1.917c5.019 1.743 10.464 1.782 15.507.113l.335-2.03z"/></g><g style="mix-blend-mode:overlay" class="B D"><path d="M235.52 402.701s-7.189 2.912-16.264 0l.237 2.193s7.822 2.671 16-.163l.027-2.03z"/></g><g style="mix-blend-mode:overlay" class="B C"><path d="M165.348 264.54c.014 0 .028-.001.042-.003 14.521-2.606 12.136-18.838 12.111-19.002-.021-.128-.141-.216-.269-.196s-.215.142-.195.271c.025.159 2.335 15.937-11.729 18.461-.12.021-.204.131-.193.253s.112.216.233.216z"/></g><g style="mix-blend-mode:overlay" class="B C"><path d="M232.831 261.231c.108 0 .202-.074.228-.18s-.024-.216-.12-.266-10.15-5.469-9.618-15.2c.003-.062-.018-.124-.06-.17s-.099-.075-.162-.079-.123.017-.17.059-.074.102-.077.165c-.548 10.037 9.766 15.589 9.87 15.644.034.018.071.027.109.027z"/></g><g style="mix-blend-mode:overlay" class="B C"><path d="M231.464 245.407l.297 4.722c-26.098 10.432-66.721 3.152-66.721 3.152l.13-7.874h66.294z"/></g><g style="mix-blend-mode:overlay" class="B C"><path d="M200.446 293.896l6.249-23.456s3.274 12.703 1.869 26.447 0 17.247 0 17.247l-8.118-20.238z"/></g><g style="mix-blend-mode:overlay" class="B D"><path d="M232.716 262.554s-2.761-1.244-3.854 3.163.203 26.133 1.452 38.412 2.752 31.013 2.989 40.773 2.861 11.656 2.861 11.656.81-27.775.348-34.963-1.665-35.82-3.796-59.041z"/></g><g style="mix-blend-mode:overlay" class="B D"><path d="M198.625 305.241s-8.886 10.424-10.947 24.413-3.779 41.748-4.82 48.884-3.499 15.035 1.051 15.651l14.716-88.948z"/></g><g style="mix-blend-mode:overlay" class="B C"><path d="M211.613 326.035l.023-.001c.062-.006.119-.037.158-.085s.059-.111.053-.173c-.008-.078-.715-7.749 2.33-12.867a.24.24 0 0 0-.081-.325c-.111-.067-.255-.03-.322.082-3.126 5.253-2.402 13.078-2.395 13.156.012.121.113.213.234.213z"/></g><path d="M129.641 200.825c-2.654-6.404-2.813-13.089-.176-16.183 5.84-6.852 20.17-21.965 27.885-28.463 5.426-4.57 10.035-7.634 13.947-9.154a6.91 6.91 0 0 1 1.137-.53c4.163-1.469 16.964-4.198 16.964-4.198l16.101 7.303 8.668-6.044s15.715 6.822 18.212 10.18c.014.019.027.044.04.065 5.36 4.499 10.23 11.791 14.089 18.773a161.81 161.81 0 0 1 7.993 16.841c.185.453.588.779 1.068.861a1.4 1.4 0 0 0 1.288-.46l14.003-15.061c-.677-.551-.821-1.534-.332-2.26l2.31-3.406c.523-.77 2.59-.862 3.354-.335l11.119 7.74c.764.527.855 2.832.332 3.603l-1.91 2.885c-.512.754-1.528.959-2.29.462-12.473 22.555-17.456 32.519-23.622 33.968-3.266.767-6.515-.715-10.665-3.657-7.125-5.042-13.375-11.237-18.494-18.336-.379 4.782-.654 8.884-.676 11.527-.062 7.374.679 15.904.884 25.503.098 4.545 4.371 13.478.885 16.372-11.252 9.34-66.294 0-66.294 0 .088-5.45.786-10.871 2.082-16.162 2.653-10.167 2.289-15.323 1.977-21.305l-1.237-31.459-20.478 15.025c-.913.955-.064 3.839 2.736 12.372l1.152 3.496.004-.002c.859-.349 1.836.07 2.182.936l1.53 3.827c.346.866-.725 2.651-1.583 3l-12.553 5.039c-.858.35-2.811-.852-3.157-1.718l-1.322-3.203c-.233-.587-.12-1.258.294-1.734l-.013-.005c-3.057-6.154-5.406-11.206-7.434-16.103z" fill="#34ad82"/><g style="mix-blend-mode:overlay" class="B C"><path d="M232.431 173.685l.669.65c5.773 5.857 3.242 15.358 3.968 19.995s13.946 10.544 12.088 19.425c-7.125-5.042-13.374-11.237-18.494-18.336l1.769-21.734z"/></g><path d="M257.744 198.831c.094 0 .179-.056.216-.144s.018-.189-.048-.257c-2.761-2.872-2.345-6.821-2.34-6.861.007-.062-.011-.125-.05-.174s-.095-.081-.157-.088-.124.009-.173.048a.23.23 0 0 0-.087.16c-.02.17-.45 4.207 2.47 7.244.044.046.105.072.169.072z" class="E"/><g style="mix-blend-mode:overlay" class="B C"><path d="M283.404 183.423l-12.438-8.578c-.747-.516 8.454 1.927 10.839 5.789 1.545 2.501 3.481.921 4.027-.33.765-1.753-.49-5.18-.49-5.18.012-.018 1.821 1.293 1.832 1.276l.137.094c.764.527.855 2.832.332 3.603l-1.91 2.884c-.25.37-.637.625-1.074.708s-.888-.013-1.255-.266z"/></g><path d="M231.716 183.649c.116 0 .215-.085.232-.201 1.565-10.481.822-18.063.815-18.138-.015-.129-.129-.223-.258-.211-.061.006-.118.037-.158.085s-.057.111-.051.174c.007.075.743 7.602-.812 18.02-.009.062.006.125.043.175s.093.084.154.094c.012.001.024.002.035.002zm-6.31 56.593c.042 0 .082-.011.118-.032 4.095-2.383 5.514-7.483 5.572-7.699.034-.126-.04-.255-.164-.29s-.254.04-.289.165c-.013.052-1.428 5.13-5.354 7.414-.092.054-.137.163-.109.266s.12.176.226.176z" class="E"/><g style="mix-blend-mode:overlay" class="B C"><path d="M168.399 179.812l7.094-5.291 3.237-2.972c.477 4.54.9 15.24-2.431 32.643-3.493 18.248 2.408 30.094 9.04 37.177 5.632 6.015 17.276 7.452 25.637 11.603-16.01.886-45.514-4.151-45.514-4.151s-.361-7.787 2.819-19.204c2.476-5.805.844-37.671.118-49.805z"/></g><g style="mix-blend-mode:overlay" class="B C"><path d="M199.476 151.03l-17.739-7.004 7.661-1.729 10.078 8.733z"/></g><path d="M173.686 174.943c.024 0 .048-.004.071-.011 7.792-2.482 10.82-12.246 10.849-12.344.026-.081.006-.17-.052-.232s-.143-.089-.225-.069-.148.081-.172.163c-.029.096-2.987 9.625-10.542 12.031-.11.035-.178.146-.161.261s.116.201.232.201h0z" class="E"/><g style="mix-blend-mode:overlay" class="B D"><path d="M143.557 196.236c.322 4.117 1.552 8.11 3.6 11.686.381.655 2.407 2.353 4.188 1.815-3.436-10.443-4.628-13.876-3.539-14.817 2.987-2.581 14.131-10.446 18.494-13.591-1.085-.738-3.271-1.643-5.482-.53-3.638 1.836-17.735 10.339-17.261 15.437z"/></g><path d="M141.788 199.528c.117 0 .215-.087.232-.204.022-.156.587-3.822 4.872-4.05.129-.008.227-.119.22-.248s-.116-.23-.244-.224c-4.68.249-5.308 4.415-5.313 4.457-.018.129.072.249.2.267l.033.002z" class="E"/><g style="mix-blend-mode:overlay" class="B C"><path d="M137.722 216.468l13.976-5.682c.839-.341-6.279 6.026-10.789 5.886-2.919-.09-2.689 2.411-1.96 3.562 1.023 1.615 4.547 2.462 4.547 2.462.008.02-2.077.811-2.069.83l-.154.062c-.858.349-2.811-.852-3.157-1.718l-1.322-3.203c-.166-.415-.161-.881.013-1.293a1.68 1.68 0 0 1 .915-.906z"/></g><path d="M203.231 144.876c-8.966-5.662-11.693-10.66-11.693-10.66l-2.14 8.081 10.078 8.733c.42-1.117.934-2.196 1.536-3.226l4.487 1.796-2.268-4.724zm10.936-1.32l-3.434-4.093s-.215 3.344-4.221 5.183l-1.013 4.954 2.619-1.826 2.582 3.437 3.467-7.655z" class="I"/><g style="mix-blend-mode:overlay" class="B C"><path d="M203.231 144.876l2.268 4.724-4.488-1.796c.582-1.088 1.331-2.077 2.22-2.928z"/></g><g style="mix-blend-mode:overlay" class="B C"><path d="M206.512 144.646l-1.013 4.954 2.618-1.826-1.605-3.128z"/></g><path d="M287.81 152.491c.003-.007.005-.014.007-.022.053-.32 1.411-8.341 5.307-12.27a16.32 16.32 0 0 1 5.681-3.897c1.117-.446 2.14.613 2.14.613.564-.233 8.555-1.524 9.022.743.32 1.555-.044 2.177-.342 2.686-.2.342-.37.633-.282 1.122.154.848 1.326 2.099 1.326 2.099a1.65 1.65 0 0 1-.168 1.757l-.441.569c-.022.028.656 1.788.656 1.788a1.76 1.76 0 0 1-.033 1.372c-.197.433-.561.766-1.007.921a.1.1 0 0 0-.065.118l.411 1.742c.376 1.524-.534 3.068-2.041 3.464-1.665.405-3.374.186-4.067.098-.208-.027-.325-.042-.321-.025.134.543.311 2.189-1.948 3.446-2.582 1.437-6.71 4.44-7.192 4.792l-7.671 12.52-10.524-7.326 10.134-13.04 1.418-3.27zm-82.312-2.891l-1.47-3.062 2.061.169-.591 2.893zm-52.662 69.346l-11.113 4.461 7.702 16.033c-.01.017-.012.02-.015.024.144.296.303.604.468.917l.005.011h.001c.364.69.778 1.414 1.254 2.154 1.506 2.339 3.357 5.003 8.861 10.206s7.779 6.908 9.322 6.291c.62-.248.685-.671.748-1.08.041-.271.082-.536.284-.739.225-.225.652-.159 1.21-.072.698.108 1.603.249 2.576-.11 1.035-.381.871-.965.717-1.514-.087-.31-.171-.608-.034-.854s.425-.247.79-.246c.634.001 1.502.002 2.233-1.301.264-.471.18-.793.085-1.16-.134-.513-.291-1.115.438-2.34 1.251-2.103-8.553-7.789-9.762-8.201s-1.83-5.084-1.83-5.084-3.461.402-5.881-.354c-1.095-.355-1.994-1.155-2.479-2.208l-.104-.302-.009.002-5.467-14.534z" class="F"/><path d="M169.936 246.202c.031-.054.082-.094.142-.11s.124-.008.178.024l7.726 4.495c.092.053.137.162.11.266s-.121.175-.227.175c-.042 0-.082-.011-.117-.032l-7.727-4.495c-.053-.031-.093-.083-.109-.143s-.008-.126.024-.18zm-3.84 3.395c.031-.055.082-.095.142-.111s.125-.007.178.024l8.524 4.96c.092.053.137.162.11.266s-.121.175-.227.175c-.042 0-.082-.011-.117-.032l-8.524-4.959c-.054-.031-.094-.083-.11-.144s-.007-.125.024-.179zm-1.304 3.923c.034-.052.088-.089.149-.101s.124 0 .176.034l5.366 3.573c.087.058.126.166.096.266s-.121.169-.225.169c-.046 0-.091-.014-.129-.04l-5.366-3.573c-.109-.072-.138-.219-.067-.328z" class="E"/><path d="M300.414 143.247a11.86 11.86 0 0 0 .517 2.4l-5.011 15.428 3.183.989 3.621-12.623c.044.209.133.406.262.577.331.405.803.667 1.319.734.198.032.398.047.599.046a9.28 9.28 0 0 0 .823-.048v-.001l2.509-.221c.062-.005.12-.036.16-.084a.24.24 0 0 0 .054-.173c-.004-.063-.033-.123-.081-.164a.23.23 0 0 0-.174-.051l-2.509.221a5.22 5.22 0 0 1-1.304.007c-.398-.048-.763-.246-1.022-.554a.9.9 0 0 1-.078-1.007 1.62 1.62 0 0 1 .851-.496l2.95-1.019c.08-.027.139-.095.155-.179a.24.24 0 0 0-.076-.224c-.063-.056-.152-.074-.231-.046l-2.951 1.018a2.46 2.46 0 0 0-.923.5l.347-1.21c.563-.304.95-.858 1.044-1.494l.606-4.115a2.01 2.01 0 0 0-.268-1.323l.245.189.292.054.142.026c.043-.454.122-.903.236-1.344l.116-.403 15.995-55.766-.449-.139-18.104 55.731-.037.193-1.653-1.385c-.1-.083-.248-.069-.331.032a.24.24 0 0 0 .03.334l2.792 2.338c.404.341.605.868.529 1.394l-.606 4.115c-.093.731-.702 1.282-1.432 1.297-.302-.122-.582-.295-.828-.51a9.92 9.92 0 0 1-.852-3.2c-.006-.071-.044-.136-.103-.176l-.902-.607c-.093-.062-.216-.05-.296.029a.24.24 0 0 0-.033.297c.01.015.997 1.665-.204 5.067a.24.24 0 0 0 .143.303c.123.044.257-.021.301-.144.823-2.334.676-3.896.451-4.738l.186.126zm4.762-.169c-.122.044-.257-.02-.301-.143s.019-.258.141-.303l2.962-1.082c.123-.045.258.019.302.142s-.019.26-.141.304l-2.963 1.082zm-2.019 8.972c.429-.263.888-.47 1.367-.619.123-.044.257.021.3.145s-.021.259-.143.303c-.443.136-.867.327-1.265.567a1.75 1.75 0 0 0-.766.986c-.108.384.024.795.334 1.041.107.074.135.22.063.328s-.217.138-.325.066c-.478-.357-.688-.974-.529-1.551.155-.528.499-.979.964-1.266z" fill="#000"/><path d="M462.187 119.417c-1.105-5.646-2.874-9.85-10.061-4.805 0 0-.063-5.592-2.606-7.8s-18.609-12.047-19.223 4.123l-.295 16.233c0 3.243 4.655 14.23 8.525 14.23a9.89 9.89 0 0 0 2.71-.427 35.94 35.94 0 0 1-4.126 12.784l23.771-4.678s-4.108-6.454-4.965-19.13c3.624-3.251 7.08-6.397 6.27-10.53z" class="F"/><path d="M470.746 81.518c-11.194 0-11.259 10.6-11.259 10.6l1.775 3.159c-13.153-9.615-20.684-.877-20.684-.877-10.576-2.305-15.946 4.647-16.75 12.935s6.299 11.649 6.299 11.649l.121-5.828c3.532-1.984 2.845-4.267 3.273-5.423 1.251 5.855 11.353 8.494 13.4 10.36 2.174 1.982 2.412 6.396 3.663 6.396s.562-6.521 4.467-8.739c4.987-2.832 6.366 3.008 5.449 6.036-1.013 3.342-4.863 7.341-4.863 7.341l.481 5.496c7.779-4.902 13.568-16.036 12.681-25.924l.001.001c8.941-.247 12.336-3.46 15.006-8.895 2.823-5.746-1.866-18.288-13.06-18.288z" class="G"/><path d="M468.891 101.668c-3.043-6.486-8.1-9.414-9.404-9.549-1.654-.171-2.241.675-2.241.675l.001.001c1.55.792 3.027 1.721 4.413 2.778 5.262 3.962 7.344 9.692 7.225 15.64.423-.222.825-.482 1.203-.776.559-.456 1.846-2.282-1.197-8.769z" class="J"/><g style="mix-blend-mode:overlay" class="B C"><path d="M441.267 140.62s7.02-3.641 9.249-5.996a15.67 15.67 0 0 1-3.739 10.679c-1.991 2.262-5.108 2.919-7.296 3.069a35.11 35.11 0 0 0 1.786-7.752z"/></g><path d="M439.255 112.842c.318-.361.756-.642 2.069-.561s3.303 1.324 2.865 1.645-1.751-.763-2.785-.401-1.629.658-1.977.461c-.437-.247-.325-.97-.172-1.144zm-5.691-.368c-.416-.238-.921-.361-2.138.142s-2.702 2.329-2.185 2.49 1.413-1.292 2.508-1.287 1.752.093 2.018-.206c.335-.377-.002-1.025-.203-1.139z" class="G"/><g style="mix-blend-mode:overlay" class="B C"><path d="M435.831 128.733a2.93 2.93 0 0 1-1.512-.391c-.331-.177-.565-.494-.641-.863-.11-.696.509-2.061 1.153-3.398l.239-.508c.832-1.927.454-5.597.45-5.634a.24.24 0 0 1 .095-.217c.068-.05.157-.059.234-.025s.129.107.138.191c.016.156.395 3.832-.486 5.874l-.247.525c-.393.815-1.209 2.51-1.113 3.117.06.231.214.425.423.535a2.64 2.64 0 0 0 2.033.207c.124-.04.256.029.295.153s-.028.258-.151.298c-.295.092-.601.138-.91.136z"/></g><path d="M434.927 133.388a.56.56 0 0 1 .048-.424c.072-.13.192-.225.334-.265l2.991-.932a24.95 24.95 0 0 0 3-1.439.55.55 0 0 1 .54.005.56.56 0 0 1 .282.464c.067 1.485-.11 4.387-2.427 4.978-2.817.719-4.292-.818-4.768-2.387z" class="G"/><path d="M436.151 135.241s2.425-3.415 5.888-2.635c0 0 .005 2.667-2.228 3.268-2.403.647-3.66-.633-3.66-.633z" fill="#e55151"/><path d="M442.475 117.463a6.87 6.87 0 0 0-1.37-.166c-.494 0-.895.664-.895 1.484s.401 1.485.895 1.485.896-.665.896-1.485c.006-.36-.081-.715-.253-1.03.359.011.716.066 1.063.163.336.098.359-.287-.336-.451zm-8.947.617a7 7 0 0 0-1.265-.164c-.02-.002-.024-.001-.027-.001l-.078-.001-.004.015c-.45.078-.802.702-.802 1.469 0 .82.4 1.485.895 1.485s.895-.665.895-1.485a2.07 2.07 0 0 0-.251-1.027c.329.018.655.071.973.159.336.099.359-.286-.336-.45z" class="G"/><path d="M453.004 106.179c-.099 0-.187-.062-.221-.156-2.537-7.062-9.891-10.221-9.965-10.252s-.132-.104-.143-.188.023-.168.09-.219.156-.063.234-.03 7.619 3.272 10.225 10.528c.045.123-.018.259-.14.303-.026.009-.053.014-.08.014zm25.549-3.594c-.093 0-.178-.056-.215-.143a.24.24 0 0 1 .044-.256c4.937-5.319 1.711-12.023 1.678-12.09-.057-.117-.01-.259.106-.317s.256-.011.314.106c.035.07 3.402 7.069-1.755 12.626-.045.048-.107.075-.172.075z" class="D"/><path d="M458.174 118.119c-1.13-.387-2.223.649-3.051 1.82l-.004.007a15.51 15.51 0 0 0-1.455 2.639c-.05.121.006.26.125.31s.257-.006.308-.126a14.57 14.57 0 0 1 1.359-2.485c.483-.086.981.005 1.403.258a1.87 1.87 0 0 1 .742 1.324c.019.114.117.198.232.198.013 0 .025-.001.038-.003.062-.01.116-.045.153-.096a.23.23 0 0 0 .04-.176 2.32 2.32 0 0 0-.944-1.641c-.386-.246-.835-.373-1.291-.364.684-.855 1.465-1.466 2.194-1.216.122.041.255-.025.297-.149s-.024-.257-.146-.3h0zm-17.286 22.914c-.111 0-.207-.079-.23-.188s.033-.22.135-.265c.079-.036 7.944-3.584 11.264-7.873a.23.23 0 0 1 .217-.089c.083.012.154.067.185.145a.24.24 0 0 1-.032.235c-3.393 4.383-11.117 7.868-11.444 8.014-.03.014-.062.021-.095.021z" class="E"/><path d="M469.502 431.263c-1.008-.403-1.655-1.402-1.615-2.495l-.041.337.903-6.862c.419-2.668 1.366-3.433 1.366-3.433s8.17-1.651 9.211-.905c.517.371 1.083 1.61 1.785 3.147l.79 1.696.666 1.359c1.162 2.355 2.404 4.87 2.813 7.06a17.66 17.66 0 0 0-.552-1.967c-.493.805-1.186 1.467-2.011 1.919-2.893 1.61-10.906 1.741-13.315.144zm-72.148-3.615c1.547-.982 12.493-4.148 12.493-4.148l19.812-4.995s2.191 3.942 2.185 7.798c.016 1.432-.324 2.844-.988 4.109-.548 1.011-1.594 1.644-2.736 1.657-5.521.088-26.652.354-29.145-.069-2.929-.497-3.169-3.369-1.621-4.352z" fill="#7686d6"/><path d="M478.538 390.544l.632 26.364 1.873 7.189c-.482 2.757-10.777 3.74-11.292.105-.078-.551.286-6.808.286-6.808l-3.027-25.917 11.528-.933zm-59.946 28.025c2.784-2.398 1.543-16.036 1.543-16.036l9.538 1.522-.014 14.45c.16 1.313-6.11 4.913-11.319 5.726s-9.521.477-9.602-.015c-.031-.19.919-.635 2.294-1.279 2.19-1.026 5.458-2.557 7.56-4.368z" class="F"/><g style="mix-blend-mode:overlay" class="B C"><path d="M409.803 432.233c.905-2.186 2.999-3.631 5.347-3.691 4.715-.183 5.649 3.613 5.649 3.613l-10.996.078z"/></g><path d="M482.817 431.119c.825-.452 1.518-1.114 2.011-1.919 0 0 .852 2.409.69 3.546v.933h-17.953v-.933l.322-3.978c-.04 1.093.607 2.092 1.615 2.495 2.408 1.597 10.422 1.466 13.315-.144zm-54.697.95c1.142-.013 2.188-.646 2.736-1.657.141-.264.267-.535.377-.813h0c-.134.762-.328 1.511-.58 2.242-.388 1.104-1.424 1.842-2.585 1.842l-29.452-.043c-1.046-.001-1.921-.8-2.027-1.849l-.178-1.764.079-.009c.236.899 1.027 1.735 2.484 1.982 2.494.423 23.625.157 29.146.069z" class="I"/><path d="M423.725 227.111c-5.36 41.326-8.268 75.086-8.419 80.863-.151 5.745 3.226 103.008 3.226 103.008s8.976.904 12.908-1.088l4.395-45.819c1.387-11.704 4.928-36.912 4.928-48.187 3.516-15.365 6.445-33.839 6.445-33.839l5.012 31.206 16.432 97.572c.723.405 6.111 1.31 11.922-.792 0 0-.877-17.572-.645-27.533s-.334-50.346-3.804-67.777c0 0 1.639-15.672 3.795-27.321 1.367-7.39 3.256-19.387 1.591-30.487-2.116-14.104-6.032-17.527-8.452-30.931-14.626-6.379-34.088-6.799-49.334 1.125z" class="J"/><g style="mix-blend-mode:overlay" class="B C"><path d="M447.208 282.049l-5.348-23.678s-5.679 12.981-5.064 23.053 4.305 9.497 5.27 28.518l5.142-27.893z"/></g><g style="mix-blend-mode:overlay" class="B D"><path d="M419.584 261.595s4.713 1.517 4.297 6.841-3.032 33.241-3.077 43.106 1.502 37.152 0 42.4-4.008 5.674-4.008 5.674l-1.49-51.642c.569-11.669 4.278-46.379 4.278-46.379z"/></g><g style="mix-blend-mode:overlay" class="B D"><path d="M450.647 303.492s4.872 1.155 7.058 11.109 7.059 45.218 8.056 53.719-2.305 13.637-2.305 13.637l-12.809-78.465z"/></g><path d="M477.841 242.304c-3.686 0-6.609-1.145-8.685-3.402-3.906-4.245-3.462-10.849-3.442-11.128.005-.062.033-.121.081-.162s.109-.061.171-.056c.129.01.226.123.217.254-.005.066-.447 6.681 3.318 10.772 1.985 2.156 4.791 3.249 8.34 3.249.13 0 .235.106.235.236s-.105.237-.235.237zm-56.357 1.041c-.108 0-.202-.074-.228-.18s.023-.216.119-.266c.084-.045 8.376-4.515 7.938-12.54-.006-.13.093-.24.222-.247s.238.091.247.221c.455 8.332-8.103 12.94-8.19 12.985-.033.018-.07.027-.108.027z" class="E"/><g style="mix-blend-mode:overlay" class="B C"><path d="M423.725 227.11l-.92 7.207s18.824 10.842 53.764 5.254c0 0-3.029-9.135-3.51-13.585l-49.334 1.124z"/></g><path d="M487.335 172.419l7.378 19.474c3.241 8.168 2.448 14.859-7.337 16.844-2.155.436-8.951 1.704-16.354 2.988a125.43 125.43 0 0 0 2.562 14.467c.233.987-.159 2.016-.985 2.594-7.926 5.38-40.403 7.668-48.496 1.252-.841-.683-1.256-1.767-1.087-2.843 2.204-14.778 1.214-24.522-.434-28.727l-.727-1.792c-1.01-2.449-1.863-4.515-2.044-7.444-4.369 5.903-11.125 13.905-16.941 13.825-4.532-.063-9.783-3.464-19.774-19.626l-1.691-2.711-9.314-15.078c3.995.397 7.747-1.992 9.109-5.799l9.921 12.911 11.152 12.68c.254.292.64.429 1.02.364s.699-.323.844-.683c1.857-4.57 3.974-9.028 6.34-13.352 2.028-3.772 4.397-7.349 7.077-10.683a27.32 27.32 0 0 1 11.984-8.294c.044-.018 9.769-3.349 9.769-3.349s-3.947 13.774 5.217 13.2c12.628-.792 15.996-14.767 15.996-14.767s7.149 1.886 10.735 3.063c8.999 2.156 10.084 5.119 16.08 21.486zm-16.719 27.135l8.664-3.211a1.27 1.27 0 0 0 .728-.705 1.29 1.29 0 0 0-.013-1.018l-6.871-15.294c-.261 3.884-.75 7.749-1.463 11.575a58.95 58.95 0 0 0-1.045 8.653z" class="I"/><path d="M460.52 147.87l8.083 2.237s1.556 8.869-12.025 10.598c1.173 5.291-7.457 13.22-14.941 1.748 0 0 13.691 2.601 18.883-14.583zm-28.913 4.213l7.7-2.646c-2.947 10.864 2.33 13.016 2.33 13.016-8.271 9.022-10.617-1.685-6.913-4.612-4.074-3.486-3.117-5.758-3.117-5.758z" class="J"/><g style="mix-blend-mode:overlay" class="B D"><path d="M402.54 191.377c-3.491-3.757-15.129-16.712-11.418-18.624l11.15 12.68a1.11 1.11 0 0 0 1.022.365c.38-.065.7-.323.846-.683 1.855-4.571 3.971-9.029 6.338-13.353 1.532 3.122-1.222 11.86-6.189 19.461-.188.289-.497.475-.838.505s-.677-.1-.911-.351z"/></g><path d="M401.372 192.017c-.075 0-.143-.045-.172-.115a.19.19 0 0 1 .038-.204c2.19-2.277 1.86-5.408 1.856-5.44-.012-.103.061-.196.163-.208s.195.062.207.165c.171 2.107-.54 4.189-1.959 5.745-.035.036-.083.057-.133.057z" class="E"/><g style="mix-blend-mode:overlay" class="B C"><path d="M419.861 186.11c.215-2.543 1.483-7.495 2.828-14.067-.459.42-.896.865-1.309 1.332-6.02 6.803-1.481 13.219-4.154 17.089-5.318 7.7-6.472 3.363-11.05 7.607-1.344 1.246-1.9 2.808-1.978 4.854 3.828-.337 11.234-7.167 15.751-12.317a19.56 19.56 0 0 1-.088-4.498z"/></g><g style="mix-blend-mode:overlay" class="B C"><path d="M421.261 195.214s3.982 3.704 8.081 3.781c2.8.052 3.395 1.582.508 2.208-1.34.291-3.829.057-6.477-.015-.534-2.048-1.24-4.047-2.112-5.974h0z"/></g><g style="mix-blend-mode:overlay" class="B C"><path d="M471.017 211.726l-4.419.756c.319 2.07.359 3.942.094 5.047-1.717 7.15-9.211 12.049-13.425 13.063a21.93 21.93 0 0 0-7.299 3.341s18.333-.096 26.631-5.147c0 0 1.42-.599.985-2.594-1.257-4.74-2.116-9.58-2.567-14.466h0z"/></g><g style="mix-blend-mode:overlay" class="B C"><path d="M460.172 201.905c.541-.007 1.074.127 1.548.39l6.403-1.862 2.539-.895.089-2.172c.258-4.897 1.719-8.281 2.428-17.92l-4.184-8.982c.228 4.782.503 15.189-1.054 20.437-1.405 4.734-6.991 7.149-10.772 7.803-5.776 1-5.015 3.394 3.003 3.201z"/></g><path d="M441.136 181.61h-.007c-.13-.004-.232-.113-.229-.243l.542-18.605c.012-.127.115-.226.242-.23.13.004.232.113.228.244l-.542 18.604c-.003.128-.107.23-.234.23zm13.032 33.032c-.101.003-.186-.074-.195-.175s.061-.192.16-.208l12.452-1.954a.19.19 0 0 1 .178.069c.043.054.054.127.03.191a.19.19 0 0 1-.15.12l-12.451 1.954c-.008.002-.016.002-.024.003z" class="E"/><g style="mix-blend-mode:overlay" class="B D"><path d="M483.474 198.19c-4.426 1.785-17.25 7.477-19.358 3.463 6.674-1.889 15.164-5.31 15.164-5.31.322-.105.584-.344.72-.657s.133-.67-.009-.98c-.988-2.039-2.645-6.237-5.611-12.534 1.004-.404 3.091-.004 3.747 1.22.76 1.423 4.584 9.019 6.205 12.082.364.688.312 2.243-.858 2.716z"/></g><path d="M484.21 199.214a.19.19 0 0 1-.187-.161c-.021-.126-.552-3.094-4.038-3.195-.105-.003-.188-.091-.185-.197s.091-.19.196-.187c2.115-.046 3.963 1.43 4.403 3.517.017.104-.053.203-.157.22-.011.002-.021.003-.032.003zm-10.286-20.08c-.039 0-.077-.012-.109-.034-5.454-3.82-5.472-12.133-5.471-12.217a.19.19 0 0 1 .19-.191h.002c.105.001.19.087.189.193 0 .082.02 8.196 5.308 11.899.068.048.098.135.073.215a.19.19 0 0 1-.182.135h0z" class="E"/><g style="mix-blend-mode:overlay" class="B D"><path d="M417.715 160.869s8.413-5.237 18.059-7.173l-.227-2.967c-3.986 1.603-11.576 2.713-17.832 10.14z"/></g><path d="M451.664 219.721l-14.653-25.078-4.008-6.859c-.318-.546-.899-.881-1.527-.88h-23.748a2.26 2.26 0 0 0-1.687 1.104 3.51 3.51 0 0 0-.214.347c-.1.18-.181.37-.243.567a1.77 1.77 0 0 0 .038 1.452l-.025-.051a.76.76 0 0 0 .037.089l.013.017.046.089 13.055 22.343 2.367 4.046 3.239 5.548a1.77 1.77 0 0 0 1.528.88h23.747c.087-.001.174-.008.26-.021 1.372-.005 2.472-2.4 1.775-3.593z" fill="#36c9d8"/><g style="mix-blend-mode:overlay" class="B C"><path d="M405.502 190.058a1.93 1.93 0 0 1-.036-.187 1.47 1.47 0 0 0 .036.187zm.093.264c.014.029.024.061.04.088l.021.034-.061-.122z"/><path d="M405.575 190.278a1.86 1.86 0 0 1-.073-.218 1.36 1.36 0 0 0 .073.218zm44.314 33.036c.583-.087 1.086-.461 1.34-.997a1.8 1.8 0 0 0-.073-1.678l-14.939-25.564-3.722-6.373c-.318-.546-.899-.881-1.527-.88h-23.747a1.76 1.76 0 0 0-1.637 1.1c.062-.197.143-.387.243-.567a3.17 3.17 0 0 1 .214-.347 2.26 2.26 0 0 1 1.687-1.104h23.748c.627-.001 1.209.334 1.527.88l4.008 6.86 14.653 25.077c.697 1.193-.403 3.588-1.775 3.593z"/></g><g style="mix-blend-mode:overlay" class="B C"><path d="M407.004 189.467h1.643a.3.3 0 0 1 .261.15l.402.693c.054.094.055.211.001.305a.3.3 0 0 1-.262.153h-1.643a.3.3 0 0 1-.261-.151l-.402-.692a.31.31 0 0 1-.001-.306c.054-.094.154-.152.262-.152z"/></g><g style="mix-blend-mode:overlay" class="B C"><path d="M423.204 200.858h2.156c.635.026 1.228.324 1.63.82.926 1.104.497 2.491-.77 2.491h-2.156c-.634-.026-1.228-.324-1.63-.82-.926-1.104-.497-2.491.77-2.491z"/></g><path d="M378.435 150.851s-.194-3.918-1.38-5.008a2.97 2.97 0 0 0-2.718-.613l-.234-.545-.443-1.012h0l-.705-1.651c-1.561-4.343-4.281-9.927-5.636-9.467-1.068.362-.192 2.836 1.939 8.85v.001l.889 2.518c-.178-.323-1.134-1.514-2.994-.782-1.308.512-.395 2.764-.395 2.764s-1.851-.818-2.749.129c-.979 1.038-.117 2.798-.051 2.916-.103-.05-1.831-.876-2.524.725-.274.637.419 2.494 1.754 4.681.166.271.341.546.524.825l.125.188.003.001c.338.505.708 1.021 1.103 1.536h.003l.334.437c1.984 2.596 2.939 3.844 6.011 4.953l1.827 3.366c3.3-.037 6.292-1.964 7.711-4.969-.591-.977-1.121-1.991-1.584-3.036l-.81-6.807zm71.546 55.117l.006.032a5.82 5.82 0 0 1-1.672.028c-.212-.07-.483-.134-.785-.206-.769-.182-1.745-.413-2.496-.924-.571-.388-1.835-1.999-2.942-3.409-.926-1.18-1.741-2.218-1.946-2.282-.451-.139-1.771 1.931-.805 3.406.303.464.626.906.919 1.306h0c.638.871 1.129 1.543.948 1.81-.194.285-1.168.413-2.085.534h0l-.465.063c-2.063.229-6.811.784-7.272 1.095-.592.399-.873 1.475.248 1.726.576.129-.227.5-.906.814-.28.13-.54.25-.672.339-.591.399-.873 1.475.249 1.726.869.194 2.253.512 1.87.77-.592.398-.873 1.475.249 1.725.185.042.441.089.716.14.837.156 1.858.346 1.63.5-.53.357-.781 1.319.222 1.544.628.141 3.993-.271 6.421-.599 1.471.295 5.554-.104 7.186-1.142.993-.555 2.061-.96 3.169-1.204a12.54 12.54 0 0 0-1.375-7.89l-.412.098zm-6.738-43.317c-8.079-.28-4.132-12.433-4.132-12.433l21.409-2.348c-1.41 9.321-8.852 15.073-17.277 14.781z" class="F"/><path d="M439.018 208.651a.17.17 0 0 0-.061-.116c-.035-.029-.08-.043-.125-.039l-7.478.729c-.091.009-.16.09-.153.183a.17.17 0 0 0 .176.16l.01-.001 7.477-.728c.046-.005.087-.027.116-.062s.042-.081.038-.126zm.465 3.171c-.012-.094-.097-.16-.19-.149l-7.596.97c-.09.011-.156.093-.149.184s.086.162.177.158l.015-.001 7.596-.97c.044-.006.085-.029.113-.065a.17.17 0 0 0 .034-.127zm1.194 2.518l-6.381.667c-.092.01-.159.091-.153.184a.17.17 0 0 0 .177.159h.011l6.381-.668c.094-.01.162-.094.153-.189s-.094-.162-.188-.153z" class="E"/><path d="M372.413 150.121c-.103.002-.184.087-.183.191.009.488-.052 1.099-.39 1.243-.484.207-1.484-.543-2-1.064-.058-.059-.147-.072-.219-.034a.19.19 0 0 0-.096.202c.201 1.044.085 1.74-.344 2.069-.869.665-2.778-.281-2.797-.291-.028-.013-.059-.02-.09-.018l-1.596-2.819c-.043-.094-.154-.136-.247-.092s-.135.154-.092.249c.374.822 1.258 2.221 1.702 3.005.015.025.036.046.061.061.032.682-.104 1.165-.424 1.416-.536.421-1.422.109-1.43.106-.097-.036-.204.015-.238.113s.015.205.112.24a2.61 2.61 0 0 0 .818.137c.345.012.685-.093.965-.298.446-.417.662-1.026.581-1.633.616.26 2.068.759 2.9.123.466-.357.655-.998.563-1.91.51.432 1.392 1.05 2.016.784.425-.181.633-.718.618-1.596 0-.05-.021-.097-.056-.132a.18.18 0 0 0-.134-.052zm1.894-.77c-1.328.215-4.949.588-5.739-.26a.52.52 0 0 1-.12-.504c.427-1.909 5.482-3.064 5.533-3.075.065-.015.117-.063.137-.127a.19.19 0 0 0-.04-.184c-.045-.049-.113-.071-.178-.056-.207.047-4.847 1.109-5.711 3.054l-.957-1.674c-.049-.09-.162-.123-.252-.074s-.123.163-.075.254l1.152 2.014.002.003c-.007.232.079.458.238.626.472.507 1.615.654 2.787.654 1.099-.014 2.196-.108 3.282-.28.101-.017.17-.113.154-.215s-.111-.172-.213-.156h0z" class="C"/><path d="M508.4 372.137v2.085a3.97 3.97 0 0 0 1.638 3.213l4.6 44.028c.436 4.163 3.756 7.296 7.718 7.296h39.373c3.958 0 7.285-3.145 7.717-7.296l4.601-44.028a3.97 3.97 0 0 0 1.637-3.209v-2.089c-.003-1.827-1.243-3.415-3.004-3.848h-61.275c-1.76.434-3 2.022-3.005 3.848z" fill="#ffb66d"/><path d="M566.862 368.156c1.104-4.964 1.93-9.789 2.216-14.001 1.243-18.194 3.038-62.759 3.057-63.195.04-2.684-2.051-4.911-4.713-5.02s-4.924 1.941-5.1 4.619l-3.038 62.93c-.293 4.291-1.24 9.404-2.498 14.675h-1.878c.812-11.212 1.454-22.86 1.563-32.354l2.152-98.175a4.96 4.96 0 0 0-2.347-4.346 4.88 4.88 0 0 0-4.909-.125 4.95 4.95 0 0 0-2.561 4.221c0 .704-1.799 70.903-2.156 98.292-.098 7.569-.548 16.56-1.127 25.585V200.369c.05-1.801-.875-3.486-2.415-4.401a4.88 4.88 0 0 0-4.99 0c-1.54.915-2.465 2.6-2.415 4.401v144.75c-.511-8.155-.883-16.166-.973-23.03l-2.156-98.297a4.91 4.91 0 0 0-1.508-3.469c-.944-.906-2.21-1.392-3.513-1.348-1.302.033-2.537.585-3.435 1.536a4.97 4.97 0 0 0-1.349 3.535c0 .704 1.795 70.842 2.152 98.171.176 13.475 1.423 31.234 2.655 45.939h-.109c-1.791-11.39-3.451-24.021-3.932-33.565l-3.252-79.489c-.104-2.73-2.385-4.859-5.095-4.755s-4.822 2.403-4.719 5.133l3.257 79.618c.484 9.589 2.069 21.85 3.785 33.066h-5.168a3.86 3.86 0 0 0-.938.125h61.274a3.86 3.86 0 0 0-.938-.125l-4.879-.008z" class="L"/><g style="mix-blend-mode:overlay" class="B C"><path d="M527.553 368.156h9.87c-1.243-14.679-2.513-32.593-2.689-46.068l-2.156-98.296a4.94 4.94 0 0 0-1.514-3.467c-.944-.905-2.208-1.393-3.511-1.354-2.714.068-4.859 2.34-4.792 5.074 0 .704 1.795 70.843 2.152 98.172.177 13.475 1.424 31.23 2.64 45.939z"/></g><g style="mix-blend-mode:overlay" class="B C"><path d="M554.893 368.156c.827-11.205 1.469-22.852 1.578-32.347l2.152-98.175c.069-2.731-2.072-5.003-4.783-5.073s-4.965 2.088-5.034 4.82c0 .707-1.799 70.906-2.156 98.296-.124 9.517-.796 21.252-1.615 32.494l9.858-.015z"/></g><g style="mix-blend-mode:overlay" class="B C"><path d="M510.751 384.25h62.582l.65-6.195h-63.881l.649 6.195z"/></g><path d="M66.316 101.908h-9.984v-4.861h37.086 0 72.293v4.861h-13.692l-17.358 17.388-3.575-.045-.046.045v-17.388H93.418h0-6.101L69.94 119.296l-3.579-.045-.046.045v-17.388z" class="K"/><g style="mix-blend-mode:overlay" class="B C"><path d="M66.19 119.296v-17.989h17.839L66.19 119.296z"/></g><g style="mix-blend-mode:overlay" class="B C"><path d="M85.336 103.674H66.19v-1.893h21.125l-1.979 1.893z"/></g><g style="mix-blend-mode:overlay" class="B C"><path d="M130.973 119.296v-17.989h17.838l-17.838 17.989z"/></g><g style="mix-blend-mode:overlay" class="B C"><path d="M150.118 103.674h-19.145v-1.893h21.124l-1.979 1.893z"/></g><g style="mix-blend-mode:overlay" class="B C"><path d="M56.332 97.047h37.086v4.734H56.332z"/></g><path d="M97.579 55.388H63.445a1.95 1.95 0 0 0-1.949 1.942v37.768a1.95 1.95 0 0 0 1.949 1.949h34.134a1.95 1.95 0 0 0 1.942-1.949V57.329a1.94 1.94 0 0 0-1.942-1.942z" class="J"/><g style="mix-blend-mode:overlay" class="B C"><path d="M97.558 55.388h-5.55a1.95 1.95 0 0 1 1.946 1.942v.51h2.281a1.39 1.39 0 0 1 .986.411c.261.263.407.619.405.99v36.405a1.4 1.4 0 0 1-1.391 1.401h1.346a1.95 1.95 0 0 0 1.939-1.949V57.329c0-.519-.207-1.016-.576-1.381s-.868-.567-1.386-.561z"/></g><path d="M96.264 57.755h-2.296v37.339c0 1.079-.877 1.954-1.959 1.954h4.233c.775-.004 1.401-.632 1.401-1.404V59.159a1.4 1.4 0 0 0-1.378-1.404h0z" fill="#ffe6a5"/><rect x="68.538" y="65.802" width="20.186" height="9.468" rx="2.43" class="D"/><path d="M143.06 64.998a33.04 33.04 0 0 1 2.686-2.856c4.109-3.861 19.496-10.244 19.496-10.244a54.74 54.74 0 0 0-15.28 12.826c-6.385 8.012-6.385 11.234-6.385 11.234h-3.044-1.522v.259l-7.921-.274s-.472-3.008-6.849-11.234c-3.854-4.893-8.384-9.211-13.454-12.826 0 0 12.891 4.189 16.658 7.852a22.75 22.75 0 0 1 3.363 4.279c-.109-1.398-.252-2.853-.434-4.333-3.416-27.967-15.462-39.528-15.462-39.528s7.914 3.199 15.097 15.59a43.22 43.22 0 0 1 3.569 8.553l-1.172-31.516s6.126 15.232 8.774 30.609c2.125-4.71 4.531-9.288 7.207-13.709l-5.327 35.316zm-11.962 4.784h0 0 0l-.039-1.486.069 2.392-.03-.905zm.053.996v1.973l-.002-.569.002-1.403zm0 2.917v-.762a14.37 14.37 0 0 1 0 .777v-.015zm6.392.784v-.076l.076-.129c-.009.031-.023.058-.037.085-.02.041-.039.079-.039.12z" class="L"/><path d="M151.143 75.759h-28.151v3.534 7.137c0 5.864 4.772 10.617 10.658 10.617h6.858c5.883-.004 10.65-4.757 10.65-10.617V75.744l-.015.015z" class="K"/><g style="mix-blend-mode:overlay" class="B C"><path d="M126.625 75.759v10.686c.008 5.858 4.685 10.602 10.451 10.602h-3.156c-2.773.002-5.433-1.116-7.394-3.107s-3.064-4.693-3.064-7.51V75.744l3.163.015z"/></g><g style="mix-blend-mode:overlay" class="B C"><path d="M151.158 79.057h-28.166v-3.314h28.166z"/></g><g style="mix-blend-mode:overlay" class="B C"><path d="M131.141 75.744h3.587l-1.15-31.245a43.37 43.37 0 0 0-3.55-8.558c-7.145-12.384-15.016-15.584-15.016-15.584s11.981 11.568 15.379 39.552c.609 5.255.859 10.546.75 15.836z"/></g><g style="mix-blend-mode:overlay" class="B C"><path d="M143.1 65.236l5.242-35.412s-7.564 12.394-11.025 24.354c-3.25 11.249-1.865 20.077-1.595 21.566h1.565c1.245-3.856 3.22-7.427 5.813-10.508z"/></g><path d="M87.267 212.371a1.36 1.36 0 0 0-1.359 1.359 1.36 1.36 0 0 0 1.296 1.357v8.357c0 3.358 2.197 6.198 5.22 7.139v2.092h10.511v-2.092c3.023-.941 5.22-3.781 5.22-7.139v-8.357a1.36 1.36 0 0 0 1.296-1.357 1.36 1.36 0 0 0-1.359-1.359H87.267z" fill="#ffb66d"/><path d="M108.827 184.227c-.297.043-.489-.159-.71-.391-.127-.134-.263-.277-.435-.39-.224-.146-.372-.088-.509-.033-.151.06-.289.115-.5-.113-.129-.139-.241-.315-.347-.484-.229-.361-.435-.686-.733-.525-.189.103-.24.263-.277.381-.05.155-.076.239-.361.026-.235-.174-.363-.459-.456-.664-.105-.233-.164-.364-.281-.112a3.83 3.83 0 0 0 .093 1.619c-3.286.275-5.835 5.548-7.041 8.782-.582 1.718-.898 3.515-.939 5.33 0 .18-.008.359-.015.534l-.013.389v.592a8.19 8.19 0 0 0-2.882-1.207c.028-.672-.113-1.686-.385-1.662-.165.015-.322.284-.496.581-.218.374-.463.792-.781.811-.19.011-.329-.006-.444-.02h0c-.232-.027-.369-.044-.635.2-.267.285-.661.41-1.042.331-.218-.019-.275.189-.341.433-.068.25-.147.539-.419.665-.233.109-.46.048-.655-.005-.258-.069-.462-.124-.556.242-.062.244-.044.462-.028.643.025.297.042.494-.319.541-.582.075-1.145.615.338.819h.765c-.378 2.838 2.065 5.858 4.145 8.431.789.975 1.526 1.886 2.037 2.698h6.6c.048-1.142.027-2.287-.061-3.427.69.08 2.253.189 3.258-.369.247-.129.459-.316.619-.545.991-1.448.634-4.606-1.615-4.355-1.183.128-2.117 1.292-2.6 2.04l-.08.128a16.18 16.18 0 0 0-.784-2.698l.413-.474 2.85-3.067c.483-.525.926-1.087 1.323-1.681 2.413-3.503 4.638-9.335 3.258-12.55l1.85-.662c.103-.034-.338-.857-.808-.782z" class="L"/><g style="mix-blend-mode:overlay" class="B C"><path d="M100.128 201.412c-.643.033-1.878-1.7-2.732-2.888a2.61 2.61 0 0 0-1.08-.871l-.028.923v.649c.544.351 1.064.74 1.554 1.164.92.861 1.624 1.93 2.052 3.12l.47-.511 2.849-3.068a13.93 13.93 0 0 0 1.324-1.68c-.54.435-3.821 3.129-4.408 3.162z"/></g><g style="mix-blend-mode:overlay" class="B C"><path d="M101.822 208.693c-.742-.308.066-1.42-.436-2.514-.061-.123-.442-.085-.583-.152l-.079.128a24.67 24.67 0 0 1 .417 3.087c.691.08 2.254.189 3.258-.369a7.48 7.48 0 0 1-2.577-.18z"/></g><g style="mix-blend-mode:overlay" class="B C"><path d="M87.665 201.53s2.558.1 3.028-.473.606-.985.939-1.084a1.28 1.28 0 0 0 .911-.611 7.18 7.18 0 0 1 .742-.852c.235-.303.099-2.239-.272-2.206s-.704 1.359-1.277 1.392-.676-.185-1.08.18c-.267.285-.661.41-1.042.331-.418-.043-.197.843-.737 1.093s-1.047-.407-1.211.237.235 1.108-.347 1.184-1.136.606.347.809z"/></g><g style="mix-blend-mode:overlay" class="B C"><path d="M104.381 183.754l3.286 1.969 1.986-.714c.103-.034-.338-.848-.808-.782s-.676-.473-1.145-.781-.606.289-1.009-.146-.662-1.245-1.099-1.009-.136.781-.638.407-.517-1.249-.737-.776.164 1.832.164 1.832z"/></g><g style="mix-blend-mode:overlay" class="B C"><path d="M91.152 204.711c-.08.002-.157-.035-.206-.099l-.606-.753c-.093-.116-.076-.287.04-.381s.285-.076.378.04l.606.748c.046.057.067.129.059.201s-.044.138-.101.183c-.047.041-.107.063-.169.061z"/></g><g style="mix-blend-mode:overlay" class="B C"><path d="M95.241 206.614a.27.27 0 0 1-.211-.104l-.601-.748c-.06-.075-.076-.177-.042-.267s.114-.156.209-.171.191.022.251.098l.601.747c.094.117.077.288-.037.384a.29.29 0 0 1-.169.061z"/></g><g style="mix-blend-mode:overlay" class="B C"><path d="M102.34 207.083a.24.24 0 0 1-.113 0 .26.26 0 0 1-.142-.151.27.27 0 0 1 .01-.209l.395-.875c.03-.102.117-.178.221-.193a.27.27 0 0 1 .267.12c.059.089.061.204.005.295l-.399.881c-.051.085-.145.136-.244.132z"/></g><g style="mix-blend-mode:overlay" class="B C"><path d="M103.54 208.768a.24.24 0 0 1-.113 0c-.065-.029-.115-.084-.14-.152s-.022-.142.009-.207l.174-.351c.059-.102.112-.208.159-.317.016-.117.104-.212.22-.234s.232.033.289.137.041.233-.039.32l-.178.355-.16.317a.26.26 0 0 1-.221.132z"/></g><g style="mix-blend-mode:overlay" class="B C"><path d="M104.188 206.643a.28.28 0 0 1-.108 0c-.135-.062-.196-.223-.136-.36l.113-.284c.037-.114.081-.227.131-.336.024-.109.111-.192.221-.209s.218.035.273.132a.27.27 0 0 1-.024.304c-.043.092-.079.187-.108.284l-.132.332c-.048.082-.135.134-.23.137z"/></g><g style="mix-blend-mode:overlay" class="B C"><path d="M99.414 210.733c-.08 0-.156-.036-.206-.099l-.624-.748c-.073-.117-.049-.271.058-.359a.27.27 0 0 1 .36.013l.606.753c.093.115.076.284-.037.379-.044.036-.098.057-.155.061z"/></g><g style="mix-blend-mode:overlay" class="B C"><path d="M95.208 211.173c-.081-.001-.157-.039-.206-.104l-.606-.748c-.093-.117-.077-.287.038-.383.056-.046.127-.068.199-.06s.137.045.181.102l.606.748c.046.056.067.129.059.201s-.044.138-.101.183c-.048.039-.107.06-.169.061z"/></g><g style="mix-blend-mode:overlay" class="B C"><path d="M95.118 201.933c-.082 0-.159-.036-.211-.1l-.601-.753c-.093-.116-.075-.286.04-.381s.285-.076.378.041l.606.748a.27.27 0 0 1 .059.2c-.008.072-.044.138-.101.183a.25.25 0 0 1-.169.062z"/></g><g style="mix-blend-mode:overlay" class="B C"><path d="M97.926 196.432c-.036-.001-.071-.009-.103-.024-.137-.061-.2-.221-.141-.36l.381-.885a.27.27 0 0 1 .352-.142.28.28 0 0 1 .141.36l-.381.885c-.041.102-.14.168-.249.166z"/></g><g style="mix-blend-mode:overlay" class="B C"><path d="M101.541 194.05a.28.28 0 0 1-.108 0 .28.28 0 0 1-.141-.359l.381-.886c.069-.12.216-.17.343-.115s.193.195.155.328l-.381.89c-.05.091-.146.145-.249.142z"/></g><g style="mix-blend-mode:overlay" class="B C"><path d="M101.898 198.581c-.034.009-.07.009-.104 0-.066-.027-.119-.08-.145-.147s-.025-.142.004-.208l.381-.885c.027-.067.08-.12.146-.147a.26.26 0 0 1 .206.005c.067.027.119.08.146.147s.025.142-.005.208l-.38.885c-.048.093-.146.148-.249.142z"/></g><g style="mix-blend-mode:overlay" class="B C"><path d="M105.536 190.656c-.034.007-.069.007-.103 0-.066-.027-.119-.08-.146-.147s-.025-.142.005-.208l.381-.89c.028-.066.08-.118.147-.145a.27.27 0 0 1 .205.003.28.28 0 0 1 .141.36l-.381.885c-.048.093-.145.148-.249.142z"/></g><g style="mix-blend-mode:overlay" class="B C"><path d="M101.001 188.933c-.036.006-.073.006-.108 0-.136-.062-.196-.222-.137-.36l.376-.885c.069-.12.216-.17.343-.116s.194.196.155.329l-.38.89c-.05.091-.146.146-.249.142z"/></g><g style="mix-blend-mode:overlay" class="B C"><path d="M87.218 214.946h20.838v1.576H87.218z"/></g><g style="mix-blend-mode:overlay" class="B C"><path d="M92.434 230.706h10.487v1.075H92.434z"/></g><rect x="415.452" width="48.488" height="58.522" rx="6" fill="#f2e9ff"/><g style="mix-blend-mode:overlay" class="B"><g style="mix-blend-mode:overlay"><path d="M420.719 51.454h38.86V17.648h-38.86v33.805zm32.03-.411h-5.999v-5.155h5.999v5.155zm-12.407 0h5.999v-5.155h-5.999v5.155zm-.409-5.568v-5.15h-5.994v5.15h5.994zm-6.403 0v-5.15h-5.999v5.15h5.999zm-6.408 0h-5.976v-5.15h5.976v5.15zm.409-5.562h5.999v-5.155h-5.999v5.155zm-.409-5.155v5.155h-5.976v-5.155h5.976zm.409-.413h5.999V29.19h-5.999v5.155zm-.409-5.155v5.155h-5.976V29.19h5.976zm.409-.413h5.999v-5.15h-5.999v5.15zm-.409-5.15v5.15h-5.976v-5.15h5.976zm.409-.413h5.999v-5.155h-5.999v5.155zm-.409-5.155v5.155h-5.976v-5.155h5.976zm0 27.826v5.155h-5.976v-5.155h5.976zm.409 5.155v-5.155h5.999v5.155h-5.999zm12.402-11.13h-5.994v-5.155h5.994v5.155zm0-5.567h-5.994V29.19h5.994v5.155zm0-5.567h-5.994v-5.15h5.994v5.15zm0-5.562h-5.994v-5.155h5.994v5.155zm0 27.827h-5.994v-5.155h5.994v5.155zm.409-11.13h5.999v-5.155h-5.999v5.155zm0 .413h5.999v5.15h-5.999v-5.15zm0-11.547h5.999v-5.15h-5.999v5.15zm0 .413h5.999v5.155h-5.999V29.19zm0-5.975h5.999v-5.155h-5.999v5.155zm12.407 22.259h-5.999v-5.15h5.999v5.15zm0-5.562h-5.999v-5.155h5.999v5.155zm0-5.567h-5.999V29.19h5.999v5.155zm0-5.567h-5.999v-5.15h5.999v5.15zm0-5.562h-5.999v-5.155h5.999v5.155zm.408 27.827h6.014v-5.155h-6.014v5.155zm0-5.568h6.014v-5.15h-6.014v5.15zm0-5.562h6.014v-5.155h-6.014v5.155zm0-5.567h6.014V29.19h-6.014v5.155zm0-5.567h6.014v-5.15h-6.014v5.15zm0-5.562h6.014v-5.155h-6.014v5.155z" fill="#000"/></g></g><path d="M455.368 29.332h-4.14v21.767h4.14V29.332zm-30.161 14.571h4.14v7.196h-4.14v-7.196zm13.013 1.089h4.14v6.107h-4.14v-6.107z" fill="#3871d6"/><path d="M448.862 34.587h-4.141v16.507h4.141V34.587zm-13.009 3.787h-4.14v12.725h4.14V38.374z" fill="#ec7ef2"/><path d="M422.032 4.734c-.523 0-.947.424-.947.947s.424.947.947.947h15.475c.523 0 .947-.424.947-.947s-.424-.947-.947-.947h-15.475zm-.237 4.261a.71.71 0 1 0 0 1.42h10.785a.71.71 0 1 0 0-1.42h-10.785z" fill="#000" style="mix-blend-mode:overlay"/><defs ><path id="B" d="M234.015 244.851h113.43v67.999h-113.43z"/><path id="C" d="M162.566 406.157h12.393v3.191h-12.393z"/><path id="D" d="M149.079 304.263h4.957v27.486h-4.957z"/></defs></svg>