<svg xmlns="http://www.w3.org/2000/svg" width="498" height="418" fill="none" xmlns:v="https://vecta.io/nano"><style><![CDATA[.B{opacity:.6}.C{fill:#030f1c}.D{fill-rule:evenodd}.E{fill:#fff}.F{fill:#0b122d}.G{fill:#161b36}.H{fill:#ffe6a5}.I{fill:#ffb7b6}.J{fill:#f76161}]]></style><path d="M215.72 123.032h219.697.239H498v283.636h-24.898v11.084h-14.748-36.677-189.763v-11.084H215.72V123.032z" fill="#c1d4ee"/><path d="M419.732 95.849h-56.381v-2.88h56.381c.285.007.569.036.85.086h28.862c2.201.003 3.984 1.778 3.987 3.97v7.07a3.96 3.96 0 0 1-1.168 2.807 3.99 3.99 0 0 1-2.819 1.163h-28.428c-.419.116-.85.178-1.284.183h-56.381v-2.858h56.381c1.196 0 2.166-.966 2.166-2.158v-5.177a2.19 2.19 0 0 0-2.166-2.206zm1.755-2.54c-.033 0-.069-.015-.104-.03l-.048-.019c.02.005.041.013.062.023.031.013.061.026.09.026zm2.253 1.656l-.254-.307v-.005a3.68 3.68 0 0 1 .254.313zm.52.836a4.06 4.06 0 0 0-.233-.426v-.016c.087.142.164.29.233.442zm.184.383a4.23 4.23 0 0 1 .179.572c-.045-.2-.105-.397-.179-.588v.016zm.368 7.044c0 .317-.031.633-.092.944v-.016a4.9 4.9 0 0 0 .092-.928zm-.178 1.262c-.048.183-.106.363-.174.54a4.97 4.97 0 0 0 .174-.556v.016zm-.564 1.338l.223-.405v-.016l-.223.421zm-.271.399c-.067.092-.14.18-.216.264a3.26 3.26 0 0 0 .216-.28v.016z" fill="#75d8bc" class="D"/><g style="mix-blend-mode:overlay" class="B C"><path d="M363.351 108.27h56.381c2.805-.003 5.078-2.266 5.08-5.059v-5.178a5.08 5.08 0 0 0-5.08-5.065h-56.381v2.88h56.381a2.19 2.19 0 0 1 2.167 2.157v5.178c0 1.191-.97 2.157-2.167 2.157h-56.381v2.929z"/></g><path d="M424.168 105.714h-.043l.043-.081v.081zm-4.435-9.865a2.19 2.19 0 0 1 2.166 2.157v5.178c0 1.191-.97 2.157-2.166 2.157H366v-9.492h53.733z" class="H"/><g style="mix-blend-mode:overlay" class="B C"><path d="M419.733 95.849a2.19 2.19 0 0 1 2.166 2.157v.755H366v-2.939l53.733.027z"/></g><path d="M424.168 95.611l-.087-.162h.087v.162z" class="H"/><path d="M424.19 110.972h-56.376v-2.88h56.376a4.95 4.95 0 0 1 .85.086h28.862a3.98 3.98 0 0 1 3.987 3.97v7.093a3.98 3.98 0 0 1-3.987 3.969h-28.428a5.03 5.03 0 0 1-1.284.184h-56.376v-2.881h56.376c1.21-.003 2.19-.979 2.193-2.184v-5.172c-.003-1.206-.983-2.182-2.193-2.185zm3.125-1.807l.022.018h0 0v.001h.001l.226.192a3.46 3.46 0 0 1-.265-.2l.016-.011zm.899.901l-.255-.307-.016.01.129.142.142.155zm.693 1.224l.123.365.056.175-.179-.54zm.19 8.307l-.08.277-.093.262.093-.262.059-.205.021-.072zm-.834 1.736l-.223.265c.053-.05.095-.099.134-.145h0 0l.089-.098v-.022z" fill="#dee6ee" class="D"/><g style="mix-blend-mode:overlay" class="B C"><path d="M367.814 123.394h56.376c2.807-.003 5.082-2.269 5.085-5.065v-5.172c-.003-2.796-2.278-5.062-5.085-5.065h-56.376v2.88h56.376c1.21.003 2.19.979 2.193 2.185v5.172c-.003 1.205-.983 2.181-2.193 2.184h-56.376v2.881z"/></g><path d="M428.626 120.815h-.043s0-.059.043-.086v.086zm-4.436-9.843c1.21.003 2.191.979 2.194 2.185v5.172c-.003 1.205-.984 2.181-2.194 2.184h-53.732v-9.541h53.732z" class="H"/><g style="mix-blend-mode:overlay" class="B C"><path d="M424.19 110.972c1.21.003 2.191.979 2.194 2.185v.749h-55.926v-2.934h53.732z"/></g><path d="M428.625 110.735c0-.054-.054-.108-.087-.162h.087v.162z" class="H"/><g style="mix-blend-mode:overlay" class="B C"><path d="M473.103 406.657h-51.425v11.094h51.425z"/></g><g style="mix-blend-mode:overlay" class="B C"><path d="M473.103 406.657h-51.425v11.094h51.425z"/></g><g style="mix-blend-mode:overlay" class="B C"><path d="M498 123.032h-62.583v283.63H498z"/></g><g style="mix-blend-mode:overlay" class="B C"><path d="M421.666 406.673H232.19v5.733h189.476z"/></g><g style="mix-blend-mode:overlay" class="B C"><path d="M392.018 151.996v-5.982a2.02 2.02 0 0 0-2.02-2.017h1.435c1.118.003 2.023.904 2.026 2.017v5.982a2.01 2.01 0 0 1-.593 1.426 2.03 2.03 0 0 1-1.433.591h-1.435c.537 0 1.052-.213 1.431-.591s.591-.892.589-1.426z"/></g><g style="mix-blend-mode:overlay" class="B C"><rect width="35.99" height="10.016" rx="3.74" transform="matrix(-1 0 0 1 393.508 143.997)"/></g><g style="mix-blend-mode:overlay" class="B C D"><path d="M331.846 139.186v55.591h-.119v3.813h93.536v-.226-63.185h-4.306v.037h-89.149v3.97h.038zm1.192 55.591v-55.591h87.919v55.591h-87.919z"/></g><g style="mix-blend-mode:overlay" class="B C"><use href="#B"/></g><g style="mix-blend-mode:overlay" class="B C"><path d="M287.261 151.996v-5.982c0-1.114-.907-2.017-2.026-2.017h1.441a2.02 2.02 0 0 1 2.02 2.017v5.982c.002.534-.21 1.047-.59 1.426s-.893.591-1.43.591h-1.441a2.03 2.03 0 0 0 1.434-.589 2.01 2.01 0 0 0 .592-1.428z"/></g><g style="mix-blend-mode:overlay" class="B C"><rect width="35.99" height="10.016" rx="3.74" transform="matrix(-1 0 0 1 288.745 143.997)"/></g><g style="mix-blend-mode:overlay" class="B C D"><path d="M227.088 139.186v55.591h-.119v3.813h93.53v-.226-63.185h-4.306v.037H227.05v3.97h.038zm1.192 55.591v-55.591h87.913v55.591H228.28z"/></g><g style="mix-blend-mode:overlay" class="B C"><use href="#B" x="-104.763"/></g><g style="mix-blend-mode:overlay" class="B C"><path d="M392.018 245.406v-5.981a2.02 2.02 0 0 0-2.02-2.017h1.435c1.118.003 2.023.904 2.026 2.017v5.981c-.003 1.113-.908 2.015-2.026 2.018h-1.435c1.117-.003 2.02-.906 2.02-2.018z"/></g><g style="mix-blend-mode:overlay" class="B C"><rect width="35.99" height="10.016" rx="3.74" transform="matrix(-1 0 0 1 393.508 237.408)"/></g><g style="mix-blend-mode:overlay" class="B C D"><path d="M331.846 232.597v55.591l-.119.016v3.813h93.536v-.226-63.202h-4.306v.038h-89.149v3.97h.038zm1.192 55.591v-55.591h87.919v55.591h-87.919z"/></g><g style="mix-blend-mode:overlay" class="B C"><use href="#B" y="93.411"/></g><g style="mix-blend-mode:overlay" class="B C"><path d="M287.261 245.406v-5.981c0-1.114-.907-2.017-2.026-2.017h1.441a2.02 2.02 0 0 1 2.02 2.017v5.981c0 1.112-.903 2.015-2.02 2.018h-1.441c1.119 0 2.026-.903 2.026-2.018z"/></g><g style="mix-blend-mode:overlay" class="B C"><rect width="35.99" height="10.016" rx="3.74" transform="matrix(-1 0 0 1 288.745 237.408)"/></g><g style="mix-blend-mode:overlay" class="B C D"><path d="M227.088 232.597v55.591l-.119.016v3.813h93.53v-.226-63.202h-4.306v.038H227.05v3.97h.038zm1.192 55.591v-55.591h87.913v55.591H228.28z"/></g><g style="mix-blend-mode:overlay" class="B C"><use href="#B" x="-104.763" y="93.411"/></g><g style="mix-blend-mode:overlay" class="B C"><path d="M392.018 338.817v-5.981c.002-.535-.211-1.048-.59-1.426a2.02 2.02 0 0 0-1.43-.591h1.435a2.03 2.03 0 0 1 1.44.587 2.01 2.01 0 0 1 .597 1.43v5.981c-.003 1.113-.908 2.015-2.026 2.017h-1.435a2.02 2.02 0 0 0 2.009-2.017z"/></g><g style="mix-blend-mode:overlay" class="B C"><rect width="35.99" height="10.016" rx="3.74" transform="matrix(-1 0 0 1 393.508 330.819)"/></g><g style="mix-blend-mode:overlay" class="B C D"><path d="M331.846 326.008v55.591h-.119v3.813h93.536v-.232-63.185h-4.306v.043h-89.149v3.97h.038zm1.192 55.591v-55.591h87.919v55.591h-87.919z"/></g><g style="mix-blend-mode:overlay" class="B C"><use href="#B" y="186.822"/></g><g style="mix-blend-mode:overlay" class="B C"><path d="M287.261 338.817v-5.981c.001-.536-.211-1.05-.592-1.428a2.02 2.02 0 0 0-1.434-.589h1.441a2.02 2.02 0 0 1 1.43.591 2 2 0 0 1 .59 1.426v5.981a2.02 2.02 0 0 1-2.02 2.017h-1.441c1.119 0 2.026-.903 2.026-2.017z"/></g><g style="mix-blend-mode:overlay" class="B C"><rect width="35.99" height="10.016" rx="3.74" transform="matrix(-1 0 0 1 288.745 330.819)"/></g><g style="mix-blend-mode:overlay" class="B C D"><path d="M227.088 326.008v55.591h-.119v3.813h93.53v-.232-63.185h-4.306v.043H227.05v3.97h.038zm1.192 55.591v-55.591h87.913v55.591H228.28z"/></g><g style="mix-blend-mode:overlay" class="B C"><use href="#B" x="-104.763" y="186.822"/></g><path d="M260.668 78.681c-1.007-17.098-13.432-75.769-13.432-75.769s3.689 10.102 15.1 36.913c2.897 6.858 5.177 13.959 6.814 21.218a143.6 143.6 0 0 1 6.315-24.125L288.279 0s-8.79 48.995-10.956 70.478c1.444-6.195 3.626-12.195 6.499-17.874l12.809-26.277s-10.534 41.768-11.374 53.935l-.133 1.847v.001.002h0l-.062.847h-24.091c-.087-.934-.151-1.929-.221-3.025l-.082-1.252zm11.261-.221c.018.137.037.275.037.41h.011l-.001-.015c-.016-.173-.032-.351-.064-.524l.005.037.012.093zm-.212-2.071c0-.123-.018-.246-.036-.37h0c-.008-.056-.017-.112-.023-.169.032.2.054.361.07.539h-.011zm-.361-3.037a1.61 1.61 0 0 1 .036.291h.011a5.77 5.77 0 0 1-.019-.13c-.012-.086-.024-.173-.046-.259a1.64 1.64 0 0 0 .018.097z" fill="#85ceb4" class="D"/><path d="M285.023 82.937v.227h6.196v.065c4.057 13.137 4.057 27.185 0 40.322h-36.943a68.28 68.28 0 0 1 0-40.322v-.065h6.673v-.227h24.074z" fill="#ffb66d"/><g style="mix-blend-mode:overlay" class="B C"><path d="M285.274 83.163h5.947l.021.065-.021-.065h-5.947z"/></g><g style="mix-blend-mode:overlay" class="B C"><path d="M292.362 87.316l-1.121-4.088 1.121 4.088z"/></g><g style="mix-blend-mode:overlay" class="B C"><path d="M269.155 61.039c1.402-8.208 3.515-16.28 6.315-24.125L288.279 0s-10.529 58.671-11.373 75.763l-.412 7.405h-4.192c-.432-7.451-1.485-14.853-3.147-22.13z"/></g><g style="mix-blend-mode:overlay" class="B C"><path d="M254.277 83.228v-.065h30.996v.065l1.116 4.088h-33.255l1.143-4.088z"/></g><g style="mix-blend-mode:overlay" class="B C"><use href="#C"/></g><g style="mix-blend-mode:overlay" class="B C"><use href="#C"/></g><g class="D"><path d="M327.459 414.793a2.94 2.94 0 0 1-1.864-2.842l-.047.383 1.042-7.817c.482-3.04 1.576-3.911 1.576-3.911s9.426-1.881 10.626-1.031c.597.422 1.25 1.834 2.061 3.585l.911 1.932.768 1.549c1.341 2.682 2.774 5.548 3.245 8.043a19.85 19.85 0 0 0-.636-2.241 6.22 6.22 0 0 1-2.32 2.187c-3.338 1.834-12.584 1.984-15.362.163zm-83.241-4.118c1.786-1.119 14.414-4.726 14.414-4.726l22.858-5.691s2.528 4.491 2.521 8.885a9.74 9.74 0 0 1-1.14 4.681c-.632 1.152-1.839 1.874-3.157 1.888-6.369.101-30.749.403-33.626-.079-3.379-.566-3.655-3.839-1.87-4.958z" fill="#7686d6"/><path d="M337.884 368.401l.729 30.038 2.161 8.19c-.556 3.141-12.433 4.261-13.028.12-.09-.628.331-7.757.331-7.757l-3.494-29.528 13.301-1.063zm-69.161 31.93c3.212-2.732 1.779-18.27 1.779-18.27l11.004 1.734-.016 16.463c.186 1.496-7.049 5.598-13.059 6.524s-10.985.544-11.078-.017c-.035-.217 1.06-.723 2.647-1.457 2.526-1.169 6.297-2.913 8.723-4.977z" class="I"/></g><g style="mix-blend-mode:overlay" class="B C"><path d="M258.581 415.898c1.045-2.49 3.461-4.136 6.17-4.205 5.439-.208 6.517 4.117 6.517 4.117l-12.687.088z"/></g><path d="M342.821 414.63a6.22 6.22 0 0 0 2.32-2.186s.983 2.744.796 4.039v1.063h-20.713v-1.063l.372-4.532c-.047 1.245.699 2.384 1.863 2.842 2.778 1.821 12.024 1.671 15.362-.163zm-63.107 1.082c1.318-.014 2.525-.736 3.157-1.888.163-.3.308-.61.435-.927v.001a16.6 16.6 0 0 1-.669 2.554 3.16 3.16 0 0 1-2.983 2.098l-33.98-.048a2.35 2.35 0 0 1-2.338-2.107l-.205-2.01.091-.009c.273 1.023 1.185 1.975 2.866 2.257 2.878.482 27.257.18 33.626.079z" fill="#2d2b72" class="D"/><path d="M274.644 182.197c-6.184 47.084-9.539 85.548-9.714 92.13-.173 6.544 3.723 117.359 3.723 117.359s10.355 1.03 14.892-1.24l5.07-52.202c1.602-13.335 5.686-42.055 5.686-54.901 4.057-17.506 7.437-38.553 7.437-38.553l5.781 35.553 18.959 111.167c.834.461 7.05 1.492 13.755-.903 0 0-1.012-20.02-.745-31.369s-.385-57.36-4.388-77.22c0 0 1.891-17.855 4.378-31.127 1.578-8.42 3.757-22.089 1.835-34.735-2.441-16.069-6.959-19.969-9.75-35.24-16.875-7.269-39.329-7.747-56.919 1.281z" class="J"/><g style="mix-blend-mode:overlay" class="B C"><path d="M301.738 244.79l-6.171-26.976s-6.552 14.789-5.842 26.265 4.967 10.819 6.08 32.491l5.933-31.78z"/></g><g style="mix-blend-mode:overlay" class="B E"><path d="M269.867 221.486s5.438 1.729 4.957 7.795-3.498 37.871-3.55 49.111 1.733 42.329 0 48.307-4.624 6.465-4.624 6.465l-1.719-58.837c.657-13.295 4.936-52.841 4.936-52.841z"/></g><g style="mix-blend-mode:overlay" class="B E"><path d="M305.705 269.22s5.621 1.316 8.142 12.658 8.144 51.517 9.295 61.203-2.66 15.537-2.66 15.537l-14.777-89.398z"/></g><path d="M337.08 199.508c-4.253 0-7.625-1.304-10.021-3.876-4.505-4.837-3.994-12.36-3.97-12.678.005-.072.038-.139.093-.185a.27.27 0 0 1 .447.225c-.005.076-.515 7.612 3.83 12.273 2.289 2.456 5.526 3.701 9.621 3.701a.27.27 0 1 1 0 .54zm-65.021 1.186a.27.27 0 0 1-.126-.509c.097-.05 9.665-5.143 9.159-14.287a.27.27 0 0 1 .256-.281.27.27 0 0 1 .285.252c.525 9.493-9.349 14.743-9.449 14.794a.26.26 0 0 1-.125.031z" class="F"/><g style="mix-blend-mode:overlay" class="B C"><path d="M274.644 182.197l-1.061 8.211s21.718 12.352 62.03 5.986c0 0-3.495-10.408-4.05-15.478l-56.919 1.281z"/></g><path d="M318.953 60.006c-1.276-6.432-3.317-11.222-11.608-5.474 0 0-.073-6.371-3.007-8.887s-21.469-13.725-22.179 4.697l-.34 18.495c0 3.695 5.371 16.213 9.836 16.213a11.56 11.56 0 0 0 3.126-.486c-.646 5.111-2.261 10.054-4.759 14.565l27.425-5.33s-4.74-7.353-5.728-21.795c4.18-3.704 8.167-7.288 7.234-11.997z" class="I"/><path d="M328.826 16.828c-12.914 0-12.989 12.077-12.989 12.077l2.047 3.599c-15.175-10.955-23.863-.999-23.863-.999-12.202-2.626-18.398 5.294-19.326 14.737s7.267 13.272 7.267 13.272l.14-6.64c4.076-2.26 3.282-4.861 3.776-6.179 1.443 6.672 13.099 9.678 15.46 11.804 2.509 2.258 2.783 7.287 4.226 7.287s.648-7.429 5.154-9.956c5.753-3.227 7.345 3.427 6.287 6.877-1.168 3.807-5.611 8.364-5.611 8.364l.555 6.261c8.975-5.585 15.654-18.27 14.631-29.536l.001.001c10.316-.281 14.233-3.942 17.313-10.134 3.256-6.546-2.153-20.836-15.068-20.836z" class="G"/><g style="mix-blend-mode:overlay" class="B C"><path d="M294.815 84.163s8.1-4.149 10.671-6.831c.144 4.451-1.395 8.793-4.314 12.167-2.297 2.577-5.893 3.325-8.417 3.496a39.58 39.58 0 0 0 2.06-8.831z"/></g><path d="M292.494 52.515c.367-.411.872-.731 2.387-.64s3.81 1.509 3.305 1.874-2.02-.869-3.213-.457-1.879.75-2.28.526c-.505-.282-.376-1.105-.199-1.303zm-6.565-.419c-.481-.271-1.063-.412-2.467.162s-3.117 2.653-2.521 2.837 1.63-1.472 2.894-1.466 2.021.106 2.328-.236c.387-.429-.003-1.167-.234-1.297z" class="G"/><g style="mix-blend-mode:overlay" class="B C"><path d="M288.543 70.62c-.611.01-1.214-.144-1.745-.446-.381-.202-.652-.563-.739-.984-.127-.793.588-2.347 1.331-3.872l.275-.579c.96-2.195.524-6.377.519-6.419a.27.27 0 0 1 .11-.247c.078-.057.181-.068.269-.029s.15.122.16.218c.019.177.456 4.365-.561 6.692l-.285.599c-.453.928-1.394 2.859-1.284 3.551a.96.96 0 0 0 .489.609c.719.386 1.563.471 2.345.236a.27.27 0 0 1 .34.174.27.27 0 0 1-.175.339 3.46 3.46 0 0 1-1.049.155z"/></g><path d="M287.501 75.924c-.047-.162-.026-.337.056-.484a.64.64 0 0 1 .385-.301l3.451-1.061c1.189-.47 2.346-1.017 3.462-1.64.194-.105.43-.103.622.005a.64.64 0 0 1 .326.529c.077 1.693-.127 4.998-2.8 5.672-3.251.82-4.952-.932-5.502-2.719z" class="G"/><path d="M288.914 78.034s2.797-3.89 6.792-3.002c0 0 .007 3.038-2.569 3.723-2.773.737-4.223-.722-4.223-.722z" fill="#e55151"/><path d="M283.025 62.457c-.182.021-.363-.05-.48-.191a.54.54 0 0 1-.101-.504c.312-1.007.812-1.6 1.486-1.761 1.026-.24 1.902.63 1.999.731a.54.54 0 1 1-.776.753c-.139-.141-.62-.519-.972-.435-.267.066-.517.431-.702 1.03a.54.54 0 0 1-.454.377zm12.49-1.473a.54.54 0 0 1-.53-.261c-.321-.539-.649-.836-.924-.838-.354.001-.741.48-.844.649-.153.254-.484.337-.741.185a.54.54 0 0 1-.189-.737c.071-.12.729-1.173 1.772-1.176.694 0 1.319.46 1.858 1.367a.54.54 0 0 1 .02.514c-.081.163-.24.275-.422.297h0z" class="G"/><path d="M314.322 58.527c-1.304-.441-2.565.739-3.519 2.074l-.005.007a17.61 17.61 0 0 0-1.679 3.008.271.271 0 1 0 .499.209 16.59 16.59 0 0 1 1.568-2.831c.558-.098 1.133.006 1.62.294a2.13 2.13 0 0 1 .856 1.508.27.27 0 0 0 .267.226.26.26 0 0 0 .044-.004.27.27 0 0 0 .176-.109c.042-.058.059-.131.047-.201a2.64 2.64 0 0 0-1.09-1.869 2.69 2.69 0 0 0-1.489-.415c.789-.975 1.69-1.67 2.531-1.386a.27.27 0 0 0 .342-.169.27.27 0 0 0-.168-.342h0zm-19.944 26.106a.27.27 0 0 1-.11-.516c.092-.04 9.166-4.083 12.996-8.97.092-.117.262-.138.38-.047a.27.27 0 0 1 .047.378c-3.914 4.994-12.826 8.965-13.203 9.131-.035.015-.072.023-.11.023z" class="F"/><path d="M308.476 45.661a.27.27 0 0 1-.254-.178c-2.928-8.046-11.412-11.645-11.497-11.681-.138-.058-.203-.215-.145-.352a.27.27 0 0 1 .353-.145c.088.036 8.79 3.728 11.798 11.995a.27.27 0 0 1-.162.345.28.28 0 0 1-.093.016zm29.478-4.096c-.108 0-.206-.064-.249-.162a.27.27 0 0 1 .051-.292c5.696-6.06 1.974-13.698 1.936-13.775-.043-.086-.037-.189.017-.269a.27.27 0 0 1 .468.029c.04.08 3.925 8.053-2.026 14.384a.27.27 0 0 1-.197.085z" class="E"/><path d="M326.687 39.785c-3.511-7.39-9.345-10.726-10.85-10.88-1.908-.195-2.585.769-2.585.769v.001a33.72 33.72 0 0 1 5.093 3.165c6.07 4.514 8.473 11.043 8.335 17.82a9.31 9.31 0 0 0 1.388-.885c.645-.52 2.13-2.6-1.381-9.99z" class="J"/><path d="M347.975 120.501l8.513 22.187c3.739 9.306 2.824 16.93-8.465 19.191-2.486.497-10.328 1.941-18.868 3.405a141.05 141.05 0 0 0 2.956 16.482c.268 1.125-.184 2.297-1.137 2.956-9.144 6.129-46.615 8.736-55.951 1.426-.971-.778-1.45-2.014-1.255-3.239 2.543-16.837 1.401-27.938-.5-32.729l-.848-2.064c-1.538-3.672-2.759-6.59-2.294-12.016.163-1.895.844-4.961 1.731-8.951l2.313-10.975-3.993-.563c-9.389-1.395-18.668-3.442-27.77-6.125-3.114-.93-6.259-1.961-9.401-3.11a17.23 17.23 0 0 1-3.437-1.646c-6.86-4.434-3.098-12.394 10.71-29.934 1.309-1.663 9.532-11.773 14.057-17.335l2.804-3.449c2.886 5.782 9.716 6.131 9.716 6.131L248.58 92.215a1.29 1.29 0 0 0-.012 1.257c.215.393.618.648 1.066.674 2.504.143 42.912.171 42.93.171 0 0-4.554 15.692 6.018 15.038 14.57-.902 18.456-16.824 18.456-16.824s8.248 2.149 12.385 3.49c10.383 2.456 11.635 5.831 18.552 24.48zm-19.289 30.916l9.996-3.658c.379-.141.684-.432.84-.804s.151-.792-.015-1.16l-7.927-17.425a112.3 112.3 0 0 1-1.688 13.188c-.648 3.252-1.051 6.548-1.206 9.859z" fill="#2d2b72" class="D"/><g style="mix-blend-mode:overlay" class="B C"><path d="M274.17 116.174c.588-3.061 1.161-6.367 1.66-9.868-3.436 1.166-8.977 2.954-12.313 3.558-5.1.923-9.139-2.929-15.563-2.884-3.328.024-5.547 2.506-5.547 2.506 9.102 2.683 18.381 4.73 27.77 6.125l3.993.563z"/></g><path d="M244.032 94.982c-1.182.006-2.351-.249-3.422-.749-.108-.051-.154-.179-.103-.287s.179-.154.288-.104c3.317 1.555 6.617.025 6.65.009a.22.22 0 0 1 .217.017c.064.044.099.118.093.195s-.053.145-.122.178a9.06 9.06 0 0 1-3.601.74z" class="F"/><g style="mix-blend-mode:overlay" class="B E"><path d="M241.285 79.923c-1.242 2.475-12.348 16.147-10.848 20.742 1.142 3.499 5.399 3.139 5.018 6.583-2.056-.603-4.032-1.448-5.886-2.518-6.86-4.434-3.098-12.394 10.71-29.934.599.458 1.874 3.398 1.006 5.126z"/></g><g style="mix-blend-mode:overlay" class="B C"><path d="M271.743 146.473s4.595 4.219 9.324 4.307c3.23.059 3.917 1.803.586 2.516-1.546.331-4.417.064-7.473-.018a42.08 42.08 0 0 0-2.437-6.805h0z"/></g><g style="mix-blend-mode:overlay" class="B C"><path d="M316.636 154.096c.624-.009 1.239.144 1.786.443l7.387-2.121 2.929-1.02.103-2.474c.298-5.58 1.984-9.434 2.802-20.417l-4.828-10.233c.263 5.448.581 17.305-1.216 23.284-1.621 5.393-8.066 8.145-12.427 8.891-6.664 1.139-5.787 3.866 3.464 3.647z"/></g><g style="mix-blend-mode:overlay" class="B C"><path d="M329.148 165.285l-5.098.861c.367 2.359.414 4.492.108 5.75-1.981 8.147-10.626 13.728-15.489 14.883-3.017.745-5.871 2.035-8.421 3.806 0 0 21.151-.108 30.726-5.863 0 0 1.638-.683 1.136-2.955-1.45-5.402-2.441-10.915-2.962-16.482h0z"/></g><path d="M294.673 130.973h-.009c-.149-.005-.267-.129-.263-.278l.625-21.196c.012-.145.132-.258.279-.262a.27.27 0 0 1 .262.278l-.624 21.196a.27.27 0 0 1-.27.262zm15.035 37.634c-.116.003-.215-.084-.226-.199a.22.22 0 0 1 .186-.237l14.365-2.226c.078-.013.157.017.206.078s.063.144.034.217-.094.126-.172.138l-14.366 2.226-.027.003z" class="F"/><g style="mix-blend-mode:overlay" class="B E"><path d="M343.52 149.862c-5.107 2.034-19.902 8.52-22.333 3.946 7.699-2.152 17.494-6.049 17.494-6.049a1.37 1.37 0 0 0 .832-.749 1.36 1.36 0 0 0-.012-1.117c-1.139-2.323-3.05-7.106-6.472-14.28 1.157-.461 3.565-.004 4.322 1.39.877 1.622 5.289 10.276 7.159 13.765.42.784.361 2.556-.99 3.094z"/></g><path d="M344.37 151.029a.22.22 0 0 1-.217-.183c-.024-.144-.636-3.525-4.658-3.64a.22.22 0 0 1-.181-.334c.041-.066.115-.106.194-.104 2.439-.052 4.572 1.63 5.079 4.007.02.119-.061.232-.181.251-.012.002-.024.003-.036.003zm-11.868-22.877c-.045 0-.089-.014-.126-.039-6.293-4.352-6.313-13.824-6.313-13.919.001-.12.1-.218.221-.218h.001c.058.001.114.024.155.065s.064.098.064.156c-.001.093.022 9.337 6.123 13.556a.22.22 0 0 1 .085.245.22.22 0 0 1-.21.154h0z" class="F"/><path d="M309.233 175.906l-18.443-31.169-5.044-8.526a2.23 2.23 0 0 0-1.922-1.094h-29.889a2.84 2.84 0 0 0-2.123 1.373 4.09 4.09 0 0 0-.27.431 3.77 3.77 0 0 0-.306.705 2.18 2.18 0 0 0 .047 1.804l-.031-.063c.013.038.029.075.047.11l.016.021.058.111 16.431 27.771 2.979 5.028 4.078 6.895c.4.679 1.132 1.095 1.922 1.094h29.889a2.11 2.11 0 0 0 .327-.026c1.727-.005 3.111-2.982 2.234-4.465z" fill="#00b9b9"/><g style="mix-blend-mode:overlay" class="B C"><path d="M251.132 139.037c-.019-.076-.034-.153-.045-.231a1.81 1.81 0 0 0 .045.231zm.118.329l.05.109.026.042-.076-.151z"/><path d="M251.225 139.311a2.4 2.4 0 0 1-.092-.271c.023.092.054.183.092.271zM307 180.371a2.23 2.23 0 0 0 1.686-1.239 2.21 2.21 0 0 0-.091-2.085l-18.803-31.773-4.685-7.921c-.4-.679-1.132-1.095-1.922-1.094h-29.889c-.902-.005-1.717.536-2.06 1.367a3.77 3.77 0 0 1 .307-.705 3.49 3.49 0 0 1 .269-.431c.453-.764 1.239-1.272 2.123-1.373h29.889a2.23 2.23 0 0 1 1.922 1.094l5.044 8.526 18.444 31.169c.877 1.483-.507 4.46-2.234 4.465z"/></g><g style="mix-blend-mode:overlay" class="B C"><path d="M253.023 138.303h2.069a.38.38 0 0 1 .328.187l.505.861c.069.117.07.262.002.38s-.194.19-.33.19h-2.068a.38.38 0 0 1-.328-.188l-.506-.861c-.068-.117-.069-.262-.001-.379a.38.38 0 0 1 .329-.19h0z"/></g><g style="mix-blend-mode:overlay" class="B C"><path d="M273.412 152.462h2.713c.799.031 1.546.402 2.052 1.019 1.166 1.371.626 3.095-.97 3.095h-2.713a2.8 2.8 0 0 1-2.051-1.019c-1.166-1.372-.626-3.095.969-3.095z"/></g><g class="D"><path d="M317.038 92.532l9.325 2.549s1.795 10.105-13.874 12.075c1.353 6.029-8.602 15.062-17.237 1.992 0 0 15.795 2.964 21.786-16.616zm-34.48 1.775l10.006.012c-3.401 12.376 2.688 14.829 2.688 14.829-9.543 10.279-12.249-1.921-7.976-5.255-2.812-2.427-4.514-5.886-4.718-9.586z" class="J"/><path d="M282.353 49.751c.421-1.064.287-2.266-.356-3.213l.507-.461c.736-.664 3.045-3.431 2.03-4.748-.903-1.172-1.899-.493-2.692.12.286-.317 1.227-1.811-.276-3.58-1.054-1.246-3.172.597-3.172.597s.196-2.338-1.179-2.971c-1.505-.688-3.104.916-3.208 1.033.016-.132.266-2.338-1.746-2.502-.801-.063-2.57 1.39-4.458 3.672l-.703.884-.159.207v.004l-1.264 1.784.002.003-.769 1.148c-1.665 2.471-2.957 4.387-3.327 7.104h.002c-.246 1.234-1.127 2.601-1.737 3.549l-.21.327h0l-1.949 2.27c2.294 3.573 6.174 4.686 8.065 5.025l1.6-2.744a6.02 6.02 0 0 1 2.476-1.396c2.59-.711 5.12-1.623 7.567-2.727 0 0 4.212-1.674 4.956-3.383zm22.525 108.973l.007.037c-.638.102-1.288.113-1.929.032-.244-.081-.556-.153-.905-.235h0c-.888-.207-2.014-.47-2.881-1.053-.657-.442-2.116-2.277-3.393-3.884l-2.246-2.599c-.52-.159-2.042 2.199-.929 3.88l1.061 1.488h0c.736.993 1.303 1.758 1.093 2.062-.224.325-1.347.471-2.405.609h0l-.537.071-8.39 1.248c-.682.454-1.007 1.68.287 1.966.664.147-.262.57-1.045.928h0l-.775.386c-.683.454-1.008 1.68.287 1.966 1.002.221 2.598.583 2.157.877-.683.455-1.007 1.681.287 1.966l.825.16h.001c.966.178 2.144.394 1.881.569-.611.407-.901 1.503.256 1.759.725.161 4.607-.309 7.408-.682 1.698.336 6.408-.118 8.291-1.302a13.55 13.55 0 0 1 3.657-1.371c.479-3.089-.079-6.249-1.587-8.989l-.476.111zm-8.992-49.494c-7.673-1.462-3.322-14.912-3.322-14.912l24.474-1.786c-5.275 17.241-18.151 17.002-21.152 16.699z" class="I"/></g><g class="C"><path d="M275.734 46.127c-.756.176-1.258.116-1.493-.179-.445-.56.068-1.913.304-2.387.042-.085.023-.188-.046-.253s-.174-.077-.257-.03c-1.067.609-1.872.742-2.393.394-1.057-.706-.742-3.155-.738-3.18-.001-.016-.003-.031-.007-.047l2.528-3.145c.076-.092.063-.227-.029-.303s-.228-.064-.305.027l-2.661 3.312v.001c-.759.31-1.351.338-1.756.074-.663-.432-.656-1.521-.656-1.532.002-.119-.094-.217-.214-.219a.21.21 0 0 0-.156.059c-.042.04-.065.096-.064.154s-.012 1.335.85 1.899c.624.334 1.372.345 2.005.029-.051.774-.05 2.554.961 3.231.568.38 1.343.347 2.309-.097-.238.647-.495 1.68-.015 2.284.276.311.683.474 1.099.439.281-.005.56-.041.833-.108.076-.017.137-.073.16-.148s.004-.155-.05-.212-.133-.08-.209-.062h0z"/><path d="M281.998 46.137c-.123-.2-2.709-4.367-5.051-5.133l1.319-1.694c.073-.094.056-.23-.039-.303s-.231-.056-.304.038l-1.443 1.853a1.88 1.88 0 0 0-.426-.007c-.357.025-.675.233-.842.548-.85 1.599 1.601 6.277 1.884 6.805.037.071.111.115.191.115s.147-.04.186-.105.041-.146.006-.213c-.737-1.379-2.512-5.217-1.883-6.4.098-.19.291-.313.505-.321 2.242-.246 5.495 4.989 5.527 5.042.063.1.196.131.297.069s.134-.194.073-.295h0z"/></g><path d="M292.23 161.781c-.005-.051-.031-.099-.071-.132s-.092-.049-.144-.044l-8.627.83c-.106.01-.185.103-.178.208s.098.187.204.183l.012-.001 8.627-.83c.052-.005.099-.03.133-.07s.049-.092.044-.144zm.537 3.613c-.015-.107-.113-.183-.22-.17l-8.764 1.105c-.104.013-.18.106-.171.211s.098.183.204.179l.017-.001 8.763-1.105c.052-.007.099-.033.131-.074a.2.2 0 0 0 .04-.145zm1.377 2.869l-7.363.76c-.106.011-.183.103-.176.209s.098.186.204.182l.013-.001 7.362-.76c.109-.011.187-.108.176-.215s-.108-.185-.216-.175z" class="F"/><path d="M131.769 197.942l6.133 94.25-1.441 95.06s-8.645 4.663-17.651 0l-7.924-65.645c-2.522-15.066-1.801-35.513-1.801-35.513l-12.968-31.925-22.395 134.122s-11.465 2.907-16.867-.68c0 0 1.08-25.469 0-50.58s1.08-43.404 4.322-53.089c0 0-7.199-50.22-5.758-83.939l76.351-2.061z" fill="#201f20"/><path d="M55.624 220.723l.048-.005c16.754-2.969 14.002-21.462 13.972-21.649a.271.271 0 1 0-.535.085c.029.181 2.695 18.158-13.532 21.033a.27.27 0 0 0 .047.536h0zm77.856-3.771a.27.27 0 0 0 .263-.205c.03-.121-.027-.246-.137-.303-.118-.061-11.711-6.231-11.098-17.318.004-.071-.021-.141-.069-.194a.27.27 0 0 0-.186-.09c-.072-.004-.143.02-.197.068s-.086.115-.089.187c-.632 11.437 11.268 17.762 11.388 17.825a.27.27 0 0 0 .125.03zm-24.479 73.833c.009 0 .018-.001.027-.002a.27.27 0 0 0 .243-.294c-.009-.088-.826-8.828 2.689-14.659a.27.27 0 0 0-.094-.37c-.128-.076-.294-.035-.371.093-3.607 5.985-2.772 14.9-2.763 14.989a.27.27 0 0 0 .269.243z" class="E"/><g style="mix-blend-mode:overlay" class="B C"><path d="M131.769 197.942l.477 6.363c-30.11 11.884-76.979 3.589-76.979 3.589l.151-7.891 76.351-2.061z"/></g><g style="mix-blend-mode:overlay" class="B C"><path d="M96.117 254.169l7.21-26.725s3.776 14.473 2.155 30.133 0 19.649 0 19.649l-9.365-23.057z"/></g><g style="mix-blend-mode:overlay" class="B E"><path d="M133.348 218.46s-7.373.598-7.587 7.13c-.17 5.173 1.205 24.87 2.646 38.86s1.162 40.296 1.436 51.416 7.483 9.695 7.483 9.695.935-31.645.401-39.836-1.92-40.809-4.379-67.265"/></g><g style="mix-blend-mode:overlay" class="B E"><path d="M94.017 267.093s-9.879-.282-12.081 12.641c-2.708 15.885-8.406 62.08-9.606 70.21s-.575 17.995 4.674 18.697l17.013-101.548z"/></g><g class="D"><path d="M74.533 388.121l-17.525-1.851-14.023 22.354h34.571l-3.023-20.503zm79.804 13.835l-18.945-13.665h-15.669l-1.864 20.333h51.877c-.18-1.264-.892-4.804-3.422-5.691l-11.977-.977z" fill="#6fa3ef"/><path d="M70.141 392.348c0-.589-.477-1.066-1.066-1.066H58.821c-.589 0-1.066.477-1.066 1.066s.477 1.066 1.066 1.066h10.255c.589 0 1.066-.477 1.066-1.066zm-2.096 2.589c.589 0 1.066.477 1.066 1.066s-.477 1.066-1.066 1.066H57.791c-.589 0-1.066-.477-1.066-1.066s.477-1.066 1.066-1.066h10.255zm-.954 3.489c.589 0 1.066.477 1.066 1.066s-.477 1.066-1.066 1.066H56.837c-.589 0-1.066-.478-1.066-1.066s.477-1.066 1.066-1.066h10.255zm81.645-.509h-9.513c-.589 0-1.067.477-1.067 1.064s.478 1.063 1.067 1.063h12.461l-2.948-2.127zm-14.375-3.478h9.512l2.948 2.126h-12.46c-.589 0-1.067-.476-1.067-1.063s.478-1.063 1.067-1.063zm5.144-3.157h-9.512c-.59 0-1.068.476-1.068 1.063s.478 1.063 1.068 1.063h12.46l-2.948-2.126z" class="E"/><path d="M73.297 384.304c1.086 0 1.966.88 1.966 1.966s-.88 1.966-1.966 1.966H57.487c-1.086 0-1.966-.881-1.966-1.966s.88-1.966 1.966-1.966h15.811zm53.748 24.32s1.622-8.58-8.399-8.58l-.786 8.58s-.274 3.953 1.026 3.953h47.573c1.513.075 2.845-.983 3.108-2.468l.169-1.485h-42.691zm8.793-24.254h-17.199c-.688 0-1.246.556-1.246 1.241v1.44c0 .686.558 1.241 1.246 1.241h17.199a1.24 1.24 0 0 0 1.244-1.239v-1.444a1.24 1.24 0 0 0-1.244-1.239zM70.32 401.419h-20.1a7.25 7.25 0 0 0-5.116 2.111 7.19 7.19 0 0 0-2.119 5.095v3.963h34.571v-3.963c0-3.98-3.239-7.206-7.236-7.206z" fill="#2f65bc"/></g><path d="M74.309 45.209c0-8.609 9.547-5.865 11.172-5.326s5.416-11.866 5.416-11.866 19.497-1.618 23.289 2.157c0 0 1.083 16.181.541 26.428s-3.848 14.553-7.639 14.553c-1.199-.067-2.377-.341-3.482-.81v18.865L80.672 77.374l2.824-22.285-.183-.104s-9.005-1.645-9.005-9.776z" fill="#f7b17d"/><path d="M114.879 42.1s4.723-4.374 5.265-13.543-1.409-18.861-7.172-18.502-13.088.698-18.851-.01-18.851 2.401-19.812 12.445a25.15 25.15 0 0 0-4.082 15.783c.72 9.327 3.839 21.632 13.568 24.393l.45-7.383s-9.936-8.385-6.812-12.344c4.009-5.081 9.604-.48 10.204 2.987 0 0 1.787-1.798 2.041-8.37 0 0 4.803-3.468 4.923-8.25 0 0 15.369-1.554 18.611 1.076l1.667 11.718z" class="G"/><g style="mix-blend-mode:overlay" class="B C"><path d="M103.588 70.319s-7.804-3.615-10.326-6.246c0 0 .582 7.092 5.737 12.077s4.589.957 4.589.957v-6.787z"/></g><g class="G"><ellipse rx="1.013" ry="1.659" transform="matrix(-1 0 0 1 102.578 42.5431)"/><ellipse rx="1.013" ry="1.659" transform="matrix(-1 0 0 1 112.601 43.2325)"/><path d="M104.67 35.907c-.36-.403-.855-.717-2.341-.628s-3.737 1.48-3.242 1.838 1.981-.852 3.152-.448 1.843.736 2.236.516c.496-.277.369-1.084.195-1.278zm6.44-.412c.472-.266 1.042-.404 2.419.159s3.058 2.602 2.473 2.782-1.599-1.443-2.838-1.438-1.983.104-2.284-.231c-.379-.421.003-1.144.23-1.272z"/></g><g style="mix-blend-mode:overlay" class="B C"><path d="M108.912 53.734c.522.019 1.04-.101 1.501-.347a1.15 1.15 0 0 0 .573-.802c.113-.703-.609-1.791-1.492-3.036a8.91 8.91 0 0 1-.616-.932c-.18-.383-.128-3.876.025-7.03l-.541-.026c-.053 1.094-.302 6.587.025 7.285.197.353.419.692.665 1.015.556.784 1.486 2.097 1.4 2.64-.037.184-.155.341-.323.427-.777.333-1.653.36-2.449.076l-.166.514c.452.143.923.217 1.398.218z"/></g><path d="M109.568 58.865c.045-.159.026-.33-.055-.475s-.217-.251-.378-.296l-3.384-1.041a28.39 28.39 0 0 1-3.396-1.608.63.63 0 0 0-.61.005c-.189.106-.31.303-.319.519-.076 1.66.124 4.902 2.746 5.563 3.188.804 4.857-.914 5.396-2.667z" class="G"/><path d="M108.182 60.935s-2.744-3.816-6.662-2.944c0 0-.006 2.98 2.52 3.652 2.72.723 4.142-.708 4.142-.708z" fill="#e55151"/><path d="M80.286 43.37c2.593-.878 5.008 4.753 5.11 4.993a.27.27 0 0 1-.145.353c-.138.058-.297-.007-.355-.144-.42-.972-.934-1.901-1.536-2.774-.547-.095-1.109.008-1.587.29-.474.352-.777.887-.834 1.474a.27.27 0 0 1-.267.226c-.015 0-.03-.001-.044-.004-.071-.012-.134-.051-.176-.109s-.059-.13-.047-.201c.094-1.304 1.212-2.298 2.524-2.244-.772-.951-1.651-1.628-2.47-1.349a.27.27 0 0 1-.266-.053.27.27 0 0 1 .092-.458h0zm23.321 27.247a.27.27 0 0 0 .11-.516c-.089-.04-8.988-4.004-12.744-8.796-.092-.117-.262-.138-.38-.047a.27.27 0 0 0-.047.379c3.84 4.899 12.581 8.794 12.951 8.957.035.015.072.023.11.023z" class="F"/><path d="M92.14 25.869c.047 0 .094-.012.135-.036 4.485-2.57 3.826-8.846 3.796-9.112-.007-.072-.042-.137-.099-.182s-.129-.065-.201-.055a.27.27 0 0 0-.239.298c.007.062.647 6.192-3.528 8.584a.27.27 0 0 0 .135.504h0zm-8.623 7.294a.27.27 0 0 0 .187-.075c4.588-4.364 2.773-11.433 2.754-11.504a.271.271 0 1 0-.524.138c.018.068 1.749 6.834-2.604 10.976a.27.27 0 0 0 .187.465h0z" class="E"/><path d="M177.909 180.058l-55.507 27.357c-1.078.532-1.519 1.833-.986 2.906l18.508 37.239a2.17 2.17 0 0 0 1.255 1.093c.547.184 1.145.144 1.663-.111l55.507-27.357c.517-.256.912-.705 1.097-1.25a2.16 2.16 0 0 0-.112-1.657l-5.48-11.027 1.209-.596a.73.73 0 0 0 .37-.421c.062-.184.049-.385-.037-.559l-1.11-2.232.904-.446c.296-.146.417-.503.271-.798l-4.145-8.34a.6.6 0 0 0-.802-.269l-.903.445-1.11-2.233a.74.74 0 0 0-.984-.331l-1.209.596-5.481-11.027a2.17 2.17 0 0 0-1.255-1.093c-.547-.184-1.145-.144-1.663.111zM.912 250.007v-.001c0-3.281 5.727-5.881 9.021-5.881h20.936a7.05 7.05 0 0 1 1.877-3.71c2.282-2.417 6.21-3.643 11.674-3.643 5.304 0 9.17 1.239 11.491 3.682a7.78 7.78 0 0 1 1.981 3.671h23.156c3.295 0 5.966 2.66 5.966 5.941v46.368c0 4.701-5.532 7.379-8.827 7.379l-.178-.003c-.07.005-.14.005-.21.005H6.686c-3.295-.002-5.966-2.662-5.969-5.944v-46.368c-.002-.505.064-1.008.194-1.496zm54.739-5.882a5.73 5.73 0 0 0-1.314-2.189c-1.869-1.967-5.298-3.007-9.917-3.007-4.733 0-8.209 1.008-10.05 2.916a5.02 5.02 0 0 0-1.298 2.28h22.58z" fill="#36c9d8" class="D"/><path d="M32.908 145.103c1.392-4.029 9.814-42.431 15.712-49.907 6.483-8.223 9.596-9.029 13.006-9.951 6.051-1.857 17.027-4.444 17.027-4.444l17.983 3.637 10.62-2.885s16.062 6.435 20.542 10.337v-.002s7.11 5.3 8.663 12.351.943 50.377.762 52.551c-.109 1.31 8.336 20.689 15.069 35.892l-16.472 8.118-4.138-6.386c.444 2.758.33 5.19-1.25 6.55-12.72 10.949-76.463 1.828-76.463 1.828a82.09 82.09 0 0 1 1.957-18.466c2.781-11.653 2.22-17.515 1.695-24.321l-.946-14.392-3.312 8.555c-.969 7.994-5.01 64.27-5.01 64.27-5.129-2.308-13.222 0-13.222 0l-3.324-55.529c-.179-8.43-.336-13.665 1.1-17.807z" fill="#3268ae"/><g style="mix-blend-mode:overlay" class="B C"><path d="M103.05 91.342l-11.118-5.295 4.706-1.608 6.412 6.903z"/></g><path d="M102.878 206.557a.27.27 0 0 0 .27-.253c.256-4.193-.478-16.193-1.187-27.797-.725-11.839-1.474-24.081-1.171-27.998.565-7.319 1.65-41.02 1.151-47.253-.489-6.113-4.998-18.5-5.043-18.625a.27.27 0 1 0-.509.184c.045.124 4.529 12.443 5.013 18.483.497 6.216-.588 39.86-1.152 47.168-.306 3.955.444 16.216 1.17 28.073.709 11.588 1.442 23.571 1.187 27.731a.27.27 0 0 0 .254.286h.017z" class="F"/><g style="mix-blend-mode:overlay" class="B C"><path d="M57.249 154.536l-.579-8.905 10.124-26.153c.32 3.153 1.544 17.759-1.549 32.184-4.442 20.707 3.603 34.21 11.447 42.095 6.661 6.695 20.132 8.012 29.888 12.51-18.441 1.45-52.61-3.474-52.61-3.474s.083-8.636 2.724-21.951c2.13-10.738 1.136-16.711.554-26.306z"/></g><path d="M128.092 168.899h.01a.27.27 0 0 0 .261-.279c-1.049-28.682.865-62.533.885-62.872.004-.071-.021-.141-.069-.194s-.115-.086-.186-.09-.144.017-.198.065-.086.117-.088.189c-.02.339-1.935 34.215-.885 62.921a.27.27 0 0 0 .27.26zm-5.223 22.469c.05 0 .099-.013.141-.039 4.658-2.827 6.155-8.676 6.217-8.924a.27.27 0 0 0-.198-.325c-.145-.035-.291.052-.328.196-.015.058-1.508 5.883-5.972 8.592-.104.063-.153.187-.12.303a.27.27 0 0 0 .26.197z" class="F"/><path opacity=".36" d="M131.586 95.518s-6.173-4.411-12.601-5.783c-4.195-.941-8.296-2.253-12.256-3.922l1.766-3.754s13.926 5.769 17.838 8.726a31.92 31.92 0 0 1 5.253 4.732" style="mix-blend-mode:overlay" class="E"/><g style="mix-blend-mode:overlay" class="B C"><path d="M93.326 91.575l-23.461-8.591 8.789-2.182 14.673 10.773z"/></g><g style="mix-blend-mode:overlay" class="B C"><path d="M98.977 109.689a.84.84 0 0 0 1.681-.001.84.84 0 0 0-.84-.837c-.223 0-.437.089-.594.246s-.246.37-.246.592z"/></g><g style="mix-blend-mode:overlay" class="B C"><path d="M98.387 126.28c0 .339.204.644.518.774a.84.84 0 0 0 .916-.181c.24-.239.312-.599.182-.912a.84.84 0 0 0-1.617.319z"/></g><g style="mix-blend-mode:overlay" class="B C"><path d="M96.996 144.511a.84.84 0 1 0 1.681-.001.84.84 0 0 0-.841-.837c-.223 0-.437.089-.594.246s-.246.37-.246.592z"/></g><g style="mix-blend-mode:overlay" class="B C"><path d="M96.696 161.537c0 .339.204.644.518.774s.675.058.916-.181.313-.599.183-.912a.84.84 0 0 0-1.617.319z"/></g><g style="mix-blend-mode:overlay" class="B C"><path d="M97.536 185.508c0 .339.204.644.519.774a.84.84 0 0 0 .916-.181c.241-.239.313-.599.183-.912a.84.84 0 0 0-1.618.319z"/></g><g style="mix-blend-mode:overlay" class="B C"><path d="M129.086 181.734l-.415-7.229c2.186 4.544 3.588 9.443 2.659 16.967-.834-3.514-2.128-7.209-2.244-9.738z"/></g><path d="M129.305 157.141c.055 0 .109-.017.155-.049 3.727-2.587 7.725-.685 7.765-.666a.27.27 0 0 0 .362-.122.27.27 0 0 0-.123-.361c-.043-.021-4.318-2.066-8.314.707-.097.067-.139.19-.103.302a.27.27 0 0 0 .258.189h0z" class="F"/><g style="mix-blend-mode:overlay" class="B E"><path d="M152.293 192.683l-3.118 1.537c-4.495-9.297-13.849-33.669-14.864-36.087-1.114-2.651.378-38.519 1.011-41.008s2.036-3.351 2.036-3.351.408 31.868-.134 43.017c3.042 8.712 10.412 25.233 15.069 35.892z"/></g><path d="M61.183 126.576c.055.001.109-.016.154-.047 7.755-5.34 7.802-16.996 7.801-17.113-.003-.148-.123-.267-.272-.269-.072.001-.141.029-.191.08s-.079.119-.079.191c.001.114-.05 11.49-7.568 16.667a.27.27 0 0 0-.104.302c.035.113.14.189.258.19v-.001zm-14.822 32.377a.27.27 0 0 0 .235-.136c2.092-3.644 6.762-4.374 6.809-4.381a.27.27 0 0 0 .228-.306.27.27 0 0 0-.308-.227c-.202.029-4.974.771-7.199 4.647-.048.083-.048.186.001.269a.27.27 0 0 0 .234.134h0z" class="F"/><path d="M80.901 71.54l-2.246 9.262 14.672 10.773s.613-4.44 3.311-7.136l6.412 6.903 4.208-9.789-4.074-4.568s-1.977 5.247-6.546 7.452c-6.962-1.654-12.769-6.414-15.737-12.899zm11.811 46.82l.07 2.912-17.826.426-.07-2.912 17.826-.426z" fill="#fcc92c" class="D"/><g style="mix-blend-mode:overlay" class="B D E"><path d="M180.057 184.088l4.416 8.884-.96.473c-.174.086-.308.238-.37.422s-.049.384.038.558l6.894 13.873c.18.362.621.51.984.331l.96-.473 4.416 8.884a1.95 1.95 0 0 1 .1 1.49 1.96 1.96 0 0 1-.987 1.124l-50.686 24.981a1.97 1.97 0 0 1-1.495.1c-.493-.166-.899-.519-1.129-.983l-16.377-32.953a1.94 1.94 0 0 1-.1-1.489c.166-.49.521-.894.986-1.124l50.686-24.981a1.96 1.96 0 0 1 1.496-.1c.492.166.898.519 1.128.983zm-8.802 43.555c.193-.095.341-.262.411-.465a.81.81 0 0 0-.04-.618l-5.488-11.136c-.198-.401-.685-.567-1.088-.37s-.569.682-.371 1.083l5.488 11.136c.198.401.685.566 1.088.37zm-10.366 4.803c-.07.203-.218.37-.412.465-.403.196-.889.031-1.087-.37l-8.233-16.704a.81.81 0 0 1 .371-1.083c.403-.197.89-.032 1.088.37l8.233 16.704a.81.81 0 0 1 .04.618zm-18.607-22.886a.81.81 0 0 0-.372 1.083l12.091 24.531c.198.402.685.567 1.088.37s.569-.681.371-1.083l-12.091-24.531c-.198-.401-.684-.567-1.087-.37zm10.842-3.3c-.198-.401-.032-.886.371-1.083s.89-.031 1.087.37l11.655 23.647c.198.401.032.886-.371 1.083s-.89.031-1.088-.37l-11.654-23.647zm12.203-4.212c-.403.196-.569.681-.371 1.083l10.6 21.508c.198.401.685.567 1.088.37a.81.81 0 0 0 .371-1.083l-10.601-21.509c-.197-.401-.684-.566-1.087-.369zm1.508-8.67a.81.81 0 0 1 .372-1.083c.403-.197.89-.031 1.087.37l14.109 28.627c.198.401.032.886-.371 1.083s-.89.031-1.087-.37l-14.11-28.627z"/></g><g style="mix-blend-mode:overlay" class="B C D"><path d="M83.825 262.02v35.732c-.003 3.226-2.59 5.861-5.829 5.937l.25.005c3.295 0 8.826-2.679 8.826-7.38v-46.367c0-3.282-2.671-5.942-5.966-5.942H9.993c-3.295 0-9.022 2.6-9.022 5.882v.009c.682-2.619 3.055-4.449 5.772-4.451h71.113c3.294 0 5.966 2.658 5.968 5.939v9.53a.6.6 0 0 0-.168.027l-38.765 12.245a3.01 3.01 0 0 0-5.18.001L.943 260.941a.6.6 0 0 0-.168-.027v1.106l38.562 12.181a2.99 2.99 0 0 0-.047.512v1.045c0 1.657 1.349 3.001 3.013 3.001s3.013-1.344 3.013-3.001v-1.045c-.001-.173-.017-.345-.048-.516l38.558-12.177z"/></g><path d="M35.631 218.31c-.06 2.538-.316 5.832-1.163 7.854-1.181 2.816-1.27 11.718-.105 13.784a3.8 3.8 0 0 0 1.676 1.392 11.93 11.93 0 0 0 2.296 1.125c.368.092.739-.036 1.121-.168.359-.124.727-.252 1.114-.203.361.045.759.25 1.161.458.458.236.921.475 1.343.486.474.012.96-.187 1.438-.383.4-.164.795-.326 1.173-.359.481-.043.958.049 1.415.137.544.104 1.062.204 1.525.065.588-.175 2.07-1.549 2.302-1.876.565-.799.23-2.312-.041-3.535-.194-.874-.354-1.6-.132-1.814.211-.204.383.107.672.627.441.797 1.155 2.083 2.694 2.76 2.546 1.118 4.003-1.161 3.668-1.828s-5.374-6.294-6.755-7.739c-.994-1.038-1.611-2.501-2.096-3.653-.19-.451-.361-.855-.525-1.166-.369-.697-.489-3.817-.528-6.031-4.355-1.674-10.484-.37-12.252.067zm134.226 12.844a1.87 1.87 0 0 1 2.258.821l1.213 1.955c.241.388.297.863.154 1.297a1.55 1.55 0 0 1-.897.952l-.476.191a1.56 1.56 0 0 1-1.856-.554l-1.316-1.887c-.316-.476-.395-1.069-.216-1.61a1.86 1.86 0 0 1 1.136-1.165zm7.999.04c.437.47.813.992 1.121 1.553.316 1.08-.431 2.658-2.048 1.82a13.46 13.46 0 0 1-2.154-1.854l3.081-1.519zm-12.137 1.984h0c-.606.11-1.121.508-1.379 1.065s-.227 1.206.084 1.736l.865 1.572c.306.556.956.827 1.568.655l.856-.241a1.36 1.36 0 0 0 .862-.726 1.35 1.35 0 0 0 .019-1.123l-.784-1.799c-.339-.824-1.211-1.299-2.091-1.139zm-5.076 1.752c.796-.111 1.554.374 1.782 1.142l.611 1.545c.128.324.098.689-.081.989a1.13 1.13 0 0 1-.834.542l-.914.113c-.492.06-.966-.205-1.17-.654l-.702-1.545a1.61 1.61 0 0 1 .148-1.373c.253-.413.679-.691 1.16-.759z" fill="#f7b17d" class="D"/><defs ><path id="B" d="M425.322 135.2h-4.365v63.336h4.365z"/><path id="C" d="M286.411 87.316l-1.116-4.088v-.065h5.958v.065l1.121 4.088c2.86 11.736 2.497 24.891-1.143 36.234h-5.958c3.635-11.364 3.998-24.498 1.138-36.234z"/></defs></svg>