<svg xmlns="http://www.w3.org/2000/svg" viewBox="0 0 24 24" xmlns:v="https://vecta.io/nano"><path fill="#1b5bf7" d="M10 15l5.19-3L10 9zm11.56-7.83c.13.47.22 1.1.28 1.9l.1 2.09.06.84c0 2.19-.16 3.8-.44 4.83a2.34 2.34 0 0 1-1.73 1.73c-.47.13-1.33.22-2.65.28l-3.59.1L12 19c-4.19 0-6.8-.16-7.83-.44a2.34 2.34 0 0 1-1.73-1.73c-.13-.47-.22-1.1-.28-1.9l-.1-2.09L2 12c0-2.19.16-3.8.44-4.83a2.34 2.34 0 0 1 1.73-1.73c.47-.13 1.33-.22 2.65-.28l3.59-.1L12 5c4.19 0 6.8.16 7.83.44a2.34 2.34 0 0 1 1.73 1.73"/></svg>