<svg xmlns="http://www.w3.org/2000/svg" width="24" height="24" fill="none" fill-rule="evenodd" xmlns:v="https://vecta.io/nano"><path d="M4.439 15.637l-1.209.459-.066 3.736 4.186-1.588c-1.436-.501-2.484-1.382-2.911-2.607z" fill="#fdbd39"/><path d="M5.071 11.686L.876 13.279l2.353 2.817 1.209-.459c-.426-1.22-.163-2.6.633-3.951v-.001z" fill="#f69833"/><path d="M12.13 6.297c-5.342 2.026-8.786 6.208-7.692 9.34l19.344-7.338c-1.093-3.132-6.311-4.027-11.652-2.001z" fill="#fecf33"/><path d="M16.091 17.638c5.342-2.026 8.791-6.189 7.692-9.34L4.438 15.637c1.1 3.15 6.311 4.028 11.652 2.001z" fill="#ee6723"/><path d="M23.783 8.298L4.438 15.637c.379 1.085 1.822 1.619 3.85 1.619 1.976 0 4.505-.508 7.142-1.507 5.342-2.027 9.1-5.308 8.352-7.45z" fill="#f69833"/><path d="M19.933 6.679c-1.976 0-4.506.508-7.142 1.507-5.342 2.027-9.1 5.308-8.353 7.45l19.345-7.338c-.379-1.085-1.823-1.619-3.85-1.619z" fill="#fdbd39"/><g fill="#ee6723"><path d="M18.864 20.029c-.569 0-1.409-.535-2.496-1.588-1.286-1.245-2.759-3.069-4.147-5.137s-2.53-4.134-3.213-5.819c-.744-1.837-.851-2.966-.316-3.357.124-.088.271-.133.42-.129.436 0 1.284.337 2.852 1.94l.034.035-.005.05-.029.346-.018.226-.154-.161c-1.69-1.769-2.434-1.959-2.676-1.959-.057-.003-.114.011-.163.042-.231.17-.247 1 .475 2.779.671 1.656 1.796 3.691 3.167 5.732s2.82 3.837 4.084 5.061c1.362 1.319 1.976 1.461 2.176 1.461a.28.28 0 0 0 .167-.046c.245-.178.245-1.067-.56-2.983l-.036-.089.08-.046.233-.134.097-.057.044.106c.571 1.358 1.104 3.084.405 3.594a.7.7 0 0 1-.422.129v.001zm0-.209v.104-.104z"/><path d="M16.22 17.581l-.008.104c-.135 1.735-.491 3.822-1.418 3.907l-.057.003c-.63 0-1.227-.937-1.772-2.786-.515-1.748-.915-4.096-1.127-6.61s-.208-4.899.009-6.714c.236-1.978.686-3.012 1.337-3.071l.06-.003c.457 0 1.145.537 1.85 3.04l-.46.092c-.235-.836-.492-1.517-.747-1.985-.235-.432-.464-.669-.644-.669h-.018c-.282.026-.693.737-.922 2.655-.213 1.783-.216 4.132-.007 6.614s.602 4.794 1.108 6.511c.227.769.476 1.403.72 1.833.225.397.443.615.613.615.287-.025.796-.764 1.01-3.366l.473-.169z"/></g></svg>